{
.appVersion = "3309";
.formatVersion = 3;
axes = (
{
name = Width;
tag = wdth;
},
{
name = Weight;
tag = wght;
}
);
customParameters = (
{
disabled = 1;
name = glyphOrder;
value = (
.notdef,
a,
b,
c,
d,
e,
f,
g,
h,
i,
j,
k,
l,
m,
n,
o,
p,
q,
r,
s,
t,
u,
v,
w,
x,
y,
z,
A,
B,
C,
D,
E,
F,
G,
H,
I,
J,
K,
L,
M,
N,
O,
P,
Q,
R,
S,
T,
U,
V,
W,
X,
Y,
Z,
germandbls,
Thorn,
uni0237,
Delta,
one,
two,
three,
four,
five,
six,
seven,
eight,
nine,
zero,
space,
CR,
NULL,
paragraph,
exclam,
quotedbl,
numbersign,
dollar,
percent,
ampersand,
quotesingle,
parenleft,
parenright,
asterisk,
plus,
comma,
hyphen,
period,
slash,
colon,
semicolon,
less,
equal,
greater,
question,
at,
bracketleft,
backslash,
asciicircum,
underscore,
grave,
bracketright,
braceleft,
bar,
asciitilde,
braceright,
exclamdown,
cent,
sterling,
yen,
brokenbar,
section,
copyright,
registered,
degree,
guilsinglleft,
guilsinglright,
fraction,
uni2215,
Euro,
minus,
summation,
perthousand,
ellipsis,
endash,
emdash,
periodcentered,
bullet,
approxequal,
uni2219,
infinity,
mu,
notequal,
trademark,
guillemotleft,
guillemotright,
logicalnot,
questiondown,
pi,
ordmasculine,
ordfeminine,
onesuperior,
twosuperior,
threesuperior,
multiply,
divide,
onequarter,
onehalf,
threequarters,
cedilla,
dieresis,
acute,
circumflex,
caron,
uni02C9,
breve,
dotaccent,
ring,
ogonek,
tilde,
uni0326,
uni00AF,
hungarumlaut,
product,
quotedblbase,
quotesinglbase,
quoteleft,
quoteright,
quotedblleft,
quotedblright,
dagger,
daggerdbl,
lozenge,
dotlessi,
thorn,
f_f,
fi,
f_f_i,
lira,
franc,
longs,
eth,
AE,
ae,
OE,
oe,
Agrave,
Aacute,
Acircumflex,
Atilde,
Adieresis,
Aring,
Ccedilla,
Egrave,
Eacute,
Ecircumflex,
Edieresis,
Igrave,
Iacute,
Icircumflex,
Idieresis,
Eth,
Ntilde,
Ograve,
Oacute,
Ocircumflex,
Otilde,
Odieresis,
Oslash,
Ugrave,
Uacute,
Ucircumflex,
Udieresis,
Yacute,
agrave,
aacute,
acircumflex,
atilde,
adieresis,
aring,
ccedilla,
egrave,
eacute,
ecircumflex,
edieresis,
igrave,
iacute,
icircumflex,
idieresis,
ntilde,
ograve,
oacute,
ocircumflex,

glyphs = (
{
glyphname = A;
kernLeft = A1;
kernRight = A;
lastChange = "2024-07-18 13:22:01 +0000";
layers = (
{
anchors = (
{
name = bottom;
pos = (733,76);
},
{
name = top;
pos = (583,643);
}
);
background = {
anchors = (
{
name = bottom;
pos = (733,76);
},
{
name = top;
pos = (583,643);
}
);
shapes = (
{
closed = 1;
nodes = (
(65.58,98,o),
(42.398,12,o),
(189.8,-1,cs),
(317.602,-12,o),
(349.988,60,o),
(349.988,60,c),
(385.969,155,o),
(382.371,147,o),
(432.75,249,c),
(460.341,297,o),
(516.127,366,o),
(544.718,409,c),
(558.728,359,o),
(567.738,309,o),
(581.953,235,cs),
(587.959,205,o),
(587.37,152,o),
(598.185,76,c),
(598.185,76,o),
(612.001,-5,o),
(741.001,-5,cs),
(870.001,-5,o),
(878.586,68,o),
(878.586,68,c),
(890.152,241,o),
(838.719,404,o),
(813.904,480,c),
(790.482,588,o),
(656.07,651,o),
(588.471,643,c),
(496.272,642,o),
(412.67,649,o),
(232.317,417,c),
(158.339,307,o),
(89.96,200,o),
(65.58,98,c)
);
},
{
closed = 1;
nodes = (
(235.383,87,l),
(364.978,110,o),
(564.779,104,o),
(702.383,87,c),
(706.752,239,l),
(549.55,248,o),
(427.752,239,o),
(284.357,217,c)
);
}
);
};
layerId = "7E05DFED-BC11-4724-94EA-0D0C4C5F5B37";
shapes = (
{
closed = 1;
nodes = (
(870.001,-5,o),
(878.586,68,o),
(878.586,68,c),
(890.152,241,o),
(838.719,404,o),
(813.904,480,c),
(790.482,588,o),
(656.07,651,o),
(588.471,643,c),
(496.272,642,o),
(412.67,649,o),
(232.317,417,c),
(158.339,307,o),
(89.96,200,o),
(65.58,98,c),
(65.58,98,o),
(42.398,12,o),
(189.8,-1,cs),
(317.602,-12,o),
(349.988,60,o),
(349.988,60,c),
(385.969,155,o),
(382.371,147,o),
(432.75,249,c),
(460.341,297,o),
(516.127,366,o),
(544.718,409,c),
(558.728,359,o),
(567.738,309,o),
(581.953,235,cs),
(587.959,205,o),
(587.37,152,o),
(598.185,76,c),
(598.185,76,o),
(612.001,-5,o),
(741.001,-5,cs)
);
},
{
closed = 1;
nodes = (
(364.978,110,o),
(564.779,104,o),
(702.383,87,c),
(706.752,239,l),
(549.55,248,o),
(427.752,239,o),
(284.357,217,c),
(235.383,87,l)
);
}
);
width = 911;
},
{
anchors = (
{
name = bottom;
pos = (649,43);
},
{
name = top;
pos = (510,643);
}
);
background = {
anchors = (
{
name = bottom;
pos = (649,43);
},
{
name = top;
pos = (510,643);
}
);
shapes = (
{
closed = 1;
nodes = (
(80.595,23,o),
(78.4,2,o),
(111.8,-1,cs),
(146.201,-4,o),
(152.997,15,o),
(152.997,15,c),
(184.173,136,o),
(251.946,270,o),
(341.517,413,cs),
(384.703,484,o),
(439.291,547,o),
(512.48,598,c),
(541.89,550,o),
(566.102,491,o),
(579.516,418,cs),
(603.739,304,o),
(612.767,164,o),
(614.997,15,c),
(614.997,15,o),
(618.6,-2,o),
(650.8,-1,cs),
(682,0,o),
(683.997,15,o),
(683.997,15,c),
(694.762,189,o),
(665.121,396,o),
(640.306,472,c),
(617.084,581,o),
(578.07,651,o),
(510.471,643,c),
(419.272,642,o),
(340.493,533,o),
(263.317,417,c),
(179.344,282,o),
(114.97,150,o),
(80.595,23,c)
);
},
{
closed = 1;
nodes = (
(159.981,95,l),
(288.377,117,o),
(490.376,122,o),
(627.979,105,c),
(627.171,146,l),
(471.769,154,o),
(320.77,149,o),
(176.375,127,c)
);
}
);
};
layerId = "99376340-70F9-4B1D-A253-B1BEDBF73140";
shapes = (
{
closed = 1;
nodes = (
(146.201,-4,o),
(152.997,15,o),
(152.997,15,c),
(184.173,136,o),
(251.946,270,o),
(341.517,413,cs),
(384.703,484,o),
(439.291,547,o),
(512.48,598,c),
(541.89,550,o),
(566.102,491,o),
(579.516,418,cs),
(603.739,304,o),
(612.767,164,o),
(614.997,15,c),
(614.997,15,o),
(618.6,-2,o),
(650.8,-1,cs),
(682,0,o),
(683.997,15,o),
(683.997,15,c),
(694.762,189,o),
(665.121,396,o),
(640.306,472,c),
(617.084,581,o),
(578.07,651,o),
(510.471,643,c),
(419.272,642,o),
(340.493,533,o),
(263.317,417,c),
(179.344,282,o),
(114.97,150,o),
(80.595,23,c),
(80.595,23,o),
(78.4,2,o),
(111.8,-1,cs)
);
},
{
closed = 1;
nodes = (
(288.377,117,o),
(490.376,122,o),
(627.979,105,c),
(627.171,146,l),
(471.769,154,o),
(320.77,149,o),
(176.375,127,c),
(159.981,95,l)
);
}
);
width = 757;
},
{
anchors = (
{
name = bottom;
pos = (494,76);
},
{
name = top;
pos = (432,643);
}
);
background = {
anchors = (
{
name = bottom;
pos = (494,76);
},
{
name = top;
pos = (432,643);
}
);
shapes = (
{
closed = 1;
nodes = (
(50.58,98,o),
(29.398,12,o),
(126.8,-1,cs),
(211.602,-12,o),
(237.988,60,o),
(237.988,60,c),
(267.969,155,o),
(265.371,147,o),
(305.75,249,c),
(327.341,297,o),
(369.127,366,o),
(390.718,409,c),
(396.728,359,o),
(399.738,309,o),
(403.953,235,cs),
(405.959,205,o),
(402.37,152,o),
(404.185,76,c),
(404.185,76,o),
(408.001,-5,o),
(494.001,-5,cs),
(580.001,-5,o),
(590.586,68,o),
(590.586,68,c),
(610.152,241,o),
(586.719,404,o),
(574.904,480,c),
(566.482,588,o),
(481.07,651,o),
(435.471,643,c),
(374.272,642,o),
(318.67,649,o),
(183.317,417,c),
(126.339,307,o),
(73.96,200,o),
(50.58,98,c)
);
},
{
closed = 1;
nodes = (
(163.383,87,l),
(250.978,110,o),
(383.779,104,o),
(474.383,87,c),
(487.752,239,l),
(383.55,248,o),
(301.752,239,o),
(204.357,217,c)
);
}
);
};
layerId = "F94FFD99-753E-41E1-86D1-359C136D3DE6";
shapes = (
{
closed = 1;
nodes = (
(580.001,-5,o),
(590.586,68,o),
(590.586,68,c),
(610.152,241,o),
(586.719,404,o),
(574.904,480,c),
(566.482,588,o),
(481.07,651,o),
(435.471,643,c),
(374.272,642,o),
(318.67,649,o),
(183.317,417,c),
(126.339,307,o),
(73.96,200,o),
(50.58,98,c),
(50.58,98,o),
(29.398,12,o),
(126.8,-1,cs),
(211.602,-12,o),
(237.988,60,o),
(237.988,60,c),
(267.969,155,o),
(265.371,147,o),
(305.75,249,c),
(327.341,297,o),
(369.127,366,o),
(390.718,409,c),
(396.728,359,o),
(399.738,309,o),
(403.953,235,cs),
(405.959,205,o),
(402.37,152,o),
(404.185,76,c),
(404.185,76,o),
(408.001,-5,o),
(494.001,-5,cs)
);
},
{
closed = 1;
nodes = (
(250.978,110,o),
(383.779,104,o),
(474.383,87,c),
(487.752,239,l),
(383.55,248,o),
(301.752,239,o),
(204.357,217,c),
(163.383,87,l)
);
}
);
width = 608;
},
{
anchors = (
{
name = bottom;
pos = (436,43);
},
{
name = top;
pos = (383,643);
}
);
background = {
anchors = (
{
name = bottom;
pos = (436,43);
},
{
name = top;
pos = (383,643);
}
);
shapes = (
{
closed = 1;
nodes = (
(55.595,23,o),
(52.4,2,o),
(74.8,-1,cs),
(97.201,-4,o),
(102.997,15,o),
(102.997,15,c),
(132.173,136,o),
(185.946,270,o),
(255.517,413,c),
(288.703,484,o),
(329.291,547,o),
(381.48,598,c),
(397.89,550,o),
(410.102,491,o),
(414.516,418,cs),
(422.739,304,o),
(419.767,164,o),
(410.997,15,c),
(410.997,15,o),
(412.6,-2,o),
(433.8,-1,cs),
(455,0,o),
(456.997,15,o),
(456.997,15,c),
(475.762,189,o),
(470.121,396,o),
(458.306,472,c),
(450.084,581,o),
(429.07,651,o),
(383.471,643,c),
(322.272,642,o),
(262.493,533,o),
(203.317,417,c),
(138.344,282,o),
(86.97,150,o),
(55.595,23,c)
);
},
{
closed = 1;
nodes = (
(112.981,95,l),
(200.377,117,o),
(335.376,122,o),
(425.979,105,c),
(428.171,146,l),
(324.769,154,o),
(223.77,149,o),
(126.375,127,c)
);
}
);
};
layerId = "E82ED6F4-5586-4A54-A016-86253174F252";
shapes = (
{
closed = 1;
nodes = (
(97.201,-4,o),
(102.997,15,o),
(102.997,15,c),
(132.173,136,o),
(185.946,270,o),
(255.517,413,c),
(288.703,484,o),
(329.291,547,o),
(381.48,598,c),
(397.89,550,o),
(410.102,491,o),
(414.516,418,cs),
(422.739,304,o),
(419.767,164,o),
(410.997,15,c),
(410.997,15,o),
(412.6,-2,o),
(433.8,-1,cs),
(455,0,o),
(456.997,15,o),
(456.997,15,c),
(475.762,189,o),
(470.121,396,o),
(458.306,472,c),
(450.084,581,o),
(429.07,651,o),
(383.471,643,c),
(322.272,642,o),
(262.493,533,o),
(203.317,417,c),
(138.344,282,o),
(86.97,150,o),
(55.595,23,c),
(55.595,23,o),
(52.4,2,o),
(74.8,-1,cs)
);
},
{
closed = 1;
nodes = (
(200.377,117,o),
(335.376,122,o),
(425.979,105,c),
(428.171,146,l),
(324.769,154,o),
(223.77,149,o),
(126.375,127,c),
(112.981,95,l)
);
}
);
width = 505;
}
);
unicode = 65;
},
{
glyphname = Aacute;
kernLeft = A1;
kernRight = A;
lastChange = "2024-07-18 12:46:04 +0000";
layers = (
{
anchors = (
{
name = bottom;
pos = (733,76);
}
);
background = {
anchors = (
{
name = bottom;
pos = (733,76);
},
{
name = top;
pos = (583,643);
}
);
shapes = (
{
closed = 1;
nodes = (
(65.58,98,o),
(42.398,12,o),
(189.8,-1,cs),
(317.602,-12,o),
(349.988,60,o),
(349.988,60,c),
(385.969,155,o),
(382.371,147,o),
(432.75,249,c),
(460.341,297,o),
(516.127,366,o),
(544.718,409,c),
(558.728,359,o),
(567.738,309,o),
(581.953,235,cs),
(587.959,205,o),
(587.37,152,o),
(598.185,76,c),
(598.185,76,o),
(612.001,-5,o),
(741.001,-5,cs),
(870.001,-5,o),
(878.586,68,o),
(878.586,68,c),
(890.152,241,o),
(838.719,404,o),
(813.904,480,c),
(790.482,588,o),
(656.07,651,o),
(588.471,643,c),
(496.272,642,o),
(412.67,649,o),
(232.317,417,c),
(158.339,307,o),
(89.96,200,o),
(65.58,98,c)
);
},
{
closed = 1;
nodes = (
(235.383,87,l),
(364.978,110,o),
(564.779,104,o),
(702.383,87,c),
(706.752,239,l),
(549.55,248,o),
(427.752,239,o),
(284.357,217,c)
);
},
{
closed = 1;
nodes = (
(684,832,o),
(770,843,o),
(797,809,cs),
(826,769,o),
(764,738,o),
(764,738,c),
(693,695,o),
(567,674,o),
(524,669,c),
(524,669,o),
(438,660,o),
(417,695,cs),
(380,757,o),
(492,792,o),
(492,792,c),
(595,822,o),
(646,828,o),
(684,832,c)
);
}
);
};
layerId = "7E05DFED-BC11-4724-94EA-0D0C4C5F5B37";
shapes = (
{
alignment = -1;
ref = A;
},
{
alignment = -1;
pos = (256,183);
ref = acute;
}
);
width = 911;
},
{
anchors = (
{
name = bottom;
pos = (648,43);
}
);
background = {
anchors = (
{
name = bottom;
pos = (648,43);
},
{
name = top;
pos = (510,643);
}
);
shapes = (
{
closed = 1;
nodes = (
(80.595,23,o),
(78.4,2,o),
(111.8,-1,cs),
(146.201,-4,o),
(152.997,15,o),
(152.997,15,c),
(184.173,136,o),
(251.946,270,o),
(341.517,413,cs),
(384.703,484,o),
(439.291,547,o),
(512.48,598,c),
(541.89,550,o),
(566.102,491,o),
(579.516,418,cs),
(603.739,304,o),
(612.767,164,o),
(614.997,15,c),
(614.997,15,o),
(618.6,-2,o),
(650.8,-1,cs),
(682,0,o),
(683.997,15,o),
(683.997,15,c),
(694.762,189,o),
(665.121,396,o),
(640.306,472,c),
(617.084,581,o),
(578.07,651,o),
(510.471,643,c),
(419.272,642,o),
(340.493,533,o),
(263.317,417,c),
(179.344,282,o),
(114.97,150,o),
(80.595,23,c)
);
},
{
closed = 1;
nodes = (
(159.981,95,l),
(288.377,117,o),
(490.376,122,o),
(627.979,105,c),
(627.171,146,l),
(471.769,154,o),
(320.77,149,o),
(176.375,127,c)
);
},
{
closed = 1;
nodes = (
(667,811,o),
(690,820,o),
(699,806,cs),
(709,792,o),
(685,785,o),
(685,785,c),
(594,750,o),
(493,718,o),
(382,689,c),
(382,689,o),
(355,682,o),
(347,696,cs),
(341,709,o),
(367,720,o),
(367,720,c),
(471,749,o),
(571,780,o),
(667,811,c)
);
}
);
};
layerId = "99376340-70F9-4B1D-A253-B1BEDBF73140";
shapes = (
{
alignment = -1;
ref = A;
},
{
alignment = -1;
pos = (167,183);
ref = acute;
}
);
width = 756;
},
{
anchors = (
{
name = bottom;
pos = (494,76);
}
);
background = {
anchors = (
{
name = bottom;
pos = (494,76);
},
{
name = top;
pos = (432,643);
}
);
shapes = (
{
closed = 1;
nodes = (
(50.58,98,o),
(29.398,12,o),
(126.8,-1,cs),
(211.602,-12,o),
(237.988,60,o),
(237.988,60,c),
(267.969,155,o),
(265.371,147,o),
(305.75,249,c),
(327.341,297,o),
(369.127,366,o),
(390.718,409,c),
(396.728,359,o),
(399.738,309,o),
(403.953,235,cs),
(405.959,205,o),
(402.37,152,o),
(404.185,76,c),
(404.185,76,o),
(408.001,-5,o),
(494.001,-5,cs),
(580.001,-5,o),
(590.586,68,o),
(590.586,68,c),
(610.152,241,o),
(586.719,404,o),
(574.904,480,c),
(566.482,588,o),
(481.07,651,o),
(435.471,643,c),
(374.272,642,o),
(318.67,649,o),
(183.317,417,c),
(126.339,307,o),
(73.96,200,o),
(50.58,98,c)
);
},
{
closed = 1;
nodes = (
(163.383,87,l),
(250.978,110,o),
(383.779,104,o),
(474.383,87,c),
(487.752,239,l),
(383.55,248,o),
(301.752,239,o),
(204.357,217,c)
);
},
{
closed = 1;
nodes = (
(513,832,o),
(571,843,o),
(586,809,cs),
(603,769,o),
(560,738,o),
(560,738,c),
(509,695,o),
(424,674,o),
(395,669,c),
(395,669,o),
(337,660,o),
(325,695,cs),
(305,757,o),
(382,792,o),
(382,792,c),
(453,822,o),
(487,828,o),
(513,832,c)
);
}
);
};
layerId = "F94FFD99-753E-41E1-86D1-359C136D3DE6";
shapes = (
{
alignment = -1;
ref = A;
},
{
alignment = -1;
pos = (184,183);
ref = acute;
}
);
width = 608;
},
{
anchors = (
{
name = bottom;
pos = (435,43);
}
);
background = {
anchors = (
{
name = bottom;
pos = (435,43);
},
{
name = top;
pos = (383,643);
}
);
shapes = (
{
closed = 1;
nodes = (
(55.595,23,o),
(52.4,2,o),
(74.8,-1,cs),
(97.201,-4,o),
(102.997,15,o),
(102.997,15,c),
(132.173,136,o),
(185.946,270,o),
(255.517,413,c),
(288.703,484,o),
(329.291,547,o),
(381.48,598,c),
(397.89,550,o),
(410.102,491,o),
(414.516,418,cs),
(422.739,304,o),
(419.767,164,o),
(410.997,15,c),
(410.997,15,o),
(412.6,-2,o),
(433.8,-1,cs),
(455,0,o),
(456.997,15,o),
(456.997,15,c),
(475.762,189,o),
(470.121,396,o),
(458.306,472,c),
(450.084,581,o),
(429.07,651,o),
(383.471,643,c),
(322.272,642,o),
(262.493,533,o),
(203.317,417,c),
(138.344,282,o),
(86.97,150,o),
(55.595,23,c)
);
},
{
closed = 1;
nodes = (
(112.981,95,l),
(200.377,117,o),
(335.376,122,o),
(425.979,105,c),
(428.171,146,l),
(324.769,154,o),
(223.77,149,o),
(126.375,127,c)
);
},
{
closed = 1;
nodes = (
(499,811,o),
(515,820,o),
(520,806,cs),
(526,792,o),
(509,785,o),
(509,785,c),
(446,750,o),
(377,718,o),
(301,689,c),
(301,689,o),
(283,682,o),
(278,696,cs),
(275,709,o),
(293,720,o),
(293,720,c),
(364,749,o),
(433,780,o),
(499,811,c)
);
}
);
};
layerId = "E82ED6F4-5586-4A54-A016-86253174F252";
shapes = (
{
alignment = -1;
ref = A;
},
{
alignment = -1;
pos = (124,183);
ref = acute;
}
);
width = 504;
}
);
unicode = 193;
},
{
glyphname = Abreve;
kernLeft = A1;
kernRight = A;
lastChange = "2024-07-18 12:46:04 +0000";
layers = (
{
anchors = (
{
name = bottom;
pos = (733,76);
}
);
background = {
anchors = (
{
name = bottom;
pos = (733,76);
},
{
name = top;
pos = (583,643);
}
);
shapes = (
{
closed = 1;
nodes = (
(65.58,98,o),
(42.398,12,o),
(189.8,-1,cs),
(317.602,-12,o),
(349.988,60,o),
(349.988,60,c),
(385.969,155,o),
(382.371,147,o),
(432.75,249,c),
(460.341,297,o),
(516.127,366,o),
(544.718,409,c),
(558.728,359,o),
(567.738,309,o),
(581.953,235,cs),
(587.959,205,o),
(587.37,152,o),
(598.185,76,c),
(598.185,76,o),
(612.001,-5,o),
(741.001,-5,cs),
(870.001,-5,o),
(878.586,68,o),
(878.586,68,c),
(890.152,241,o),
(838.719,404,o),
(813.904,480,c),
(790.482,588,o),
(656.07,651,o),
(588.471,643,c),
(496.272,642,o),
(412.67,649,o),
(232.317,417,c),
(158.339,307,o),
(89.96,200,o),
(65.58,98,c)
);
},
{
closed = 1;
nodes = (
(235.383,87,l),
(364.978,110,o),
(564.779,104,o),
(702.383,87,c),
(706.752,239,l),
(549.55,248,o),
(427.752,239,o),
(284.357,217,c)
);
},
{
closed = 1;
nodes = (
(423,857,o),
(462,882,o),
(520,875,cs),
(605,866,o),
(602,818,o),
(602,818,c),
(603,813,o),
(602,808,o),
(599,802,c),
(597,796,o),
(603,793,o),
(619,797,cs),
(631,800,o),
(630,807,o),
(630,811,cs),
(631,816,o),
(635,825,o),
(641,834,c),
(641,834,o),
(669,870,o),
(746,870,cs),
(837,869,o),
(863,822,o),
(863,822,c),
(870,800,o),
(859,768,o),
(847,752,c),
(798,703,o),
(731,670,o),
(628,667,c),
(564,661,o),
(455,675,o),
(408,717,c),
(354,756,o),
(360,824,o),
(423,857,c)
);
}
);
};
layerId = "7E05DFED-BC11-4724-94EA-0D0C4C5F5B37";
shapes = (
{
alignment = -1;
ref = A;
},
{
alignment = -1;
pos = (205,183);
ref = breve;
}
);
width = 911;
},
{
anchors = (
{
name = bottom;
pos = (648,43);
}
);
background = {
anchors = (
{
name = bottom;
pos = (648,43);
},
{
name = top;
pos = (510,643);
}
);
shapes = (
{
closed = 1;
nodes = (
(80.595,23,o),
(78.4,2,o),
(111.8,-1,cs),
(146.201,-4,o),
(152.997,15,o),
(152.997,15,c),
(184.173,136,o),
(251.946,270,o),
(341.517,413,cs),
(384.703,484,o),
(439.291,547,o),
(512.48,598,c),
(541.89,550,o),
(566.102,491,o),
(579.516,418,cs),
(603.739,304,o),
(612.767,164,o),
(614.997,15,c),
(614.997,15,o),
(618.6,-2,o),
(650.8,-1,cs),
(682,0,o),
(683.997,15,o),
(683.997,15,c),
(694.762,189,o),
(665.121,396,o),
(640.306,472,c),
(617.084,581,o),
(578.07,651,o),
(510.471,643,c),
(419.272,642,o),
(340.493,533,o),
(263.317,417,c),
(179.344,282,o),
(114.97,150,o),
(80.595,23,c)
);
},
{
closed = 1;
nodes = (
(159.981,95,l),
(288.377,117,o),
(490.376,122,o),
(627.979,105,c),
(627.171,146,l),
(471.769,154,o),
(320.77,149,o),
(176.375,127,c)
);
},
{
closed = 1;
nodes = (
(379,852,o),
(404,862,o),
(420,853,cs),
(433,845,o),
(414,834,o),
(414,834,c),
(373,801,o),
(374,775,o),
(400,751,cs),
(430,725,o),
(503,715,o),
(573,719,c),
(627,721,o),
(699,742,o),
(733,777,cs),
(743,788,o),
(748,800,o),
(749,816,c),
(749,816,o),
(749,827,o),
(775,829,cs),
(800,831,o),
(806,814,o),
(806,814,c),
(808,801,o),
(804,787,o),
(791,771,c),
(745,722,o),
(676,689,o),
(573,687,c),
(510,681,o),
(400,695,o),
(354,736,c),
(315,766,o),
(317,818,o),
(379,852,c)
);
}
);
};
layerId = "99376340-70F9-4B1D-A253-B1BEDBF73140";
shapes = (
{
alignment = -1;
ref = A;
},
{
alignment = -1;
pos = (131,183);
ref = breve;
}
);
width = 756;
},
{
anchors = (
{
name = bottom;
pos = (494,76);
}
);
background = {
anchors = (
{
name = bottom;
pos = (494,76);
},
{
name = top;
pos = (432,643);
}
);
shapes = (
{
closed = 1;
nodes = (
(50.58,98,o),
(29.398,12,o),
(126.8,-1,cs),
(211.602,-12,o),
(237.988,60,o),
(237.988,60,c),
(267.969,155,o),
(265.371,147,o),
(305.75,249,c),
(327.341,297,o),
(369.127,366,o),
(390.718,409,c),
(396.728,359,o),
(399.738,309,o),
(403.953,235,cs),
(405.959,205,o),
(402.37,152,o),
(404.185,76,c),
(404.185,76,o),
(408.001,-5,o),
(494.001,-5,cs),
(580.001,-5,o),
(590.586,68,o),
(590.586,68,c),
(610.152,241,o),
(586.719,404,o),
(574.904,480,c),
(566.482,588,o),
(481.07,651,o),
(435.471,643,c),
(374.272,642,o),
(318.67,649,o),
(183.317,417,c),
(126.339,307,o),
(73.96,200,o),
(50.58,98,c)
);
},
{
closed = 1;
nodes = (
(163.383,87,l),
(250.978,110,o),
(383.779,104,o),
(474.383,87,c),
(487.752,239,l),
(383.55,248,o),
(301.752,239,o),
(204.357,217,c)
);
},
{
closed = 1;
nodes = (
(340,857,o),
(368,882,o),
(406,875,cs),
(462,866,o),
(457,818,o),
(457,818,c),
(457,813,o),
(456,808,o),
(454,802,c),
(452,796,o),
(456,793,o),
(467,797,cs),
(475,800,o),
(475,807,o),
(475,811,cs),
(476,816,o),
(479,825,o),
(484,834,c),
(484,834,o),
(505,870,o),
(556,870,cs),
(617,869,o),
(631,822,o),
(631,822,c),
(634,800,o),
(625,768,o),
(616,752,c),
(580,703,o),
(533,670,o),
(464,667,c),
(421,661,o),
(349,675,o),
(321,717,c),
(287,756,o),
(296,824,o),
(340,857,c)
);
}
);
};
layerId = "F94FFD99-753E-41E1-86D1-359C136D3DE6";
shapes = (
{
alignment = -1;
ref = A;
},
{
alignment = -1;
pos = (150,183);
ref = breve;
}
);
width = 608;
},
{
anchors = (
{
name = bottom;
pos = (435,43);
}
);
background = {
anchors = (
{
name = bottom;
pos = (435,43);
},
{
name = top;
pos = (383,643);
}
);
shapes = (
{
closed = 1;
nodes = (
(55.595,23,o),
(52.4,2,o),
(74.8,-1,cs),
(97.201,-4,o),
(102.997,15,o),
(102.997,15,c),
(132.173,136,o),
(185.946,270,o),
(255.517,413,c),
(288.703,484,o),
(329.291,547,o),
(381.48,598,c),
(397.89,550,o),
(410.102,491,o),
(414.516,418,cs),
(422.739,304,o),
(419.767,164,o),
(410.997,15,c),
(410.997,15,o),
(412.6,-2,o),
(433.8,-1,cs),
(455,0,o),
(456.997,15,o),
(456.997,15,c),
(475.762,189,o),
(470.121,396,o),
(458.306,472,c),
(450.084,581,o),
(429.07,651,o),
(383.471,643,c),
(322.272,642,o),
(262.493,533,o),
(203.317,417,c),
(138.344,282,o),
(86.97,150,o),
(55.595,23,c)
);
},
{
closed = 1;
nodes = (
(112.981,95,l),
(200.377,117,o),
(335.376,122,o),
(425.979,105,c),
(428.171,146,l),
(324.769,154,o),
(223.77,149,o),
(126.375,127,c)
);
},
{
closed = 1;
nodes = (
(310,852,o),
(327,862,o),
(337,853,cs),
(345,845,o),
(332,834,o),
(332,834,c),
(302,801,o),
(301,775,o),
(317,751,cs),
(335,725,o),
(383,715,o),
(430,719,c),
(466,721,o),
(516,742,o),
(541,777,cs),
(548,788,o),
(552,800,o),
(554,816,c),
(554,816,o),
(555,827,o),
(572,829,cs),
(589,831,o),
(592,814,o),
(592,814,c),
(592,801,o),
(589,787,o),
(579,771,c),
(545,722,o),
(497,689,o),
(428,687,c),
(386,681,o),
(313,695,o),
(285,736,c),
(261,766,o),
(266,818,o),
(310,852,c)
);
}
);
};
layerId = "E82ED6F4-5586-4A54-A016-86253174F252";
shapes = (
{
alignment = -1;
ref = A;
},
{
alignment = -1;
pos = (100,183);
ref = breve;
}
);
width = 504;
}
);
unicode = 258;
},
{
glyphname = Acircumflex;
kernLeft = A1;
kernRight = A;
lastChange = "2024-07-18 12:46:04 +0000";
layers = (
{
anchors = (
{
name = bottom;
pos = (733,76);
}
);
background = {
anchors = (
{
name = bottom;
pos = (733,76);
},
{
name = top;
pos = (583,643);
}
);
shapes = (
{
closed = 1;
nodes = (
(65.58,98,o),
(42.398,12,o),
(189.8,-1,cs),
(317.602,-12,o),
(349.988,60,o),
(349.988,60,c),
(385.969,155,o),
(382.371,147,o),
(432.75,249,c),
(460.341,297,o),
(516.127,366,o),
(544.718,409,c),
(558.728,359,o),
(567.738,309,o),
(581.953,235,cs),
(587.959,205,o),
(587.37,152,o),
(598.185,76,c),
(598.185,76,o),
(612.001,-5,o),
(741.001,-5,cs),
(870.001,-5,o),
(878.586,68,o),
(878.586,68,c),
(890.152,241,o),
(838.719,404,o),
(813.904,480,c),
(790.482,588,o),
(656.07,651,o),
(588.471,643,c),
(496.272,642,o),
(412.67,649,o),
(232.317,417,c),
(158.339,307,o),
(89.96,200,o),
(65.58,98,c)
);
},
{
closed = 1;
nodes = (
(235.383,87,l),
(364.978,110,o),
(564.779,104,o),
(702.383,87,c),
(706.752,239,l),
(549.55,248,o),
(427.752,239,o),
(284.357,217,c)
);
},
{
closed = 1;
nodes = (
(388,753,o),
(347,715,o),
(412,681,cs),
(458,657,o),
(515,674,o),
(515,674,c),
(539,686,o),
(573,703,o),
(599,716,c),
(655,683,l),
(655,683,o),
(728,658,o),
(786,689,cs),
(872,733,o),
(797,780,o),
(797,780,c),
(686,832,l),
(643,857,o),
(563,852,o),
(533,837,c),
(460,805,o),
(434,789,o),
(388,753,c)
);
}
);
};
layerId = "7E05DFED-BC11-4724-94EA-0D0C4C5F5B37";
shapes = (
{
alignment = -1;
ref = A;
},
{
alignment = -1;
pos = (221,183);
ref = circumflex;
}
);
width = 911;
},
{
anchors = (
{
name = bottom;
pos = (648,43);
}
);
background = {
anchors = (
{
name = bottom;
pos = (648,43);
},
{
name = top;
pos = (510,643);
}
);
shapes = (
{
closed = 1;
nodes = (
(80.595,23,o),
(78.4,2,o),
(111.8,-1,cs),
(146.201,-4,o),
(152.997,15,o),
(152.997,15,c),
(184.173,136,o),
(251.946,270,o),
(341.517,413,cs),
(384.703,484,o),
(439.291,547,o),
(512.48,598,c),
(541.89,550,o),
(566.102,491,o),
(579.516,418,cs),
(603.739,304,o),
(612.767,164,o),
(614.997,15,c),
(614.997,15,o),
(618.6,-2,o),
(650.8,-1,cs),
(682,0,o),
(683.997,15,o),
(683.997,15,c),
(694.762,189,o),
(665.121,396,o),
(640.306,472,c),
(617.084,581,o),
(578.07,651,o),
(510.471,643,c),
(419.272,642,o),
(340.493,533,o),
(263.317,417,c),
(179.344,282,o),
(114.97,150,o),
(80.595,23,c)
);
},
{
closed = 1;
nodes = (
(159.981,95,l),
(288.377,117,o),
(490.376,122,o),
(627.979,105,c),
(627.171,146,l),
(471.769,154,o),
(320.77,149,o),
(176.375,127,c)
);
},
{
closed = 1;
nodes = (
(333,714,o),
(317,700,o),
(334,693,cs),
(350,685,o),
(368,695,o),
(368,695,c),
(457,751,o),
(512,784,o),
(556,795,c),
(694,720,l),
(694,720,o),
(719,709,o),
(733,721,cs),
(748,733,o),
(735,743,o),
(735,743,c),
(594,817,l),
(565,831,o),
(536,828,o),
(508,814,c),
(440,782,o),
(378,749,o),
(333,714,c)
);
}
);
};
layerId = "99376340-70F9-4B1D-A253-B1BEDBF73140";
shapes = (
{
alignment = -1;
ref = A;
},
{
alignment = -1;
pos = (147,183);
ref = circumflex;
}
);
width = 756;
},
{
anchors = (
{
name = bottom;
pos = (494,76);
}
);
background = {
anchors = (
{
name = bottom;
pos = (494,76);
},
{
name = top;
pos = (432,643);
}
);
shapes = (
{
closed = 1;
nodes = (
(50.58,98,o),
(29.398,12,o),
(126.8,-1,cs),
(211.602,-12,o),
(237.988,60,o),
(237.988,60,c),
(267.969,155,o),
(265.371,147,o),
(305.75,249,c),
(327.341,297,o),
(369.127,366,o),
(390.718,409,c),
(396.728,359,o),
(399.738,309,o),
(403.953,235,cs),
(405.959,205,o),
(402.37,152,o),
(404.185,76,c),
(404.185,76,o),
(408.001,-5,o),
(494.001,-5,cs),
(580.001,-5,o),
(590.586,68,o),
(590.586,68,c),
(610.152,241,o),
(586.719,404,o),
(574.904,480,c),
(566.482,588,o),
(481.07,651,o),
(435.471,643,c),
(374.272,642,o),
(318.67,649,o),
(183.317,417,c),
(126.339,307,o),
(73.96,200,o),
(50.58,98,c)
);
},
{
closed = 1;
nodes = (
(163.383,87,l),
(250.978,110,o),
(383.779,104,o),
(474.383,87,c),
(487.752,239,l),
(383.55,248,o),
(301.752,239,o),
(204.357,217,c)
);
},
{
closed = 1;
nodes = (
(310,753,o),
(280,715,o),
(321,681,cs),
(350,657,o),
(389,674,o),
(389,674,c),
(406,686,o),
(430,703,o),
(448,716,c),
(483,683,l),
(483,683,o),
(530,658,o),
(571,689,cs),
(631,733,o),
(584,780,o),
(584,780,c),
(514,832,l),
(487,857,o),
(433,852,o),
(412,837,c),
(361,805,o),
(343,789,o),
(310,753,c)
);
}
);
};
layerId = "F94FFD99-753E-41E1-86D1-359C136D3DE6";
shapes = (
{
alignment = -1;
ref = A;
},
{
alignment = -1;
pos = (160,183);
ref = circumflex;
}
);
width = 608;
},
{
anchors = (
{
name = bottom;
pos = (435,43);
}
);
background = {
anchors = (
{
name = bottom;
pos = (435,43);
},
{
name = top;
pos = (383,643);
}
);
shapes = (
{
closed = 1;
nodes = (
(55.595,23,o),
(52.4,2,o),
(74.8,-1,cs),
(97.201,-4,o),
(102.997,15,o),
(102.997,15,c),
(132.173,136,o),
(185.946,270,o),
(255.517,413,c),
(288.703,484,o),
(329.291,547,o),
(381.48,598,c),
(397.89,550,o),
(410.102,491,o),
(414.516,418,cs),
(422.739,304,o),
(419.767,164,o),
(410.997,15,c),
(410.997,15,o),
(412.6,-2,o),
(433.8,-1,cs),
(455,0,o),
(456.997,15,o),
(456.997,15,c),
(475.762,189,o),
(470.121,396,o),
(458.306,472,c),
(450.084,581,o),
(429.07,651,o),
(383.471,643,c),
(322.272,642,o),
(262.493,533,o),
(203.317,417,c),
(138.344,282,o),
(86.97,150,o),
(55.595,23,c)
);
},
{
closed = 1;
nodes = (
(112.981,95,l),
(200.377,117,o),
(335.376,122,o),
(425.979,105,c),
(428.171,146,l),
(324.769,154,o),
(223.77,149,o),
(126.375,127,c)
);
},
{
closed = 1;
nodes = (
(270,714,o),
(258,700,o),
(269,693,cs),
(279,685,o),
(292,695,o),
(292,695,c),
(355,751,o),
(394,784,o),
(424,795,c),
(511,720,l),
(511,720,o),
(527,709,o),
(537,721,cs),
(548,733,o),
(540,743,o),
(540,743,c),
(451,817,l),
(432,831,o),
(413,828,o),
(393,814,cs),
(346,782,o),
(302,749,o),
(270,714,c)
);
}
);
};
layerId = "E82ED6F4-5586-4A54-A016-86253174F252";
shapes = (
{
alignment = -1;
ref = A;
},
{
alignment = -1;
pos = (110,183);
ref = circumflex;
}
);
width = 504;
}
);
unicode = 194;
},
{
glyphname = Adieresis;
kernLeft = A1;
kernRight = A;
lastChange = "2024-07-18 12:46:04 +0000";
layers = (
{
anchors = (
{
name = bottom;
pos = (733,76);
}
);
background = {
anchors = (
{
name = bottom;
pos = (733,76);
},
{
name = top;
pos = (583,643);
}
);
shapes = (
{
closed = 1;
nodes = (
(65.58,98,o),
(42.398,12,o),
(189.8,-1,cs),
(317.602,-12,o),
(349.988,60,o),
(349.988,60,c),
(385.969,155,o),
(382.371,147,o),
(432.75,249,c),
(460.341,297,o),
(516.127,366,o),
(544.718,409,c),
(558.728,359,o),
(567.738,309,o),
(581.953,235,cs),
(587.959,205,o),
(587.37,152,o),
(598.185,76,c),
(598.185,76,o),
(612.001,-5,o),
(741.001,-5,cs),
(870.001,-5,o),
(878.586,68,o),
(878.586,68,c),
(890.152,241,o),
(838.719,404,o),
(813.904,480,c),
(790.482,588,o),
(656.07,651,o),
(588.471,643,c),
(496.272,642,o),
(412.67,649,o),
(232.317,417,c),
(158.339,307,o),
(89.96,200,o),
(65.58,98,c)
);
},
{
closed = 1;
nodes = (
(235.383,87,l),
(364.978,110,o),
(564.779,104,o),
(702.383,87,c),
(706.752,239,l),
(549.55,248,o),
(427.752,239,o),
(284.357,217,c)
);
},
{
closed = 1;
nodes = (
(592,683,o),
(520,661,o),
(435,661,cs),
(351,661,o),
(290,699,o),
(300,747,cs),
(309,795,o),
(385,834,o),
(469,834,cs),
(554,834,o),
(614,795,o),
(605,747,cs)
);
},
{
closed = 1;
nodes = (
(908,683,o),
(837,661,o),
(753,661,cs),
(669,661,o),
(607,699,o),
(617,747,cs),
(626,795,o),
(703,834,o),
(787,834,cs),
(871,834,o),
(930,795,o),
(921,747,cs)
);
}
);
};
layerId = "7E05DFED-BC11-4724-94EA-0D0C4C5F5B37";
shapes = (
{
alignment = -1;
ref = A;
},
{
alignment = -1;
pos = (141,183);
ref = dieresis;
}
);
width = 911;
},
{
anchors = (
{
name = bottom;
pos = (648,43);
}
);
background = {
anchors = (
{
name = bottom;
pos = (648,43);
},
{
name = top;
pos = (510,643);
}
);
shapes = (
{
closed = 1;
nodes = (
(80.595,23,o),
(78.4,2,o),
(111.8,-1,cs),
(146.201,-4,o),
(152.997,15,o),
(152.997,15,c),
(184.173,136,o),
(251.946,270,o),
(341.517,413,cs),
(384.703,484,o),
(439.291,547,o),
(512.48,598,c),
(541.89,550,o),
(566.102,491,o),
(579.516,418,cs),
(603.739,304,o),
(612.767,164,o),
(614.997,15,c),
(614.997,15,o),
(618.6,-2,o),
(650.8,-1,cs),
(682,0,o),
(683.997,15,o),
(683.997,15,c),
(694.762,189,o),
(665.121,396,o),
(640.306,472,c),
(617.084,581,o),
(578.07,651,o),
(510.471,643,c),
(419.272,642,o),
(340.493,533,o),
(263.317,417,c),
(179.344,282,o),
(114.97,150,o),
(80.595,23,c)
);
},
{
closed = 1;
nodes = (
(159.981,95,l),
(288.377,117,o),
(490.376,122,o),
(627.979,105,c),
(627.171,146,l),
(471.769,154,o),
(320.77,149,o),
(176.375,127,c)
);
},
{
closed = 1;
nodes = (
(407,728,o),
(381,715,o),
(354,715,cs),
(327,715,o),
(309,728,o),
(312,744,cs),
(315,759,o),
(339,772,o),
(366,772,cs),
(393,772,o),
(413,759,o),
(410,744,cs)
);
},
{
closed = 1;
nodes = (
(723,728,o),
(698,715,o),
(672,715,cs),
(645,715,o),
(626,728,o),
(629,744,cs),
(632,759,o),
(657,772,o),
(684,772,cs),
(710,772,o),
(729,759,o),
(726,744,cs)
);
}
);
};
layerId = "99376340-70F9-4B1D-A253-B1BEDBF73140";
shapes = (
{
alignment = -1;
ref = A;
},
{
alignment = -1;
pos = (124,183);
ref = dieresis;
}
);
width = 756;
},
{
anchors = (
{
name = bottom;
pos = (494,76);
}
);
background = {
anchors = (
{
name = bottom;
pos = (494,76);
},
{
name = top;
pos = (432,643);
}
);
shapes = (
{
closed = 1;
nodes = (
(50.58,98,o),
(29.398,12,o),
(126.8,-1,cs),
(211.602,-12,o),
(237.988,60,o),
(237.988,60,c),
(267.969,155,o),
(265.371,147,o),
(305.75,249,c),
(327.341,297,o),
(369.127,366,o),
(390.718,409,c),
(396.728,359,o),
(399.738,309,o),
(403.953,235,cs),
(405.959,205,o),
(402.37,152,o),
(404.185,76,c),
(404.185,76,o),
(408.001,-5,o),
(494.001,-5,cs),
(580.001,-5,o),
(590.586,68,o),
(590.586,68,c),
(610.152,241,o),
(586.719,404,o),
(574.904,480,c),
(566.482,588,o),
(481.07,651,o),
(435.471,643,c),
(374.272,642,o),
(318.67,649,o),
(183.317,417,c),
(126.339,307,o),
(73.96,200,o),
(50.58,98,c)
);
},
{
closed = 1;
nodes = (
(163.383,87,l),
(250.978,110,o),
(383.779,104,o),
(474.383,87,c),
(487.752,239,l),
(383.55,248,o),
(301.752,239,o),
(204.357,217,c)
);
},
{
closed = 1;
nodes = (
(441,683,o),
(392,661,o),
(335,661,cs),
(279,661,o),
(241,699,o),
(251,747,cs),
(260,795,o),
(313,834,o),
(369,834,cs),
(426,834,o),
(463,795,o),
(454,747,cs)
);
},
{
closed = 1;
nodes = (
(652,683,o),
(603,661,o),
(547,661,cs),
(491,661,o),
(452,699,o),
(462,747,cs),
(471,795,o),
(525,834,o),
(581,834,cs),
(637,834,o),
(674,795,o),
(665,747,cs)
);
}
);
};
layerId = "F94FFD99-753E-41E1-86D1-359C136D3DE6";
shapes = (
{
alignment = -1;
ref = A;
},
{
alignment = -1;
pos = (107,183);
ref = dieresis;
}
);
width = 608;
},
{
anchors = (
{
name = bottom;
pos = (435,43);
}
);
background = {
anchors = (
{
name = bottom;
pos = (435,43);
},
{
name = top;
pos = (383,643);
}
);
shapes = (
{
closed = 1;
nodes = (
(55.595,23,o),
(52.4,2,o),
(74.8,-1,cs),
(97.201,-4,o),
(102.997,15,o),
(102.997,15,c),
(132.173,136,o),
(185.946,270,o),
(255.517,413,c),
(288.703,484,o),
(329.291,547,o),
(381.48,598,c),
(397.89,550,o),
(410.102,491,o),
(414.516,418,cs),
(422.739,304,o),
(419.767,164,o),
(410.997,15,c),
(410.997,15,o),
(412.6,-2,o),
(433.8,-1,cs),
(455,0,o),
(456.997,15,o),
(456.997,15,c),
(475.762,189,o),
(470.121,396,o),
(458.306,472,c),
(450.084,581,o),
(429.07,651,o),
(383.471,643,c),
(322.272,642,o),
(262.493,533,o),
(203.317,417,c),
(138.344,282,o),
(86.97,150,o),
(55.595,23,c)
);
},
{
closed = 1;
nodes = (
(112.981,95,l),
(200.377,117,o),
(335.376,122,o),
(425.979,105,c),
(428.171,146,l),
(324.769,154,o),
(223.77,149,o),
(126.375,127,c)
);
},
{
closed = 1;
nodes = (
(320,728,o),
(302,715,o),
(284,715,cs),
(266,715,o),
(255,728,o),
(258,744,cs),
(261,759,o),
(278,772,o),
(296,772,cs),
(314,772,o),
(326,759,o),
(323,744,cs)
);
},
{
closed = 1;
nodes = (
(531,728,o),
(513,715,o),
(496,715,cs),
(478,715,o),
(466,728,o),
(469,744,cs),
(472,759,o),
(490,772,o),
(508,772,cs),
(525,772,o),
(537,759,o),
(534,744,cs)
);
}
);
};
layerId = "E82ED6F4-5586-4A54-A016-86253174F252";
shapes = (
{
alignment = -1;
ref = A;
},
{
alignment = -1;
pos = (95,183);
ref = dieresis;
}
);
width = 504;
}
);
unicode = 196;
},
{
glyphname = Agrave;
kernLeft = A1;
kernRight = A;
lastChange = "2024-07-18 12:46:04 +0000";
layers = (
{
anchors = (
{
name = bottom;
pos = (733,76);
}
);
background = {
anchors = (
{
name = bottom;
pos = (733,76);
},
{
name = top;
pos = (583,643);
}
);
shapes = (
{
closed = 1;
nodes = (
(65.58,98,o),
(42.398,12,o),
(189.8,-1,cs),
(317.602,-12,o),
(349.988,60,o),
(349.988,60,c),
(385.969,155,o),
(382.371,147,o),
(432.75,249,c),
(460.341,297,o),
(516.127,366,o),
(544.718,409,c),
(558.728,359,o),
(567.738,309,o),
(581.953,235,cs),
(587.959,205,o),
(587.37,152,o),
(598.185,76,c),
(598.185,76,o),
(612.001,-5,o),
(741.001,-5,cs),
(870.001,-5,o),
(878.586,68,o),
(878.586,68,c),
(890.152,241,o),
(838.719,404,o),
(813.904,480,c),
(790.482,588,o),
(656.07,651,o),
(588.471,643,c),
(496.272,642,o),
(412.67,649,o),
(232.317,417,c),
(158.339,307,o),
(89.96,200,o),
(65.58,98,c)
);
},
{
closed = 1;
nodes = (
(235.383,87,l),
(364.978,110,o),
(564.779,104,o),
(702.383,87,c),
(706.752,239,l),
(549.55,248,o),
(427.752,239,o),
(284.357,217,c)
);
},
{
closed = 1;
nodes = (
(560,837,o),
(480,848,o),
(440,813,cs),
(394,774,o),
(442,742,o),
(442,742,c),
(498,700,o),
(614,678,o),
(655,674,c),
(655,674,o),
(737,664,o),
(772,700,c),
(835,761,o),
(738,797,o),
(738,797,c),
(644,826,o),
(598,832,o),
(560,837,c)
);
}
);
};
layerId = "7E05DFED-BC11-4724-94EA-0D0C4C5F5B37";
shapes = (
{
alignment = -1;
ref = A;
},
{
alignment = -1;
pos = (255,183);
ref = grave;
}
);
width = 911;
},
{
anchors = (
{
name = bottom;
pos = (648,43);
}
);
background = {
anchors = (
{
name = bottom;
pos = (648,43);
},
{
name = top;
pos = (510,643);
}
);
shapes = (
{
closed = 1;
nodes = (
(80.595,23,o),
(78.4,2,o),
(111.8,-1,cs),
(146.201,-4,o),
(152.997,15,o),
(152.997,15,c),
(184.173,136,o),
(251.946,270,o),
(341.517,413,cs),
(384.703,484,o),
(439.291,547,o),
(512.48,598,c),
(541.89,550,o),
(566.102,491,o),
(579.516,418,cs),
(603.739,304,o),
(612.767,164,o),
(614.997,15,c),
(614.997,15,o),
(618.6,-2,o),
(650.8,-1,cs),
(682,0,o),
(683.997,15,o),
(683.997,15,c),
(694.762,189,o),
(665.121,396,o),
(640.306,472,c),
(617.084,581,o),
(578.07,651,o),
(510.471,643,c),
(419.272,642,o),
(340.493,533,o),
(263.317,417,c),
(179.344,282,o),
(114.97,150,o),
(80.595,23,c)
);
},
{
closed = 1;
nodes = (
(159.981,95,l),
(288.377,117,o),
(490.376,122,o),
(627.979,105,c),
(627.171,146,l),
(471.769,154,o),
(320.77,149,o),
(176.375,127,c)
);
},
{
closed = 1;
nodes = (
(421,815,o),
(401,825,o),
(386,811,cs),
(372,797,o),
(394,790,o),
(394,790,c),
(471,755,o),
(559,723,o),
(657,693,c),
(657,693,o),
(683,687,o),
(694,700,cs),
(706,714,o),
(685,724,o),
(685,724,c),
(592,754,o),
(505,784,o),
(421,815,c)
);
}
);
};
layerId = "99376340-70F9-4B1D-A253-B1BEDBF73140";
shapes = (
{
alignment = -1;
ref = A;
},
{
alignment = -1;
pos = (182,183);
ref = grave;
}
);
width = 756;
},
{
anchors = (
{
name = bottom;
pos = (494,76);
}
);
background = {
anchors = (
{
name = bottom;
pos = (494,76);
},
{
name = top;
pos = (432,643);
}
);
shapes = (
{
closed = 1;
nodes = (
(50.58,98,o),
(29.398,12,o),
(126.8,-1,cs),
(211.602,-12,o),
(237.988,60,o),
(237.988,60,c),
(267.969,155,o),
(265.371,147,o),
(305.75,249,c),
(327.341,297,o),
(369.127,366,o),
(390.718,409,c),
(396.728,359,o),
(399.738,309,o),
(403.953,235,cs),
(405.959,205,o),
(402.37,152,o),
(404.185,76,c),
(404.185,76,o),
(408.001,-5,o),
(494.001,-5,cs),
(580.001,-5,o),
(590.586,68,o),
(590.586,68,c),
(610.152,241,o),
(586.719,404,o),
(574.904,480,c),
(566.482,588,o),
(481.07,651,o),
(435.471,643,c),
(374.272,642,o),
(318.67,649,o),
(183.317,417,c),
(126.339,307,o),
(73.96,200,o),
(50.58,98,c)
);
},
{
closed = 1;
nodes = (
(163.383,87,l),
(250.978,110,o),
(383.779,104,o),
(474.383,87,c),
(487.752,239,l),
(383.55,248,o),
(301.752,239,o),
(204.357,217,c)
);
},
{
closed = 1;
nodes = (
(430,837,o),
(377,848,o),
(348,813,cs),
(315,774,o),
(345,742,o),
(345,742,c),
(379,700,o),
(455,678,o),
(482,674,c),
(482,674,o),
(536,664,o),
(562,700,cs),
(608,761,o),
(546,797,o),
(546,797,c),
(485,826,o),
(455,832,o),
(430,837,c)
);
}
);
};
layerId = "F94FFD99-753E-41E1-86D1-359C136D3DE6";
shapes = (
{
alignment = -1;
ref = A;
},
{
alignment = -1;
pos = (183,183);
ref = grave;
}
);
width = 608;
},
{
anchors = (
{
name = bottom;
pos = (435,43);
}
);
background = {
anchors = (
{
name = bottom;
pos = (435,43);
},
{
name = top;
pos = (383,643);
}
);
shapes = (
{
closed = 1;
nodes = (
(55.595,23,o),
(52.4,2,o),
(74.8,-1,cs),
(97.201,-4,o),
(102.997,15,o),
(102.997,15,c),
(132.173,136,o),
(185.946,270,o),
(255.517,413,c),
(288.703,484,o),
(329.291,547,o),
(381.48,598,c),
(397.89,550,o),
(410.102,491,o),
(414.516,418,cs),
(422.739,304,o),
(419.767,164,o),
(410.997,15,c),
(410.997,15,o),
(412.6,-2,o),
(433.8,-1,cs),
(455,0,o),
(456.997,15,o),
(456.997,15,c),
(475.762,189,o),
(470.121,396,o),
(458.306,472,c),
(450.084,581,o),
(429.07,651,o),
(383.471,643,c),
(322.272,642,o),
(262.493,533,o),
(203.317,417,c),
(138.344,282,o),
(86.97,150,o),
(55.595,23,c)
);
},
{
closed = 1;
nodes = (
(112.981,95,l),
(200.377,117,o),
(335.376,122,o),
(425.979,105,c),
(428.171,146,l),
(324.769,154,o),
(223.77,149,o),
(126.375,127,c)
);
},
{
closed = 1;
nodes = (
(335,815,o),
(322,825,o),
(311,811,cs),
(301,797,o),
(315,790,o),
(315,790,c),
(364,755,o),
(421,723,o),
(484,693,c),
(484,693,o),
(501,687,o),
(509,700,cs),
(518,714,o),
(505,724,o),
(505,724,c),
(445,754,o),
(389,784,o),
(335,815,c)
);
}
);
};
layerId = "E82ED6F4-5586-4A54-A016-86253174F252";
shapes = (
{
alignment = -1;
ref = A;
},
{
alignment = -1;
pos = (133,183);
ref = grave;
}
);
width = 504;
}
);
unicode = 192;
},
{
glyphname = Amacron;
kernLeft = A1;
kernRight = A;
lastChange = "2024-07-18 12:46:04 +0000";
layers = (
{
anchors = (
{
name = bottom;
pos = (733,76);
}
);
background = {
anchors = (
{
name = bottom;
pos = (733,76);
},
{
name = top;
pos = (583,643);
}
);
shapes = (
{
closed = 1;
nodes = (
(65.58,98,o),
(42.398,12,o),
(189.8,-1,cs),
(317.602,-12,o),
(349.988,60,o),
(349.988,60,c),
(385.969,155,o),
(382.371,147,o),
(432.75,249,c),
(460.341,297,o),
(516.127,366,o),
(544.718,409,c),
(558.728,359,o),
(567.738,309,o),
(581.953,235,cs),
(587.959,205,o),
(587.37,152,o),
(598.185,76,c),
(598.185,76,o),
(612.001,-5,o),
(741.001,-5,cs),
(870.001,-5,o),
(878.586,68,o),
(878.586,68,c),
(890.152,241,o),
(838.719,404,o),
(813.904,480,c),
(790.482,588,o),
(656.07,651,o),
(588.471,643,c),
(496.272,642,o),
(412.67,649,o),
(232.317,417,c),
(158.339,307,o),
(89.96,200,o),
(65.58,98,c)
);
},
{
closed = 1;
nodes = (
(235.383,87,l),
(364.978,110,o),
(564.779,104,o),
(702.383,87,c),
(706.752,239,l),
(549.55,248,o),
(427.752,239,o),
(284.357,217,c)
);
},
{
closed = 1;
nodes = (
(381,807,o),
(299,791,o),
(319,728,c),
(335,668,o),
(438,673,o),
(438,673,c),
(612,680,o),
(561,677,o),
(769,668,c),
(769,668,o),
(879,672,o),
(893,744,cs),
(904,799,o),
(794,826,o),
(794,826,c),
(598,848,o),
(501,825,o),
(381,807,c)
);
}
);
};
layerId = "7E05DFED-BC11-4724-94EA-0D0C4C5F5B37";
shapes = (
{
alignment = -1;
ref = A;
},
{
alignment = -1;
pos = (127,183);
ref = macron;
}
);
width = 911;
},
{
anchors = (
{
name = bottom;
pos = (648,43);
}
);
background = {
anchors = (
{
name = bottom;
pos = (648,43);
},
{
name = top;
pos = (510,643);
}
);
shapes = (
{
closed = 1;
nodes = (
(80.595,23,o),
(78.4,2,o),
(111.8,-1,cs),
(146.201,-4,o),
(152.997,15,o),
(152.997,15,c),
(184.173,136,o),
(251.946,270,o),
(341.517,413,cs),
(384.703,484,o),
(439.291,547,o),
(512.48,598,c),
(541.89,550,o),
(566.102,491,o),
(579.516,418,cs),
(603.739,304,o),
(612.767,164,o),
(614.997,15,c),
(614.997,15,o),
(618.6,-2,o),
(650.8,-1,cs),
(682,0,o),
(683.997,15,o),
(683.997,15,c),
(694.762,189,o),
(665.121,396,o),
(640.306,472,c),
(617.084,581,o),
(578.07,651,o),
(510.471,643,c),
(419.272,642,o),
(340.493,533,o),
(263.317,417,c),
(179.344,282,o),
(114.97,150,o),
(80.595,23,c)
);
},
{
closed = 1;
nodes = (
(159.981,95,l),
(288.377,117,o),
(490.376,122,o),
(627.979,105,c),
(627.171,146,l),
(471.769,154,o),
(320.77,149,o),
(176.375,127,c)
);
},
{
closed = 1;
nodes = (
(267,760,o),
(236,755,o),
(241,739,c),
(244,724,o),
(278,726,o),
(278,726,c),
(479,737,o),
(563,737,o),
(771,728,c),
(771,728,o),
(803,726,o),
(812,744,cs),
(820,762,o),
(778,768,o),
(778,768,c),
(561,781,o),
(471,780,o),
(267,760,c)
);
}
);
};
layerId = "99376340-70F9-4B1D-A253-B1BEDBF73140";
shapes = (
{
alignment = -1;
ref = A;
},
{
alignment = -1;
pos = (53,183);
ref = macron;
}
);
width = 756;
},
{
anchors = (
{
name = bottom;
pos = (494,76);
}
);
background = {
anchors = (
{
name = bottom;
pos = (494,76);
},
{
name = top;
pos = (432,643);
}
);
shapes = (
{
closed = 1;
nodes = (
(50.58,98,o),
(29.398,12,o),
(126.8,-1,cs),
(211.602,-12,o),
(237.988,60,o),
(237.988,60,c),
(267.969,155,o),
(265.371,147,o),
(305.75,249,c),
(327.341,297,o),
(369.127,366,o),
(390.718,409,c),
(396.728,359,o),
(399.738,309,o),
(403.953,235,cs),
(405.959,205,o),
(402.37,152,o),
(404.185,76,c),
(404.185,76,o),
(408.001,-5,o),
(494.001,-5,cs),
(580.001,-5,o),
(590.586,68,o),
(590.586,68,c),
(610.152,241,o),
(586.719,404,o),
(574.904,480,c),
(566.482,588,o),
(481.07,651,o),
(435.471,643,c),
(374.272,642,o),
(318.67,649,o),
(183.317,417,c),
(126.339,307,o),
(73.96,200,o),
(50.58,98,c)
);
},
{
closed = 1;
nodes = (
(163.383,87,l),
(250.978,110,o),
(383.779,104,o),
(474.383,87,c),
(487.752,239,l),
(383.55,248,o),
(301.752,239,o),
(204.357,217,c)
);
},
{
closed = 1;
nodes = (
(310,807,o),
(254,791,o),
(263,728,cs),
(270,668,o),
(339,673,o),
(339,673,c),
(455,680,o),
(421,677,o),
(559,668,c),
(559,668,o),
(633,672,o),
(647,744,cs),
(658,799,o),
(586,826,o),
(586,826,c),
(457,848,o),
(391,825,o),
(310,807,c)
);
}
);
};
layerId = "F94FFD99-753E-41E1-86D1-359C136D3DE6";
shapes = (
{
alignment = -1;
ref = A;
},
{
alignment = -1;
pos = (98,183);
ref = macron;
}
);
width = 608;
},
{
anchors = (
{
name = bottom;
pos = (435,43);
}
);
background = {
anchors = (
{
name = bottom;
pos = (435,43);
},
{
name = top;
pos = (383,643);
}
);
shapes = (
{
closed = 1;
nodes = (
(55.595,23,o),
(52.4,2,o),
(74.8,-1,cs),
(97.201,-4,o),
(102.997,15,o),
(102.997,15,c),
(132.173,136,o),
(185.946,270,o),
(255.517,413,c),
(288.703,484,o),
(329.291,547,o),
(381.48,598,c),
(397.89,550,o),
(410.102,491,o),
(414.516,418,cs),
(422.739,304,o),
(419.767,164,o),
(410.997,15,c),
(410.997,15,o),
(412.6,-2,o),
(433.8,-1,cs),
(455,0,o),
(456.997,15,o),
(456.997,15,c),
(475.762,189,o),
(470.121,396,o),
(458.306,472,c),
(450.084,581,o),
(429.07,651,o),
(383.471,643,c),
(322.272,642,o),
(262.493,533,o),
(203.317,417,c),
(138.344,282,o),
(86.97,150,o),
(55.595,23,c)
);
},
{
closed = 1;
nodes = (
(112.981,95,l),
(200.377,117,o),
(335.376,122,o),
(425.979,105,c),
(428.171,146,l),
(324.769,154,o),
(223.77,149,o),
(126.375,127,c)
);
},
{
closed = 1;
nodes = (
(229,760,o),
(208,755,o),
(210,739,cs),
(211,724,o),
(234,726,o),
(234,726,c),
(369,737,o),
(425,737,o),
(563,728,c),
(563,728,o),
(584,726,o),
(591,744,cs),
(598,762,o),
(570,768,o),
(570,768,c),
(426,781,o),
(366,780,o),
(229,760,c)
);
}
);
};
layerId = "E82ED6F4-5586-4A54-A016-86253174F252";
shapes = (
{
alignment = -1;
ref = A;
},
{
alignment = -1;
pos = (48,183);
ref = macron;
}
);
width = 504;
}
);
unicode = 256;
},
{
glyphname = Aogonek;
kernLeft = A1;
kernRight = A;
lastChange = "2024-07-19 09:42:31 +0000";
layers = (
{
background = {
shapes = (
{
closed = 1;
nodes = (
(65.58,98,o),
(42.398,12,o),
(189.8,-1,cs),
(317.602,-12,o),
(349.988,60,o),
(349.988,60,c),
(385.969,155,o),
(382.371,147,o),
(432.75,249,c),
(460.341,297,o),
(516.127,366,o),
(544.718,409,c),
(558.728,359,o),
(567.738,309,o),
(581.953,235,cs),
(587.959,205,o),
(587.37,152,o),
(598.185,76,c),
(598.185,76,o),
(612.001,-5,o),
(741.001,-5,cs),
(870.001,-5,o),
(878.586,68,o),
(878.586,68,c),
(890.152,241,o),
(838.719,404,o),
(813.904,480,c),
(790.482,588,o),
(656.07,651,o),
(588.471,643,c),
(496.272,642,o),
(412.67,649,o),
(232.317,417,c),
(158.339,307,o),
(89.96,200,o),
(65.58,98,c)
);
},
{
closed = 1;
nodes = (
(235.383,87,l),
(364.978,110,o),
(564.779,104,o),
(702.383,87,c),
(706.752,239,l),
(549.55,248,o),
(427.752,239,o),
(284.357,217,c)
);
},
{
closed = 1;
nodes = (
(560.596,18,o),
(536.807,-36,o),
(529.413,-63,c),
(520.821,-106,o),
(563.435,-173,o),
(706.434,-168,c),
(771.234,-169,o),
(824.828,-141,o),
(861.822,-111,c),
(861.822,-111,o),
(895.615,-77,o),
(854.012,-60,cs),
(814.409,-43,o),
(778.412,-58,o),
(778.412,-58,c),
(760.013,-65,o),
(742.814,-71,o),
(715.416,-78,cs),
(698.616,-82,o),
(718.212,-59,o),
(718.611,-57,c),
(732.008,-40,o),
(744.007,-35,o),
(779.403,-13,c),
(779.403,-13,o),
(829.996,20,o),
(782.59,48,cs),
(742.186,71,o),
(681.789,54,o),
(681.789,54,c)
);
}
);
};
layerId = "7E05DFED-BC11-4724-94EA-0D0C4C5F5B37";
shapes = (
{
closed = 1;
nodes = (
(870,-5,o),
(879,68,o),
(879,68,c),
(890,241,o),
(839,404,o),
(814,480,c),
(790,588,o),
(656,651,o),
(588,643,c),
(496,642,o),
(413,649,o),
(232,417,c),
(158,307,o),
(90,200,o),
(66,98,c),
(66,98,o),
(42,12,o),
(190,-1,cs),
(318,-12,o),
(350,60,o),
(350,60,c),
(386,155,o),
(382,147,o),
(433,249,c),
(460,297,o),
(516,366,o),
(545,409,c),
(559,359,o),
(568,309,o),
(582,235,cs),
(588,205,o),
(587,152,o),
(598,76,c),
(598,76,o),
(612,-5,o),
(741,-5,cs)
);
},
{
closed = 1;
nodes = (
(365,110,o),
(565,104,o),
(702,87,c),
(707,239,l),
(550,248,o),
(428,239,o),
(284,217,c),
(235,87,l)
);
},
{
closed = 1;
nodes = (
(771,-169,o),
(825,-141,o),
(862,-111,c),
(862,-111,o),
(896,-77,o),
(854,-60,cs),
(814,-43,o),
(778,-58,o),
(778,-58,c),
(760,-65,o),
(743,-71,o),
(715,-78,cs),
(699,-82,o),
(718,-59,o),
(719,-57,c),
(732,-40,o),
(744,-35,o),
(779,-13,c),
(779,-13,o),
(830,20,o),
(783,48,cs),
(742,71,o),
(682,54,o),
(682,54,c),
(561,18,o),
(537,-36,o),
(529,-63,c),
(521,-106,o),
(563,-173,o),
(706,-168,c)
);
}
);
width = 911;
},
{
background = {
shapes = (
{
closed = 1;
nodes = (
(80.595,23,o),
(78.4,2,o),
(111.8,-1,cs),
(146.201,-4,o),
(152.997,15,o),
(152.997,15,c),
(184.173,136,o),
(251.946,270,o),
(341.517,413,cs),
(384.703,484,o),
(439.291,547,o),
(512.48,598,c),
(541.89,550,o),
(566.102,491,o),
(579.516,418,cs),
(603.739,304,o),
(612.767,164,o),
(614.997,15,c),
(614.997,15,o),
(618.6,-2,o),
(650.8,-1,cs),
(682,0,o),
(683.997,15,o),
(683.997,15,c),
(694.762,189,o),
(665.121,396,o),
(640.306,472,c),
(617.084,581,o),
(578.07,651,o),
(510.471,643,c),
(419.272,642,o),
(340.493,533,o),
(263.317,417,c),
(179.344,282,o),
(114.97,150,o),
(80.595,23,c)
);
},
{
closed = 1;
nodes = (
(159.981,95,l),
(288.377,117,o),
(490.376,122,o),
(627.979,105,c),
(627.171,146,l),
(471.769,154,o),
(320.77,149,o),
(176.375,127,c)
);
},
{
closed = 1;
nodes = (
(519.804,-21,o),
(481.814,-71,o),
(472.621,-107,c),
(460.833,-166,o),
(515.442,-208,o),
(620.84,-201,cs),
(672.639,-197,o),
(722.436,-178,o),
(772.627,-137,c),
(772.627,-137,o),
(780.026,-130,o),
(766.225,-124,cs),
(752.424,-118,o),
(744.025,-125,o),
(744.025,-125,c),
(711.429,-143,o),
(673.832,-161,o),
(620.834,-171,c),
(555.435,-173,o),
(519.831,-156,o),
(531.422,-108,c),
(546.414,-68,o),
(601.006,-30,o),
(667.599,3,c),
(667.599,3,o),
(687.597,13,o),
(678.396,22,c),
(670.394,32,o),
(634.996,20,o),
(634.996,20,c)
);
}
);
};
layerId = "99376340-70F9-4B1D-A253-B1BEDBF73140";
shapes = (
{
closed = 1;
nodes = (
(682,0,o),
(683.997,15,o),
(683.997,15,c),
(694.762,189,o),
(665.121,396,o),
(640.306,472,c),
(617.084,581,o),
(578.07,651,o),
(510.471,643,c),
(419.272,642,o),
(340.493,533,o),
(263.317,417,c),
(179.344,282,o),
(114.97,150,o),
(80.595,23,c),
(80.595,23,o),
(78.4,2,o),
(111.8,-1,cs),
(146.201,-4,o),
(152.997,15,o),
(152.997,15,c),
(184.173,136,o),
(251.946,270,o),
(341.517,413,cs),
(384.703,484,o),
(439.291,547,o),
(512.48,598,c),
(541.89,550,o),
(566.102,491,o),
(579.516,418,cs),
(603.739,304,o),
(612.767,164,o),
(614.997,15,c),
(614.997,15,o),
(618.6,-2,o),
(650.8,-1,cs)
);
},
{
closed = 1;
nodes = (
(288.377,117,o),
(490.376,122,o),
(627.979,105,c),
(627.171,146,l),
(471.769,154,o),
(320.77,149,o),
(176.375,127,c),
(159.981,95,l)
);
},
{
closed = 1;
nodes = (
(672.639,-197,o),
(722.436,-178,o),
(772.627,-137,c),
(772.627,-137,o),
(780.026,-130,o),
(766.225,-124,cs),
(752.424,-118,o),
(744.025,-125,o),
(744.025,-125,c),
(711.429,-143,o),
(673.832,-161,o),
(620.834,-171,c),
(555.435,-173,o),
(519.831,-156,o),
(531.422,-108,c),
(546.414,-68,o),
(601.006,-30,o),
(667.599,3,c),
(667.599,3,o),
(687.597,13,o),
(678.396,22,c),
(670.394,32,o),
(634.996,20,o),
(634.996,20,c),
(519.804,-21,o),
(481.814,-71,o),
(472.621,-107,c),
(460.833,-166,o),
(515.442,-208,o),
(620.84,-201,cs)
);
}
);
width = 757;
},
{
background = {
shapes = (
{
closed = 1;
nodes = (
(50.58,98,o),
(29.398,12,o),
(126.8,-1,cs),
(211.602,-12,o),
(237.988,60,o),
(237.988,60,c),
(267.969,155,o),
(265.371,147,o),
(305.75,249,c),
(327.341,297,o),
(369.127,366,o),
(390.718,409,c),
(396.728,359,o),
(399.738,309,o),
(403.953,235,cs),
(405.959,205,o),
(402.37,152,o),
(404.185,76,c),
(404.185,76,o),
(408.001,-5,o),
(494.001,-5,cs),
(580.001,-5,o),
(590.586,68,o),
(590.586,68,c),
(610.152,241,o),
(586.719,404,o),
(574.904,480,c),
(566.482,588,o),
(481.07,651,o),
(435.471,643,c),
(374.272,642,o),
(318.67,649,o),
(183.317,417,c),
(126.339,307,o),
(73.96,200,o),
(50.58,98,c)
);
},
{
closed = 1;
nodes = (
(163.383,87,l),
(250.978,110,o),
(383.779,104,o),
(474.383,87,c),
(487.752,239,l),
(383.55,248,o),
(301.752,239,o),
(204.357,217,c)
);
},
{
closed = 1;
nodes = (
(375.596,18,o),
(355.807,-36,o),
(349.413,-63,c),
(340.821,-106,o),
(364.435,-173,o),
(460.434,-168,c),
(503.234,-169,o),
(540.828,-141,o),
(567.822,-111,c),
(567.822,-111,o),
(592.615,-77,o),
(566.012,-60,cs),
(540.409,-43,o),
(515.412,-58,o),
(515.412,-58,c),
(503.013,-65,o),
(490.814,-71,o),
(472.416,-78,cs),
(460.616,-82,o),
(475.212,-59,o),
(475.611,-57,c),
(486.008,-40,o),
(494.007,-35,o),
(519.403,-13,c),
(519.403,-13,o),
(554.996,20,o),
(525.59,48,cs),
(500.186,71,o),
(458.789,54,o),
(458.789,54,c)
);
}
);
};
layerId = "F94FFD99-753E-41E1-86D1-359C136D3DE6";
shapes = (
{
closed = 1;
nodes = (
(580.001,-5,o),
(590.586,68,o),
(590.586,68,c),
(610.152,241,o),
(586.719,404,o),
(574.904,480,c),
(566.482,588,o),
(481.07,651,o),
(435.471,643,c),
(374.272,642,o),
(318.67,649,o),
(183.317,417,c),
(126.339,307,o),
(73.96,200,o),
(50.58,98,c),
(50.58,98,o),
(29.398,12,o),
(126.8,-1,cs),
(211.602,-12,o),
(237.988,60,o),
(237.988,60,c),
(267.969,155,o),
(265.371,147,o),
(305.75,249,c),
(327.341,297,o),
(369.127,366,o),
(390.718,409,c),
(396.728,359,o),
(399.738,309,o),
(403.953,235,cs),
(405.959,205,o),
(402.37,152,o),
(404.185,76,c),
(404.185,76,o),
(408.001,-5,o),
(494.001,-5,cs)
);
},
{
closed = 1;
nodes = (
(250.978,110,o),
(383.779,104,o),
(474.383,87,c),
(487.752,239,l),
(383.55,248,o),
(301.752,239,o),
(204.357,217,c),
(163.383,87,l)
);
},
{
closed = 1;
nodes = (
(503.234,-169,o),
(540.828,-141,o),
(567.822,-111,c),
(567.822,-111,o),
(592.615,-77,o),
(566.012,-60,cs),
(540.409,-43,o),
(515.412,-58,o),
(515.412,-58,c),
(503.013,-65,o),
(490.814,-71,o),
(472.416,-78,cs),
(460.616,-82,o),
(475.212,-59,o),
(475.611,-57,c),
(486.008,-40,o),
(494.007,-35,o),
(519.403,-13,c),
(519.403,-13,o),
(554.996,20,o),
(525.59,48,cs),
(500.186,71,o),
(458.789,54,o),
(458.789,54,c),
(375.596,18,o),
(355.807,-36,o),
(349.413,-63,c),
(340.821,-106,o),
(364.435,-173,o),
(460.434,-168,c)
);
}
);
width = 608;
},
{
background = {
shapes = (
{
closed = 1;
nodes = (
(55.595,23,o),
(52.4,2,o),
(74.8,-1,cs),
(97.201,-4,o),
(102.997,15,o),
(102.997,15,c),
(132.173,136,o),
(185.946,270,o),
(255.517,413,c),
(288.703,484,o),
(329.291,547,o),
(381.48,598,c),
(397.89,550,o),
(410.102,491,o),
(414.516,418,cs),
(422.739,304,o),
(419.767,164,o),
(410.997,15,c),
(410.997,15,o),
(412.6,-2,o),
(433.8,-1,cs),
(455,0,o),
(456.997,15,o),
(456.997,15,c),
(475.762,189,o),
(470.121,396,o),
(458.306,472,c),
(450.084,581,o),
(429.07,651,o),
(383.471,643,c),
(322.272,642,o),
(262.493,533,o),
(203.317,417,c),
(138.344,282,o),
(86.97,150,o),
(55.595,23,c)
);
},
{
closed = 1;
nodes = (
(112.981,95,l),
(200.377,117,o),
(335.376,122,o),
(425.979,105,c),
(428.171,146,l),
(324.769,154,o),
(223.77,149,o),
(126.375,127,c)
);
},
{
closed = 1;
nodes = (
(345.804,-21,o),
(316.814,-71,o),
(308.621,-107,c),
(296.833,-166,o),
(330.442,-208,o),
(400.84,-201,cs),
(435.639,-197,o),
(470.436,-178,o),
(506.627,-137,c),
(506.627,-137,o),
(512.026,-130,o),
(503.225,-124,cs),
(494.424,-118,o),
(488.025,-125,o),
(488.025,-125,c),
(465.429,-143,o),
(438.832,-161,o),
(402.834,-171,c),
(359.435,-173,o),
(336.831,-156,o),
(347.422,-108,c),
(360.414,-68,o),
(399.006,-30,o),
(445.599,3,c),
(445.599,3,o),
(459.597,13,o),
(454.396,22,cs),
(449.394,32,o),
(424.996,20,o),
(424.996,20,c)
);
}
);
};
layerId = "E82ED6F4-5586-4A54-A016-86253174F252";
shapes = (
{
closed = 1;
nodes = (
(455,0,o),
(456.997,15,o),
(456.997,15,c),
(475.762,189,o),
(470.121,396,o),
(458.306,472,c),
(450.084,581,o),
(429.07,651,o),
(383.471,643,c),
(322.272,642,o),
(262.493,533,o),
(203.317,417,c),
(138.344,282,o),
(86.97,150,o),
(55.595,23,c),
(55.595,23,o),
(52.4,2,o),
(74.8,-1,cs),
(97.201,-4,o),
(102.997,15,o),
(102.997,15,c),
(132.173,136,o),
(185.946,270,o),
(255.517,413,c),
(288.703,484,o),
(329.291,547,o),
(381.48,598,c),
(397.89,550,o),
(410.102,491,o),
(414.516,418,cs),
(422.739,304,o),
(419.767,164,o),
(410.997,15,c),
(410.997,15,o),
(412.6,-2,o),
(433.8,-1,cs)
);
},
{
closed = 1;
nodes = (
(200.377,117,o),
(335.376,122,o),
(425.979,105,c),
(428.171,146,l),
(324.769,154,o),
(223.77,149,o),
(126.375,127,c),
(112.981,95,l)
);
},
{
closed = 1;
nodes = (
(435.639,-197,o),
(470.436,-178,o),
(506.627,-137,c),
(506.627,-137,o),
(512.026,-130,o),
(503.225,-124,cs),
(494.424,-118,o),
(488.025,-125,o),
(488.025,-125,c),
(465.429,-143,o),
(438.832,-161,o),
(402.834,-171,c),
(359.435,-173,o),
(336.831,-156,o),
(347.422,-108,c),
(360.414,-68,o),
(399.006,-30,o),
(445.599,3,c),
(445.599,3,o),
(459.597,13,o),
(454.396,22,cs),
(449.394,32,o),
(424.996,20,o),
(424.996,20,c),
(345.804,-21,o),
(316.814,-71,o),
(308.621,-107,c),
(296.833,-166,o),
(330.442,-208,o),
(400.84,-201,cs)
);
}
);
width = 505;
}
);
unicode = 260;
},
{
glyphname = Aring;
kernLeft = A1;
kernRight = A;
lastChange = "2024-07-18 12:46:04 +0000";
layers = (
{
anchors = (
{
name = bottom;
pos = (733,76);
}
);
background = {
anchors = (
{
name = bottom;
pos = (733,76);
},
{
name = top;
pos = (583,643);
}
);
shapes = (
{
closed = 1;
nodes = (
(65.58,98,o),
(42.398,12,o),
(189.8,-1,cs),
(317.602,-12,o),
(349.988,60,o),
(349.988,60,c),
(385.969,155,o),
(382.371,147,o),
(432.75,249,c),
(460.341,297,o),
(516.127,366,o),
(544.718,409,c),
(558.728,359,o),
(567.738,309,o),
(581.953,235,cs),
(587.959,205,o),
(587.37,152,o),
(598.185,76,c),
(598.185,76,o),
(612.001,-5,o),
(741.001,-5,cs),
(870.001,-5,o),
(878.586,68,o),
(878.586,68,c),
(890.152,241,o),
(838.719,404,o),
(813.904,480,c),
(790.482,588,o),
(656.07,651,o),
(588.471,643,c),
(496.272,642,o),
(412.67,649,o),
(232.317,417,c),
(158.339,307,o),
(89.96,200,o),
(65.58,98,c)
);
},
{
closed = 1;
nodes = (
(235.383,87,l),
(364.978,110,o),
(564.779,104,o),
(702.383,87,c),
(706.752,239,l),
(549.55,248,o),
(427.752,239,o),
(284.357,217,c)
);
},
{
closed = 1;
nodes = (
(527,885,o),
(432,837,o),
(419,776,cs),
(407,715,o),
(470,657,o),
(578,657,cs),
(698,657,o),
(780,719,o),
(792,780,cs),
(805,846,o),
(719,885,o),
(623,885,cs)
);
},
{
closed = 1;
nodes = (
(581,751,o),
(569,761,o),
(572,772,cs),
(574,783,o),
(590,791,o),
(607,791,cs),
(625,791,o),
(640,784,o),
(638,773,cs),
(636,762,o),
(621,751,o),
(599,751,cs)
);
}
);
};
layerId = "7E05DFED-BC11-4724-94EA-0D0C4C5F5B37";
shapes = (
{
alignment = -1;
ref = A;
},
{
alignment = -1;
pos = (255,183);
ref = ring;
}
);
width = 911;
},
{
anchors = (
{
name = bottom;
pos = (648,43);
}
);
background = {
anchors = (
{
name = bottom;
pos = (648,43);
},
{
name = top;
pos = (510,643);
}
);
shapes = (
{
closed = 1;
nodes = (
(80.595,23,o),
(78.4,2,o),
(111.8,-1,cs),
(146.201,-4,o),
(152.997,15,o),
(152.997,15,c),
(184.173,136,o),
(251.946,270,o),
(341.517,413,cs),
(384.703,484,o),
(439.291,547,o),
(512.48,598,c),
(541.89,550,o),
(566.102,491,o),
(579.516,418,cs),
(603.739,304,o),
(612.767,164,o),
(614.997,15,c),
(614.997,15,o),
(618.6,-2,o),
(650.8,-1,cs),
(682,0,o),
(683.997,15,o),
(683.997,15,c),
(694.762,189,o),
(665.121,396,o),
(640.306,472,c),
(617.084,581,o),
(578.07,651,o),
(510.471,643,c),
(419.272,642,o),
(340.493,533,o),
(263.317,417,c),
(179.344,282,o),
(114.97,150,o),
(80.595,23,c)
);
},
{
closed = 1;
nodes = (
(159.981,95,l),
(288.377,117,o),
(490.376,122,o),
(627.979,105,c),
(627.171,146,l),
(471.769,154,o),
(320.77,149,o),
(176.375,127,c)
);
},
{
closed = 1;
nodes = (
(489,851,o),
(423,818,o),
(414,775,cs),
(406,732,o),
(450,691,o),
(525,691,cs),
(609,691,o),
(667,735,o),
(676,777,cs),
(685,823,o),
(624,851,o),
(557,851,cs)
);
},
{
closed = 1;
nodes = (
(477,715,o),
(447,744,o),
(453,774,cs),
(459,804,o),
(506,827,o),
(554,827,cs),
(601,827,o),
(643,808,o),
(636,775,cs),
(630,746,o),
(590,715,o),
(530,715,cs)
);
}
);
};
layerId = "99376340-70F9-4B1D-A253-B1BEDBF73140";
shapes = (
{
alignment = -1;
ref = A;
},
{
alignment = -1;
pos = (220,183);
ref = ring;
}
);
width = 756;
},
{
anchors = (
{
name = bottom;
pos = (494,76);
}
);
background = {
anchors = (
{
name = bottom;
pos = (494,76);
},
{
name = top;
pos = (432,643);
}
);
shapes = (
{
closed = 1;
nodes = (
(50.58,98,o),
(29.398,12,o),
(126.8,-1,cs),
(211.602,-12,o),
(237.988,60,o),
(237.988,60,c),
(267.969,155,o),
(265.371,147,o),
(305.75,249,c),
(327.341,297,o),
(369.127,366,o),
(390.718,409,c),
(396.728,359,o),
(399.738,309,o),
(403.953,235,cs),
(405.959,205,o),
(402.37,152,o),
(404.185,76,c),
(404.185,76,o),
(408.001,-5,o),
(494.001,-5,cs),
(580.001,-5,o),
(590.586,68,o),
(590.586,68,c),
(610.152,241,o),
(586.719,404,o),
(574.904,480,c),
(566.482,588,o),
(481.07,651,o),
(435.471,643,c),
(374.272,642,o),
(318.67,649,o),
(183.317,417,c),
(126.339,307,o),
(73.96,200,o),
(50.58,98,c)
);
},
{
closed = 1;
nodes = (
(163.383,87,l),
(250.978,110,o),
(383.779,104,o),
(474.383,87,c),
(487.752,239,l),
(383.55,248,o),
(301.752,239,o),
(204.357,217,c)
);
},
{
closed = 1;
nodes = (
(411,885,o),
(345,837,o),
(332,776,cs),
(320,715,o),
(358,657,o),
(430,657,cs),
(510,657,o),
(569,719,o),
(581,780,cs),
(594,846,o),
(539,885,o),
(475,885,cs)
);
},
{
closed = 1;
nodes = (
(438,751,o),
(431,761,o),
(434,772,cs),
(436,783,o),
(447,791,o),
(458,791,cs),
(470,791,o),
(480,784,o),
(478,773,cs),
(476,762,o),
(465,751,o),
(450,751,cs)
);
}
);
};
layerId = "F94FFD99-753E-41E1-86D1-359C136D3DE6";
shapes = (
{
alignment = -1;
ref = A;
},
{
alignment = -1;
pos = (183,183);
ref = ring;
}
);
width = 608;
},
{
anchors = (
{
name = bottom;
pos = (435,43);
}
);
background = {
anchors = (
{
name = bottom;
pos = (435,43);
},
{
name = top;
pos = (383,643);
}
);
shapes = (
{
closed = 1;
nodes = (
(55.595,23,o),
(52.4,2,o),
(74.8,-1,cs),
(97.201,-4,o),
(102.997,15,o),
(102.997,15,c),
(132.173,136,o),
(185.946,270,o),
(255.517,413,c),
(288.703,484,o),
(329.291,547,o),
(381.48,598,c),
(397.89,550,o),
(410.102,491,o),
(414.516,418,cs),
(422.739,304,o),
(419.767,164,o),
(410.997,15,c),
(410.997,15,o),
(412.6,-2,o),
(433.8,-1,cs),
(455,0,o),
(456.997,15,o),
(456.997,15,c),
(475.762,189,o),
(470.121,396,o),
(458.306,472,c),
(450.084,581,o),
(429.07,651,o),
(383.471,643,c),
(322.272,642,o),
(262.493,533,o),
(203.317,417,c),
(138.344,282,o),
(86.97,150,o),
(55.595,23,c)
);
},
{
closed = 1;
nodes = (
(112.981,95,l),
(200.377,117,o),
(335.376,122,o),
(425.979,105,c),
(428.171,146,l),
(324.769,154,o),
(223.77,149,o),
(126.375,127,c)
);
},
{
closed = 1;
nodes = (
(383,851,o),
(337,818,o),
(328,775,cs),
(320,732,o),
(346,691,o),
(396,691,cs),
(452,691,o),
(494,735,o),
(503,777,cs),
(512,823,o),
(473,851,o),
(428,851,cs)
);
},
{
closed = 1;
nodes = (
(366,715,o),
(348,744,o),
(354,774,cs),
(360,804,o),
(393,827,o),
(425,827,cs),
(456,827,o),
(483,808,o),
(476,775,cs),
(470,746,o),
(441,715,o),
(401,715,cs)
);
}
);
};
layerId = "E82ED6F4-5586-4A54-A016-86253174F252";
shapes = (
{
alignment = -1;
ref = A;
},
{
alignment = -1;
pos = (159,183);
ref = ring;
}
);
width = 504;
}
);
unicode = 197;
},
{
glyphname = Atilde;
kernLeft = A1;
kernRight = A;
lastChange = "2024-07-18 12:46:04 +0000";
layers = (
{
anchors = (
{
name = bottom;
pos = (733,76);
}
);
background = {
anchors = (
{
name = bottom;
pos = (733,76);
},
{
name = top;
pos = (583,643);
}
);
shapes = (
{
closed = 1;
nodes = (
(65.58,98,o),
(42.398,12,o),
(189.8,-1,cs),
(317.602,-12,o),
(349.988,60,o),
(349.988,60,c),
(385.969,155,o),
(382.371,147,o),
(432.75,249,c),
(460.341,297,o),
(516.127,366,o),
(544.718,409,c),
(558.728,359,o),
(567.738,309,o),
(581.953,235,cs),
(587.959,205,o),
(587.37,152,o),
(598.185,76,c),
(598.185,76,o),
(612.001,-5,o),
(741.001,-5,cs),
(870.001,-5,o),
(878.586,68,o),
(878.586,68,c),
(890.152,241,o),
(838.719,404,o),
(813.904,480,c),
(790.482,588,o),
(656.07,651,o),
(588.471,643,c),
(496.272,642,o),
(412.67,649,o),
(232.317,417,c),
(158.339,307,o),
(89.96,200,o),
(65.58,98,c)
);
},
{
closed = 1;
nodes = (
(235.383,87,l),
(364.978,110,o),
(564.779,104,o),
(702.383,87,c),
(706.752,239,l),
(549.55,248,o),
(427.752,239,o),
(284.357,217,c)
);
},
{
closed = 1;
nodes = (
(355,685,o),
(402,657,o),
(455,672,cs),
(506,687,o),
(506,718,o),
(506,718,c),
(520,712,o),
(553,693,o),
(589,685,c),
(650,666,o),
(705,662,o),
(768,674,cs),
(833,686,o),
(880,728,o),
(887,750,c),
(887,750,o),
(919,806,o),
(815,826,cs),
(741,840,o),
(702,808,o),
(702,808,c),
(693,801,o),
(690,792,o),
(684,792,c),
(616,818,o),
(576,842,o),
(457,833,cs),
(357,826,o),
(271,737,o),
(355,685,c)
);
}
);
};
layerId = "7E05DFED-BC11-4724-94EA-0D0C4C5F5B37";
shapes = (
{
alignment = -1;
ref = A;
},
{
alignment = -1;
pos = (164,183);
ref = tilde;
}
);
width = 911;
},
{
anchors = (
{
name = bottom;
pos = (648,43);
}
);
background = {
anchors = (
{
name = bottom;
pos = (648,43);
},
{
name = top;
pos = (510,643);
}
);
shapes = (
{
closed = 1;
nodes = (
(80.595,23,o),
(78.4,2,o),
(111.8,-1,cs),
(146.201,-4,o),
(152.997,15,o),
(152.997,15,c),
(184.173,136,o),
(251.946,270,o),
(341.517,413,cs),
(384.703,484,o),
(439.291,547,o),
(512.48,598,c),
(541.89,550,o),
(566.102,491,o),
(579.516,418,cs),
(603.739,304,o),
(612.767,164,o),
(614.997,15,c),
(614.997,15,o),
(618.6,-2,o),
(650.8,-1,cs),
(682,0,o),
(683.997,15,o),
(683.997,15,c),
(694.762,189,o),
(665.121,396,o),
(640.306,472,c),
(617.084,581,o),
(578.07,651,o),
(510.471,643,c),
(419.272,642,o),
(340.493,533,o),
(263.317,417,c),
(179.344,282,o),
(114.97,150,o),
(80.595,23,c)
);
},
{
closed = 1;
nodes = (
(159.981,95,l),
(288.377,117,o),
(490.376,122,o),
(627.979,105,c),
(627.171,146,l),
(471.769,154,o),
(320.77,149,o),
(176.375,127,c)
);
},
{
closed = 1;
nodes = (
(289,709,o),
(307,693,o),
(324,701,cs),
(341,708,o),
(325,721,o),
(325,721,c),
(311,753,o),
(381,772,o),
(436,764,c),
(513,748,o),
(625,709,o),
(690,713,cs),
(766,717,o),
(805,737,o),
(822,764,c),
(822,764,o),
(830,785,o),
(804,788,cs),
(777,790,o),
(767,771,o),
(767,771,c),
(749,752,o),
(720,745,o),
(687,745,c),
(582,749,o),
(506,802,o),
(396,795,cs),
(311,790,o),
(248,745,o),
(289,709,c)
);
}
);
};
layerId = "99376340-70F9-4B1D-A253-B1BEDBF73140";
shapes = (
{
alignment = -1;
ref = A;
},
{
alignment = -1;
pos = (90,183);
ref = tilde;
}
);
width = 756;
},
{
anchors = (
{
name = bottom;
pos = (494,76);
}
);
background = {
anchors = (
{
name = bottom;
pos = (494,76);
},
{
name = top;
pos = (432,643);
}
);
shapes = (
{
closed = 1;
nodes = (
(50.58,98,o),
(29.398,12,o),
(126.8,-1,cs),
(211.602,-12,o),
(237.988,60,o),
(237.988,60,c),
(267.969,155,o),
(265.371,147,o),
(305.75,249,c),
(327.341,297,o),
(369.127,366,o),
(390.718,409,c),
(396.728,359,o),
(399.738,309,o),
(403.953,235,cs),
(405.959,205,o),
(402.37,152,o),
(404.185,76,c),
(404.185,76,o),
(408.001,-5,o),
(494.001,-5,cs),
(580.001,-5,o),
(590.586,68,o),
(590.586,68,c),
(610.152,241,o),
(586.719,404,o),
(574.904,480,c),
(566.482,588,o),
(481.07,651,o),
(435.471,643,c),
(374.272,642,o),
(318.67,649,o),
(183.317,417,c),
(126.339,307,o),
(73.96,200,o),
(50.58,98,c)
);
},
{
closed = 1;
nodes = (
(163.383,87,l),
(250.978,110,o),
(383.779,104,o),
(474.383,87,c),
(487.752,239,l),
(383.55,248,o),
(301.752,239,o),
(204.357,217,c)
);
},
{
closed = 1;
nodes = (
(283,685,o),
(313,657,o),
(349,672,cs),
(384,687,o),
(386,718,o),
(386,718,c),
(395,712,o),
(416,693,o),
(439,685,c),
(479,666,o),
(515,662,o),
(558,674,cs),
(602,686,o),
(636,728,o),
(642,750,c),
(642,750,o),
(667,806,o),
(599,826,cs),
(551,840,o),
(523,808,o),
(523,808,c),
(516,801,o),
(514,792,o),
(510,792,c),
(466,818,o),
(441,842,o),
(361,833,cs),
(294,826,o),
(231,737,o),
(283,685,c)
);
}
);
};
layerId = "F94FFD99-753E-41E1-86D1-359C136D3DE6";
shapes = (
{
alignment = -1;
ref = A;
},
{
alignment = -1;
pos = (122,183);
ref = tilde;
}
);
width = 608;
},
{
anchors = (
{
name = bottom;
pos = (435,43);
}
);
background = {
anchors = (
{
name = bottom;
pos = (435,43);
},
{
name = top;
pos = (383,643);
}
);
shapes = (
{
closed = 1;
nodes = (
(55.595,23,o),
(52.4,2,o),
(74.8,-1,cs),
(97.201,-4,o),
(102.997,15,o),
(102.997,15,c),
(132.173,136,o),
(185.946,270,o),
(255.517,413,c),
(288.703,484,o),
(329.291,547,o),
(381.48,598,c),
(397.89,550,o),
(410.102,491,o),
(414.516,418,cs),
(422.739,304,o),
(419.767,164,o),
(410.997,15,c),
(410.997,15,o),
(412.6,-2,o),
(433.8,-1,cs),
(455,0,o),
(456.997,15,o),
(456.997,15,c),
(475.762,189,o),
(470.121,396,o),
(458.306,472,c),
(450.084,581,o),
(429.07,651,o),
(383.471,643,c),
(322.272,642,o),
(262.493,533,o),
(203.317,417,c),
(138.344,282,o),
(86.97,150,o),
(55.595,23,c)
);
},
{
closed = 1;
nodes = (
(112.981,95,l),
(200.377,117,o),
(335.376,122,o),
(425.979,105,c),
(428.171,146,l),
(324.769,154,o),
(223.77,149,o),
(126.375,127,c)
);
},
{
closed = 1;
nodes = (
(240,709,o),
(251,693,o),
(263,701,cs),
(275,708,o),
(265,721,o),
(265,721,c),
(258,753,o),
(306,772,o),
(342,764,c),
(392,748,o),
(464,709,o),
(508,713,cs),
(559,717,o),
(586,737,o),
(599,764,c),
(599,764,o),
(606,785,o),
(589,788,cs),
(571,790,o),
(563,771,o),
(563,771,c),
(550,752,o),
(530,745,o),
(508,745,c),
(438,749,o),
(391,802,o),
(317,795,cs),
(260,790,o),
(215,745,o),
(240,709,c)
);
}
);
};
layerId = "E82ED6F4-5586-4A54-A016-86253174F252";
shapes = (
{
alignment = -1;
ref = A;
},
{
alignment = -1;
pos = (72,183);
ref = tilde;
}
);
width = 504;
}
);
unicode = 195;
},
{
color = (153,255,154,255);
glyphname = AE;
kernLeft = A1;
kernRight = E;
lastChange = "2024-07-19 09:42:31 +0000";
layers = (
{
anchors = (
{
name = bottom;
pos = (1150,82);
},
{
name = top;
pos = (812,643);
}
);
background = {
anchors = (
{
name = bottom;
pos = (1150,82);
},
{
name = top;
pos = (812,643);
}
);
shapes = (
{
closed = 1;
nodes = (
(50.58,98,o),
(27.398,12,o),
(174.8,-1,cs),
(302.602,-12,o),
(334.988,60,o),
(334.988,60,c),
(370.969,155,o),
(367.371,147,o),
(417.75,249,c),
(445.341,297,o),
(501.127,366,o),
(529.718,409,c),
(543.728,359,o),
(552.738,309,o),
(566.953,235,cs),
(572.959,205,o),
(572.37,152,o),
(583.185,76,c),
(583.185,76,o),
(597.001,-5,o),
(726.001,-5,cs),
(855.001,-5,o),
(863.586,68,o),
(863.586,68,c),
(875.152,241,o),
(823.719,404,o),
(798.904,480,c),
(775.482,588,o),
(641.07,651,o),
(573.471,643,c),
(481.272,642,o),
(397.67,649,o),
(217.317,417,c),
(143.339,307,o),
(74.96,200,o),
(50.58,98,c)
);
},
{
closed = 1;
nodes = (
(220.383,87,l),
(349.978,110,o),
(549.779,104,o),
(687.383,87,c),
(691.752,239,l),
(534.55,248,o),
(412.752,239,o),
(269.357,217,c)
);
},
{
closed = 1;
nodes = (
(618.724,379,o),
(610.341,297,o),
(585.379,107,c),
(585.783,84,o),
(565.399,7,o),
(733.201,-4,c),
(927.202,-9,o),
(1023.399,7,o),
(1211.793,34,c),
(1211.793,34,o),
(1314.99,50,o),
(1297.574,128,cs),
(1284.161,196,o),
(1135.362,192,o),
(1135.362,192,c),
(984.366,172,o),
(1022.365,177,o),
(869.168,161,c),
(896.937,315,o),
(898.135,326,o),
(941.301,497,c),
(1257.303,487,l),
(1257.303,487,o),
(1372.302,492,o),
(1383.687,564,cs),
(1396.669,654,o),
(1215.07,651,o),
(1215.07,651,c),
(815.671,644,l),
(735.472,638,o),
(699.279,607,o),
(689.682,589,c)
);
},
{
closed = 1;
nodes = (
(684.718,409,l),
(668.951,245,l),
(1100.149,256,l),
(1100.149,256,o),
(1211.349,257,o),
(1226.533,333,cs),
(1240.719,404,o),
(1105.916,420,o),
(1105.916,420,c)
);
}
);
};
layerId = "7E05DFED-BC11-4724-94EA-0D0C4C5F5B37";
shapes = (
{
closed = 1;
nodes = (
(302.602,-12,o),
(334.988,60,o),
(334.988,60,c),
(370.969,155,o),
(367.371,147,o),
(417.75,249,c),
(445.341,297,o),
(501.127,366,o),
(529.718,409,c),
(543.728,359,o),
(552.738,309,o),
(566.953,235,cs),
(572.959,205,o),
(572.37,152,o),
(583.185,76,c),
(583.185,76,o),
(597.001,-5,o),
(726.001,-5,cs),
(855.001,-5,o),
(863.586,68,o),
(863.586,68,c),
(875.152,241,o),
(823.719,404,o),
(798.904,480,c),
(775.482,588,o),
(641.07,651,o),
(573.471,643,c),
(481.272,642,o),
(397.67,649,o),
(217.317,417,c),
(143.339,307,o),
(74.96,200,o),
(50.58,98,c),
(50.58,98,o),
(27.398,12,o),
(174.8,-1,cs)
);
},
{
closed = 1;
nodes = (
(349.978,110,o),
(549.779,104,o),
(687.383,87,c),
(691.752,239,l),
(534.55,248,o),
(412.752,239,o),
(269.357,217,c),
(220.383,87,l)
);
},
{
closed = 1;
nodes = (
(927.202,-9,o),
(1023.399,7,o),
(1211.793,34,c),
(1211.793,34,o),
(1314.99,50,o),
(1297.574,128,cs),
(1284.161,196,o),
(1135.362,192,o),
(1135.362,192,c),
(984.366,172,o),
(1022.365,177,o),
(869.168,161,c),
(896.937,315,o),
(898.135,326,o),
(941.301,497,c),
(1257.303,487,l),
(1257.303,487,o),
(1372.302,492,o),
(1383.687,564,cs),
(1396.669,654,o),
(1215.07,651,o),
(1215.07,651,c),
(815.671,644,l),
(735.472,638,o),
(699.279,607,o),
(689.682,589,c),
(618.724,379,o),
(610.341,297,o),
(585.379,107,c),
(585.783,84,o),
(565.399,7,o),
(733.201,-4,c)
);
},
{
closed = 1;
nodes = (
(1100.149,256,l),
(1100.149,256,o),
(1211.349,257,o),
(1226.533,333,cs),
(1240.719,404,o),
(1105.916,420,o),
(1105.916,420,c),
(684.718,409,l),
(668.951,245,l)
);
}
);
width = 1309;
},
{
anchors = (
{
name = bottom;
pos = (1333,82);
},
{
name = top;
pos = (1250,643);
}
);
background = {
anchors = (
{
name = bottom;
pos = (1333,82);
},
{
name = top;
pos = (1250,643);
}
);
shapes = (
{
closed = 1;
nodes = (
(55.595,23,o),
(53.4,2,o),
(86.8,-1,cs),
(121.201,-4,o),
(127.997,15,o),
(127.997,15,c),
(159.173,136,o),
(226.946,270,o),
(316.517,413,cs),
(359.703,484,o),
(414.291,547,o),
(487.48,598,c),
(516.89,550,o),
(541.102,491,o),
(554.516,418,cs),
(578.739,304,o),
(587.767,164,o),
(589.997,15,c),
(589.997,15,o),
(593.6,-2,o),
(625.8,-1,cs),
(657,0,o),
(658.997,15,o),
(658.997,15,c),
(669.762,189,o),
(640.121,396,o),
(615.306,472,c),
(592.084,581,o),
(553.07,651,o),
(485.471,643,c),
(394.272,642,o),
(315.493,533,o),
(238.317,417,c),
(154.344,282,o),
(89.97,150,o),
(55.595,23,c)
);
},
{
closed = 1;
nodes = (
(134.981,95,l),
(263.377,117,o),
(465.376,122,o),
(602.979,105,c),
(602.171,146,l),
(446.769,154,o),
(295.77,149,o),
(151.375,127,c)
);
},
{
closed = 1;
nodes = (
(644.917,415,o),
(616.556,218,o),
(590.595,23,c),
(595.199,6,o),
(621.6,-2,o),
(671.8,-1,cs),
(860.199,6,o),
(1054.595,23,o),
(1252.79,49,c),
(1252.79,49,o),
(1279.589,53,o),
(1275.585,73,c),
(1272.781,94,o),
(1235.582,88,o),
(1235.582,88,c),
(1084.387,67,o),
(881.19,51,o),
(662.393,37,c),
(685.751,244,o),
(721.312,442,o),
(781.876,620,c),
(1334.079,606,l),
(1334.079,606,o),
(1371.479,603,o),
(1376.675,624,c),
(1380.871,645,o),
(1341.271,647,o),
(1341.271,647,c),
(797.669,654,l),
(753.069,656,o),
(726.47,648,o),
(716.874,630,c)
);
},
{
closed = 1;
nodes = (
(687.129,356,l),
(678.537,313,l),
(1108.735,324,l),
(1108.735,324,o),
(1160.535,323,o),
(1164.531,343,cs),
(1169.526,368,o),
(1108.327,367,o),
(1108.327,367,c)
);
}
);
};
layerId = "99376340-70F9-4B1D-A253-B1BEDBF73140";
shapes = (
{
closed = 1;
nodes = (
(121.201,-4,o),
(127.997,15,o),
(127.997,15,c),
(159.173,136,o),
(226.946,270,o),
(316.517,413,cs),
(359.703,484,o),
(414.291,547,o),
(487.48,598,c),
(516.89,550,o),
(541.102,491,o),
(554.516,418,cs),
(578.739,304,o),
(587.767,164,o),
(589.997,15,c),
(589.997,15,o),
(593.6,-2,o),
(625.8,-1,cs),
(657,0,o),
(658.997,15,o),
(658.997,15,c),
(669.762,189,o),
(640.121,396,o),
(615.306,472,c),
(592.084,581,o),
(553.07,651,o),
(485.471,643,c),
(394.272,642,o),
(315.493,533,o),
(238.317,417,c),
(154.344,282,o),
(89.97,150,o),
(55.595,23,c),
(55.595,23,o),
(53.4,2,o),
(86.8,-1,cs)
);
},
{
closed = 1;
nodes = (
(263.377,117,o),
(465.376,122,o),
(602.979,105,c),
(602.171,146,l),
(446.769,154,o),
(295.77,149,o),
(151.375,127,c),
(134.981,95,l)
);
},
{
closed = 1;
nodes = (
(860.199,6,o),
(1054.595,23,o),
(1252.79,49,c),
(1252.79,49,o),
(1279.589,53,o),
(1275.585,73,c),
(1272.781,94,o),
(1235.582,88,o),
(1235.582,88,c),
(1084.387,67,o),
(881.19,51,o),
(662.393,37,c),
(685.751,244,o),
(721.312,442,o),
(781.876,620,c),
(1334.079,606,l),
(1334.079,606,o),
(1371.479,603,o),
(1376.675,624,c),
(1380.871,645,o),
(1341.271,647,o),
(1341.271,647,c),
(797.669,654,l),
(753.069,656,o),
(726.47,648,o),
(716.874,630,c),
(644.917,415,o),
(616.556,218,o),
(590.595,23,c),
(595.199,6,o),
(621.6,-2,o),
(671.8,-1,cs)
);
},
{
closed = 1;
nodes = (
(1108.735,324,l),
(1108.735,324,o),
(1160.535,323,o),
(1164.531,343,cs),
(1169.526,368,o),
(1108.327,367,o),
(1108.327,367,c),
(687.129,356,l),
(678.537,313,l)
);
}
);
width = 1313;
},
{
anchors = (
{
name = bottom;
pos = (782,82);
},
{
name = top;
pos = (663,643);
}
);
background = {
anchors = (
{
name = bottom;
pos = (782,82);
},
{
name = top;
pos = (663,643);
}
);
shapes = (
{
closed = 1;
nodes = (
(50.58,98,o),
(29.398,12,o),
(126.8,-1,cs),
(211.602,-12,o),
(237.988,60,o),
(237.988,60,c),
(267.969,155,o),
(265.371,147,o),
(305.75,249,c),
(327.341,297,o),
(369.127,366,o),
(390.718,409,c),
(396.728,359,o),
(399.738,309,o),
(403.953,235,cs),
(405.959,205,o),
(402.37,152,o),
(404.185,76,c),
(404.185,76,o),
(408.001,-5,o),
(494.001,-5,cs),
(580.001,-5,o),
(590.586,68,o),
(590.586,68,c),
(610.152,241,o),
(586.719,404,o),
(574.904,480,c),
(566.482,588,o),
(481.07,651,o),
(435.471,643,c),
(374.272,642,o),
(318.67,649,o),
(183.317,417,c),
(126.339,307,o),
(73.96,200,o),
(50.58,98,c)
);
},
{
closed = 1;
nodes = (
(163.383,87,l),
(250.978,110,o),
(383.779,104,o),
(474.383,87,c),
(487.752,239,l),
(383.55,248,o),
(301.752,239,o),
(204.357,217,c)
);
},
{
closed = 1;
nodes = (
(451.523,383,o),
(440.14,301,o),
(411.178,111,c),
(409.582,88,o),
(391.198,11,o),
(502,0,c),
(631.001,-5,o),
(696.198,11,o),
(823.592,38,c),
(823.592,38,o),
(893.789,54,o),
(887.374,132,cs),
(882.96,200,o),
(783.161,196,o),
(783.161,196,c),
(681.165,176,o),
(707.164,181,o),
(603.967,165,c),
(632.736,319,o),
(633.934,330,o),
(674.1,501,c),
(884.102,491,l),
(884.102,491,o),
(961.101,496,o),
(973.486,568,cs),
(988.468,658,o),
(866.869,655,o),
(866.869,655,c),
(600.47,648,l),
(546.272,642,o),
(520.078,611,o),
(512.481,593,c)
);
},
{
closed = 1;
nodes = (
(497.517,413,l),
(475.75,249,l),
(763.948,260,l),
(763.948,260,o),
(838.148,261,o),
(853.333,337,cs),
(867.518,408,o),
(778.715,424,o),
(778.715,424,c)
);
}
);
};
layerId = "F94FFD99-753E-41E1-86D1-359C136D3DE6";
shapes = (
{
closed = 1;
nodes = (
(211.602,-12,o),
(237.988,60,o),
(237.988,60,c),
(267.969,155,o),
(265.371,147,o),
(305.75,249,c),
(327.341,297,o),
(369.127,366,o),
(390.718,409,c),
(396.728,359,o),
(399.738,309,o),
(403.953,235,cs),
(405.959,205,o),
(402.37,152,o),
(404.185,76,c),
(404.185,76,o),
(408.001,-5,o),
(494.001,-5,cs),
(580.001,-5,o),
(590.586,68,o),
(590.586,68,c),
(610.152,241,o),
(586.719,404,o),
(574.904,480,c),
(566.482,588,o),
(481.07,651,o),
(435.471,643,c),
(374.272,642,o),
(318.67,649,o),
(183.317,417,c),
(126.339,307,o),
(73.96,200,o),
(50.58,98,c),
(50.58,98,o),
(29.398,12,o),
(126.8,-1,cs)
);
},
{
closed = 1;
nodes = (
(250.978,110,o),
(383.779,104,o),
(474.383,87,c),
(487.752,239,l),
(383.55,248,o),
(301.752,239,o),
(204.357,217,c),
(163.383,87,l)
);
},
{
closed = 1;
nodes = (
(631.001,-5,o),
(696.198,11,o),
(823.592,38,c),
(823.592,38,o),
(893.789,54,o),
(887.374,132,cs),
(882.96,200,o),
(783.161,196,o),
(783.161,196,c),
(681.165,176,o),
(707.164,181,o),
(603.967,165,c),
(632.736,319,o),
(633.934,330,o),
(674.1,501,c),
(884.102,491,l),
(884.102,491,o),
(961.101,496,o),
(973.486,568,cs),
(988.468,658,o),
(866.869,655,o),
(866.869,655,c),
(600.47,648,l),
(546.272,642,o),
(520.078,611,o),
(512.481,593,c),
(451.523,383,o),
(440.14,301,o),
(411.178,111,c),
(409.582,88,o),
(391.198,11,o),
(502,0,c)
);
},
{
closed = 1;
nodes = (
(763.948,260,l),
(763.948,260,o),
(838.148,261,o),
(853.333,337,cs),
(867.518,408,o),
(778.715,424,o),
(778.715,424,c),
(497.517,413,l),
(475.75,249,l)
);
}
);
width = 896;
},
{
anchors = (
{
name = bottom;
pos = (898,82);
},
{
name = top;
pos = (880,643);
}
);
background = {
anchors = (
{
name = bottom;
pos = (898,82);
},
{
name = top;
pos = (880,643);
}
);
shapes = (
{
closed = 1;
nodes = (
(55.595,23,o),
(52.4,2,o),
(74.8,-1,cs),
(97.201,-4,o),
(102.997,15,o),
(102.997,15,c),
(132.173,136,o),
(185.946,270,o),
(255.517,413,c),
(288.703,484,o),
(329.291,547,o),
(381.48,598,c),
(397.89,550,o),
(410.102,491,o),
(414.516,418,cs),
(422.739,304,o),
(419.767,164,o),
(410.997,15,c),
(410.997,15,o),
(412.6,-2,o),
(433.8,-1,cs),
(455,0,o),
(456.997,15,o),
(456.997,15,c),
(475.762,189,o),
(470.121,396,o),
(458.306,472,c),
(450.084,581,o),
(429.07,651,o),
(383.471,643,c),
(322.272,642,o),
(262.493,533,o),
(203.317,417,c),
(138.344,282,o),
(86.97,150,o),
(55.595,23,c)
);
},
{
closed = 1;
nodes = (
(112.981,95,l),
(200.377,117,o),
(335.376,122,o),
(425.979,105,c),
(428.171,146,l),
(324.769,154,o),
(223.77,149,o),
(126.375,127,c)
);
},
{
closed = 1;
nodes = (
(473.917,415,o),
(441.556,218,o),
(411.595,23,c),
(413.199,6,o),
(430.6,-2,o),
(463.8,-1,c),
(590.199,6,o),
(720.595,23,o),
(854.79,49,c),
(854.79,49,o),
(872.589,53,o),
(871.585,73,cs),
(870.781,94,o),
(845.582,88,o),
(845.582,88,c),
(743.387,67,o),
(607.19,51,o),
(460.393,37,c),
(489.751,244,o),
(526.312,442,o),
(578.876,620,c),
(946.079,606,l),
(946.079,606,o),
(970.479,603,o),
(975.675,624,c),
(979.871,645,o),
(953.271,647,o),
(953.271,647,c),
(591.669,654,l),
(562.069,656,o),
(543.47,648,o),
(535.874,630,c)
);
},
{
closed = 1;
nodes = (
(498.129,356,l),
(489.537,313,l),
(776.735,324,l),
(776.735,324,o),
(811.535,323,o),
(815.531,343,cs),
(820.526,368,o),
(779.327,367,o),
(779.327,367,c)
);
}
);
};
layerId = "E82ED6F4-5586-4A54-A016-86253174F252";
shapes = (
{
closed = 1;
nodes = (
(97.201,-4,o),
(102.997,15,o),
(102.997,15,c),
(132.173,136,o),
(185.946,270,o),
(255.517,413,c),
(288.703,484,o),
(329.291,547,o),
(381.48,598,c),
(397.89,550,o),
(410.102,491,o),
(414.516,418,cs),
(422.739,304,o),
(419.767,164,o),
(410.997,15,c),
(410.997,15,o),
(412.6,-2,o),
(433.8,-1,cs),
(455,0,o),
(456.997,15,o),
(456.997,15,c),
(475.762,189,o),
(470.121,396,o),
(458.306,472,c),
(450.084,581,o),
(429.07,651,o),
(383.471,643,c),
(322.272,642,o),
(262.493,533,o),
(203.317,417,c),
(138.344,282,o),
(86.97,150,o),
(55.595,23,c),
(55.595,23,o),
(52.4,2,o),
(74.8,-1,cs)
);
},
{
closed = 1;
nodes = (
(200.377,117,o),
(335.376,122,o),
(425.979,105,c),
(428.171,146,l),
(324.769,154,o),
(223.77,149,o),
(126.375,127,c),
(112.981,95,l)
);
},
{
closed = 1;
nodes = (
(590.199,6,o),
(720.595,23,o),
(854.79,49,c),
(854.79,49,o),
(872.589,53,o),
(871.585,73,cs),
(870.781,94,o),
(845.582,88,o),
(845.582,88,c),
(743.387,67,o),
(607.19,51,o),
(460.393,37,c),
(489.751,244,o),
(526.312,442,o),
(578.876,620,c),
(946.079,606,l),
(946.079,606,o),
(970.479,603,o),
(975.675,624,c),
(979.871,645,o),
(953.271,647,o),
(953.271,647,c),
(591.669,654,l),
(562.069,656,o),
(543.47,648,o),
(535.874,630,c),
(473.917,415,o),
(441.556,218,o),
(411.595,23,c),
(413.199,6,o),
(430.6,-2,o),
(463.8,-1,c)
);
},
{
closed = 1;
nodes = (
(776.735,324,l),
(776.735,324,o),
(811.535,323,o),
(815.531,343,cs),
(820.526,368,o),
(779.327,367,o),
(779.327,367,c),
(498.129,356,l),
(489.537,313,l)
);
}
);
width = 908;
}
);
unicode = 198;
},
{
glyphname = B;
kernLeft = H1;
kernRight = B;
lastChange = "2024-07-18 13:22:01 +0000";
layers = (
{
background = {
shapes = (
{
closed = 1;
nodes = (
(861,345,o),
(945,440,o),
(903,511,c),
(878,579,o),
(762,637,o),
(633,649,c),
(315,649,ls),
(210,649,o),
(186,599,o),
(179,582,c),
(125,421,o),
(83,219,o),
(77,74,c),
(105,-17,o),
(346,-7,o),
(555,5,c),
(732,34,o),
(838,85,o),
(859,168,c),
(880,218,o),
(830,296,o),
(780,319,c)
);
},
{
closed = 1;
nodes = (
(446,503,l),
(490,503,o),
(532,502,o),
(552,501,c),
(597,496,o),
(616,484,o),
(615,467,c),
(611,451,o),
(589,442,o),
(558,435,c),
(514,430,o),
(470,429,o),
(427,431,c)
);
},
{
closed = 1;
nodes = (
(501,165,o),
(440,163,o),
(371,164,c),
(370,187,o),
(374,210,o),
(380,233,c),
(484,234,l),
(523,233,o),
(560,226,o),
(569,207,cs),
(576,195,o),
(565,184,o),
(536,175,cs)
);
}
);
};
layerId = "7E05DFED-BC11-4724-94EA-0D0C4C5F5B37";
shapes = (
{
closed = 1;
nodes = (
(732,34,o),
(838,85,o),
(859,168,c),
(880,218,o),
(830,296,o),
(780,319,c),
(861,345,o),
(945,440,o),
(903,511,c),
(878,579,o),
(762,637,o),
(633,649,c),
(315,649,ls),
(210,649,o),
(186,599,o),
(179,582,c),
(125,421,o),
(83,219,o),
(77,74,c),
(105,-17,o),
(346,-7,o),
(555,5,c)
);
},
{
closed = 1;
nodes = (
(370,187,o),
(374,210,o),
(380,233,c),
(484,234,l),
(523,233,o),
(560,226,o),
(569,207,cs),
(576,195,o),
(565,184,o),
(536,175,cs),
(501,165,o),
(440,163,o),
(371,164,c)
);
},
{
closed = 1;
nodes = (
(446,503,l),
(490,503,o),
(532,502,o),
(552,501,c),
(597,496,o),
(616,484,o),
(615,467,c),
(611,451,o),
(589,442,o),
(558,435,c),
(514,430,o),
(470,429,o),
(427,431,c)
);
}
);
width = 872;
},
{
background = {
shapes = (
{
closed = 1;
nodes = (
(793,385,o),
(868,443,o),
(851,524,c),
(825,592,o),
(739,635,o),
(609,647,c),
(276,649,ls),
(247,649,o),
(226,643,o),
(218,627,c),
(165,466,o),
(102,172,o),
(96,28,c),
(102,-11,o),
(305,-7,o),
(527,16,c),
(704,45,o),
(778,109,o),
(797,192,c),
(796,263,o),
(744,315,o),
(640,348,c)
);
},
{
closed = 1;
nodes = (
(282,616,l),
(410,615,o),
(539,615,o),
(596,609,cs),
(726,593,o),
(782,552,o),
(780,493,c),
(765,438,o),
(698,405,o),
(607,383,c),
(475,367,o),
(348,363,o),
(220,369,c)
);
},
{
closed = 1;
nodes = (
(522,45,o),
(353,38,o),
(164,41,c),
(173,136,o),
(189,231,o),
(211,326,c),
(494,328,l),
(598,322,o),
(701,295,o),
(722,220,cs),
(736,170,o),
(703,126,o),
(620,87,c)
);
}
);
};
layerId = "99376340-70F9-4B1D-A253-B1BEDBF73140";
shapes = (
{
closed = 1;
nodes = (
(704,45,o),
(778,109,o),
(797,192,c),
(796,263,o),
(744,315,o),
(640,348,c),
(793,385,o),
(868,443,o),
(851,524,c),
(825,592,o),
(739,635,o),
(609,647,c),
(276,649,ls),
(247,649,o),
(226,643,o),
(218,627,c),
(165,466,o),
(102,172,o),
(96,28,c),
(102,-11,o),
(305,-7,o),
(527,16,c)
);
},
{
closed = 1;
nodes = (
(173,136,o),
(189,231,o),
(211,326,c),
(494,328,l),
(598,322,o),
(701,295,o),
(722,220,cs),
(736,170,o),
(703,126,o),
(620,87,c),
(522,45,o),
(353,38,o),
(164,41,c)
);
},
{
closed = 1;
nodes = (
(282,616,l),
(410,615,o),
(539,615,o),
(596,609,cs),
(726,593,o),
(782,552,o),
(780,493,c),
(765,438,o),
(698,405,o),
(607,383,c),
(475,367,o),
(348,363,o),
(220,369,c)
);
}
);
width = 834;
},
{
background = {
shapes = (
{
closed = 1;
nodes = (
(597,345,o),
(659,440,o),
(636,511,c),
(624,579,o),
(550,637,o),
(465,649,c),
(253,649,ls),
(183,649,o),
(164,599,o),
(158,582,cs),
(111,421,o),
(70,219,o),
(56,74,c),
(69,-17,o),
(230,-7,o),
(370,5,c),
(490,34,o),
(564,85,o),
(584,168,c),
(601,218,o),
(573,296,o),
(541,319,c)
);
},
{
closed = 1;
nodes = (
(331,503,l),
(360,503,o),
(388,502,o),
(401,501,c),
(431,496,o),
(443,484,o),
(441,467,c),
(437,451,o),
(422,442,o),
(401,435,c),
(371,430,o),
(342,429,o),
(313,431,c)
);
},
{
closed = 1;
nodes = (
(345,165,o),
(304,163,o),
(258,164,c),
(259,187,o),
(263,210,o),
(269,233,c),
(338,234,l),
(364,233,o),
(388,226,o),
(393,207,cs),
(397,195,o),
(389,184,o),
(369,175,cs)
);
}
);
};
layerId = "F94FFD99-753E-41E1-86D1-359C136D3DE6";
shapes = (
{
closed = 1;
nodes = (
(490,34,o),
(564,85,o),
(584,168,c),
(601,218,o),
(573,296,o),
(541,319,c),
(597,345,o),
(659,440,o),
(636,511,c),
(624,579,o),
(550,637,o),
(465,649,c),
(253,649,ls),
(183,649,o),
(164,599,o),
(158,582,cs),
(111,421,o),
(70,219,o),
(56,74,c),
(69,-17,o),
(230,-7,o),
(370,5,c)
);
},
{
closed = 1;
nodes = (
(259,187,o),
(263,210,o),
(269,233,c),
(338,234,l),
(364,233,o),
(388,226,o),
(393,207,cs),
(397,195,o),
(389,184,o),
(369,175,cs),
(345,165,o),
(304,163,o),
(258,164,c)
);
},
{
closed = 1;
nodes = (
(331,503,l),
(360,503,o),
(388,502,o),
(401,501,c),
(431,496,o),
(443,484,o),
(441,467,c),
(437,451,o),
(422,442,o),
(401,435,c),
(371,430,o),
(342,429,o),
(313,431,c)
);
}
);
width = 582;
},
{
background = {
shapes = (
{
closed = 1;
nodes = (
(555,385,o),
(609,443,o),
(603,524,c),
(590,592,o),
(536,635,o),
(450,647,c),
(228,649,ls),
(209,649,o),
(194,643,o),
(188,627,c),
(142,466,o),
(80,172,o),
(67,28,c),
(68,-11,o),
(204,-7,o),
(353,16,c),
(473,45,o),
(527,109,o),
(545,192,c),
(549,263,o),
(518,315,o),
(451,348,c)
);
},
{
closed = 1;
nodes = (
(230,616,l),
(315,615,o),
(401,615,o),
(439,609,c),
(524,593,o),
(559,552,o),
(554,493,c),
(540,438,o),
(493,405,o),
(431,383,c),
(342,367,o),
(257,363,o),
(172,369,c)
);
},
{
closed = 1;
nodes = (
(352,45,o),
(239,38,o),
(113,41,c),
(125,136,o),
(142,231,o),
(163,326,c),
(352,328,l),
(421,322,o),
(488,295,o),
(497,220,cs),
(503,170,o),
(478,126,o),
(420,87,c)
);
}
);
};
layerId = "E82ED6F4-5586-4A54-A016-86253174F252";
shapes = (
{
closed = 1;
nodes = (
(473,45,o),
(527,109,o),
(545,192,c),
(549,263,o),
(518,315,o),
(451,348,c),
(555,385,o),
(609,443,o),
(603,524,c),
(590,592,o),
(536,635,o),
(450,647,c),
(228,649,ls),
(209,649,o),
(194,643,o),
(188,627,c),
(142,466,o),
(80,172,o),
(67,28,c),
(68,-11,o),
(204,-7,o),
(353,16,c)
);
},
{
closed = 1;
nodes = (
(125,136,o),
(142,231,o),
(163,326,c),
(352,328,l),
(421,322,o),
(488,295,o),
(497,220,cs),
(503,170,o),
(478,126,o),
(420,87,c),
(352,45,o),
(239,38,o),
(113,41,c)
);
},
{
closed = 1;
nodes = (
(230,616,l),
(315,615,o),
(401,615,o),
(439,609,c),
(524,593,o),
(559,552,o),
(554,493,c),
(540,438,o),
(493,405,o),
(431,383,c),
(342,367,o),
(257,363,o),
(172,369,c)
);
}
);
width = 557;
}
);
unicode = 66;
},
{
glyphname = C;
kernLeft = C2;
kernRight = C;
lastChange = "2024-07-18 13:22:01 +0000";
layers = (
{
anchors = (
{
name = bottom;
pos = (470,25);
},
{
name = top;
pos = (641,643);
}
);
background = {
anchors = (
{
name = bottom;
pos = (470,25);
},
{
name = top;
pos = (641,643);
}
);
shapes = (
{
closed = 1;
nodes = (
(635.757,214,o),
(705.143,286,o),
(832.151,246,cs),
(970.559,203,o),
(878.775,124,o),
(878.775,124,c),
(878.775,124,o),
(739.207,-34,o),
(417.999,5,cs),
(110.791,44,o),
(62.952,240,o),
(127.127,366,cs),
(186.503,483,o),
(339.07,651,o),
(643.07,651,cs),
(909.07,651,o),
(1024.902,490,o),
(949.124,381,c),
(949.124,381,o),
(904.534,328,o),
(816.933,335,cs),
(725.531,343,o),
(716.919,405,o),
(716.919,405,c),
(716.919,405,o),
(727.103,486,o),
(639.103,486,cs),
(502.103,486,o),
(410.531,343,o),
(394.741,294,c),
(381.55,248,o),
(399.164,181,o),
(478.967,165,cs),
(517.369,157,o),
(604.363,187,o),
(635.757,214,c)
);
}
);
};
layerId = "7E05DFED-BC11-4724-94EA-0D0C4C5F5B37";
shapes = (
{
closed = 1;
nodes = (
(739.207,-34,o),
(878.775,124,o),
(878.775,124,c),
(878.775,124,o),
(970.559,203,o),
(832.151,246,cs),
(705.143,286,o),
(635.757,214,o),
(635.757,214,c),
(604.363,187,o),
(517.369,157,o),
(478.967,165,cs),
(399.164,181,o),
(381.55,248,o),
(394.741,294,c),
(410.531,343,o),
(502.103,486,o),
(639.103,486,cs),
(727.103,486,o),
(716.919,405,o),
(716.919,405,c),
(716.919,405,o),
(725.531,343,o),
(816.933,335,cs),
(904.534,328,o),
(949.124,381,o),
(949.124,381,c),
(1024.902,490,o),
(909.07,651,o),
(643.07,651,cs),
(339.07,651,o),
(186.503,483,o),
(127.127,366,cs),
(62.952,240,o),
(110.791,44,o),
(417.999,5,cs)
);
}
);
width = 930;
},
{
anchors = (
{
name = bottom;
pos = (470,25);
},
{
name = top;
pos = (641,643);
}
);
background = {
anchors = (
{
name = bottom;
pos = (470,25);
},
{
name = top;
pos = (641,643);
}
);
shapes = (
{
closed = 1;
nodes = (
(804.969,155,o),
(827.966,170,o),
(853.168,161,cs),
(878.37,152,o),
(869.373,137,o),
(869.373,137,c),
(869.373,137,o),
(735.005,-25,o),
(431.198,11,cs),
(128.191,46,o),
(99.55,248,o),
(156.127,366,cs),
(210.503,483,o),
(402.27,652,o),
(663.07,651,cs),
(923.67,649,o),
(1019.498,508,o),
(947.518,408,c),
(947.518,408,o),
(939.72,399,o),
(919.32,402,cs),
(896.919,405,o),
(896.117,416,o),
(896.117,416,c),
(896.117,416,o),
(947.087,566,o),
(725.879,605,cs),
(503.471,643,o),
(206.314,432,o),
(203.945,275,cs),
(200.18,101,o),
(403.591,43,o),
(522.391,47,cs),
(641.99,50,o),
(763.579,103,o),
(804.969,155,c)
);
}
);
};
layerId = "99376340-70F9-4B1D-A253-B1BEDBF73140";
shapes = (
{
closed = 1;
nodes = (
(735.005,-25,o),
(869.373,137,o),
(869.373,137,c),
(869.373,137,o),
(878.37,152,o),
(853.168,161,cs),
(827.966,170,o),
(804.969,155,o),
(804.969,155,c),
(763.579,103,o),
(641.99,50,o),
(522.391,47,cs),
(403.591,43,o),
(200.18,101,o),
(203.945,275,cs),
(206.314,432,o),
(503.471,643,o),
(725.879,605,cs),
(947.087,566,o),
(896.117,416,o),
(896.117,416,c),
(896.117,416,o),
(896.919,405,o),
(919.32,402,cs),
(939.72,399,o),
(947.518,408,o),
(947.518,408,c),
(1019.498,508,o),
(923.67,649,o),
(663.07,651,cs),
(402.27,652,o),
(210.503,483,o),
(156.127,366,cs),
(99.55,248,o),
(128.191,46,o),
(431.198,11,cs)
);
}
);
width = 953;
},
{
anchors = (
{
name = bottom;
pos = (315,25);
},
{
name = top;
pos = (470,643);
}
);
background = {
anchors = (
{
name = bottom;
pos = (315,25);
},
{
name = top;
pos = (470,643);
}
);
shapes = (
{
closed = 1;
nodes = (
(437.757,214,o),
(489.143,286,o),
(571.151,246,cs),
(660.559,203,o),
(593.775,124,o),
(593.775,124,c),
(593.775,124,o),
(490.207,-34,o),
(278.999,5,cs),
(76.791,44,o),
(57.952,240,o),
(109.127,366,cs),
(156.503,483,o),
(269.07,651,o),
(472.07,651,cs),
(649.07,651,o),
(715.902,490,o),
(658.124,381,c),
(658.124,381,o),
(624.534,328,o),
(566.933,335,cs),
(506.531,343,o),
(504.919,405,o),
(504.919,405,c),
(504.919,405,o),
(517.103,486,o),
(458.103,486,cs),
(367.103,486,o),
(296.531,343,o),
(282.741,294,cs),
(270.55,248,o),
(278.164,181,o),
(329.967,165,cs),
(355.369,157,o),
(415.363,187,o),
(437.757,214,c)
);
}
);
};
layerId = "F94FFD99-753E-41E1-86D1-359C136D3DE6";
shapes = (
{
closed = 1;
nodes = (
(490.207,-34,o),
(593.775,124,o),
(593.775,124,c),
(593.775,124,o),
(660.559,203,o),
(571.151,246,cs),
(489.143,286,o),
(437.757,214,o),
(437.757,214,c),
(415.363,187,o),
(355.369,157,o),
(329.967,165,cs),
(278.164,181,o),
(270.55,248,o),
(282.741,294,cs),
(296.531,343,o),
(367.103,486,o),
(458.103,486,cs),
(517.103,486,o),
(504.919,405,o),
(504.919,405,c),
(504.919,405,o),
(506.531,343,o),
(566.933,335,cs),
(624.534,328,o),
(658.124,381,o),
(658.124,381,c),
(715.902,490,o),
(649.07,651,o),
(472.07,651,cs),
(269.07,651,o),
(156.503,483,o),
(109.127,366,cs),
(57.952,240,o),
(76.791,44,o),
(278.999,5,cs)
);
}
);
width = 620;
},
{
anchors = (
{
name = bottom;
pos = (316,25);
},
{
name = top;
pos = (471,643);
}
);
background = {
anchors = (
{
name = bottom;
pos = (316,25);
},
{
name = top;
pos = (471,643);
}
);
shapes = (
{
closed = 1;
nodes = (
(547.969,155,o),
(563.966,170,o),
(580.168,161,cs),
(596.37,152,o),
(589.373,137,o),
(589.373,137,c),
(589.373,137,o),
(489.005,-25,o),
(289.198,11,cs),
(89.191,46,o),
(83.55,248,o),
(129.127,366,cs),
(173.503,483,o),
(312.27,652,o),
(486.07,651,cs),
(659.67,649,o),
(714.498,508,o),
(659.518,408,c),
(659.518,408,o),
(653.72,399,o),
(640.32,402,cs),
(625.919,405,o),
(626.117,416,o),
(626.117,416,c),
(626.117,416,o),
(670.087,566,o),
(524.879,605,cs),
(379.471,643,o),
(167.314,432,o),
(154.945,275,cs),
(141.18,101,o),
(272.591,43,o),
(352.391,47,cs),
(431.99,50,o),
(516.579,103,o),
(547.969,155,c)
);
}
);
};
layerId = "E82ED6F4-5586-4A54-A016-86253174F252";
shapes = (
{
closed = 1;
nodes = (
(489.005,-25,o),
(589.373,137,o),
(589.373,137,c),
(589.373,137,o),
(596.37,152,o),
(580.168,161,cs),
(563.966,170,o),
(547.969,155,o),
(547.969,155,c),
(516.579,103,o),
(431.99,50,o),
(352.391,47,cs),
(272.591,43,o),
(141.18,101,o),
(154.945,275,cs),
(167.314,432,o),
(379.471,643,o),
(524.879,605,cs),
(670.087,566,o),
(626.117,416,o),
(626.117,416,c),
(626.117,416,o),
(625.919,405,o),
(640.32,402,cs),
(653.72,399,o),
(659.518,408,o),
(659.518,408,c),
(714.498,508,o),
(659.67,649,o),
(486.07,651,cs),
(312.27,652,o),
(173.503,483,o),
(129.127,366,cs),
(83.55,248,o),
(89.191,46,o),
(289.198,11,cs)
);
}
);
width = 636;
}
);
unicode = 67;
},
{
glyphname = Cacute;
kernLeft = C2;
kernRight = C;
lastChange = "2024-07-18 12:46:04 +0000";
layers = (
{
anchors = (
{
name = bottom;
pos = (470,25);
}
);
background = {
anchors = (
{
name = bottom;
pos = (470,25);
},
{
name = top;
pos = (641,643);
}
);
shapes = (
{
closed = 1;
nodes = (
(635.757,214,o),
(705.143,286,o),
(832.151,246,cs),
(970.559,203,o),
(878.775,124,o),
(878.775,124,c),
(878.775,124,o),
(739.207,-34,o),
(417.999,5,cs),
(110.791,44,o),
(62.952,240,o),
(127.127,366,cs),
(186.503,483,o),
(339.07,651,o),
(643.07,651,cs),
(909.07,651,o),
(1024.902,490,o),
(949.124,381,c),
(949.124,381,o),
(904.534,328,o),
(816.933,335,cs),
(725.531,343,o),
(716.919,405,o),
(716.919,405,c),
(716.919,405,o),
(727.103,486,o),
(639.103,486,cs),
(502.103,486,o),
(410.531,343,o),
(394.741,294,c),
(381.55,248,o),
(399.164,181,o),
(478.967,165,cs),
(517.369,157,o),
(604.363,187,o),
(635.757,214,c)
);
},
{
closed = 1;
nodes = (
(742,832,o),
(828,843,o),
(855,809,cs),
(884,769,o),
(822,738,o),
(822,738,c),
(751,695,o),
(625,674,o),
(582,669,c),
(582,669,o),
(496,660,o),
(475,695,cs),
(438,757,o),
(550,792,o),
(550,792,c),
(653,822,o),
(704,828,o),
(742,832,c)
);
}
);
};
layerId = "7E05DFED-BC11-4724-94EA-0D0C4C5F5B37";
shapes = (
{
alignment = -1;
ref = C;
},
{
alignment = -1;
pos = (314,183);
ref = acute;
}
);
width = 930;
},
{
anchors = (
{
name = bottom;
pos = (470,25);
}
);
background = {
anchors = (
{
name = bottom;
pos = (470,25);
},
{
name = top;
pos = (641,643);
}
);
shapes = (
{
closed = 1;
nodes = (
(804.969,155,o),
(827.966,170,o),
(853.168,161,cs),
(878.37,152,o),
(869.373,137,o),
(869.373,137,c),
(869.373,137,o),
(735.005,-25,o),
(431.198,11,cs),
(128.191,46,o),
(99.55,248,o),
(156.127,366,cs),
(210.503,483,o),
(402.27,652,o),
(663.07,651,cs),
(923.67,649,o),
(1019.498,508,o),
(947.518,408,c),
(947.518,408,o),
(939.72,399,o),
(919.32,402,cs),
(896.919,405,o),
(896.117,416,o),
(896.117,416,c),
(896.117,416,o),
(947.087,566,o),
(725.879,605,cs),
(503.471,643,o),
(206.314,432,o),
(203.945,275,cs),
(200.18,101,o),
(403.591,43,o),
(522.391,47,cs),
(641.99,50,o),
(763.579,103,o),
(804.969,155,c)
);
},
{
closed = 1;
nodes = (
(799,811,o),
(822,820,o),
(831,806,cs),
(841,792,o),
(817,785,o),
(817,785,c),
(726,750,o),
(625,718,o),
(514,689,c),
(514,689,o),
(487,682,o),
(479,696,cs),
(473,709,o),
(499,720,o),
(499,720,c),
(603,749,o),
(703,780,o),
(799,811,c)
);
}
);
};
layerId = "99376340-70F9-4B1D-A253-B1BEDBF73140";
shapes = (
{
alignment = -1;
ref = C;
},
{
alignment = -1;
pos = (299,183);
ref = acute;
}
);
width = 953;
},
{
anchors = (
{
name = bottom;
pos = (315,25);
}
);
background = {
anchors = (
{
name = bottom;
pos = (315,25);
},
{
name = top;
pos = (470,643);
}
);
shapes = (
{
closed = 1;
nodes = (
(437.757,214,o),
(489.143,286,o),
(571.151,246,cs),
(660.559,203,o),
(593.775,124,o),
(593.775,124,c),
(593.775,124,o),
(490.207,-34,o),
(278.999,5,cs),
(76.791,44,o),
(57.952,240,o),
(109.127,366,cs),
(156.503,483,o),
(269.07,651,o),
(472.07,651,cs),
(649.07,651,o),
(715.902,490,o),
(658.124,381,c),
(658.124,381,o),
(624.534,328,o),
(566.933,335,cs),
(506.531,343,o),
(504.919,405,o),
(504.919,405,c),
(504.919,405,o),
(517.103,486,o),
(458.103,486,cs),
(367.103,486,o),
(296.531,343,o),
(282.741,294,cs),
(270.55,248,o),
(278.164,181,o),
(329.967,165,cs),
(355.369,157,o),
(415.363,187,o),
(437.757,214,c)
);
},
{
closed = 1;
nodes = (
(551,832,o),
(609,843,o),
(624,809,cs),
(641,769,o),
(598,738,o),
(598,738,c),
(547,695,o),
(462,674,o),
(433,669,c),
(433,669,o),
(375,660,o),
(363,695,cs),
(343,757,o),
(420,792,o),
(420,792,c),
(491,822,o),
(525,828,o),
(551,832,c)
);
}
);
};
layerId = "F94FFD99-753E-41E1-86D1-359C136D3DE6";
shapes = (
{
alignment = -1;
ref = C;
},
{
alignment = -1;
pos = (222,183);
ref = acute;
}
);
width = 620;
},
{
anchors = (
{
name = bottom;
pos = (315,25);
}
);
background = {
anchors = (
{
name = bottom;
pos = (315,25);
},
{
name = top;
pos = (471,643);
}
);
shapes = (
{
closed = 1;
nodes = (
(547.969,155,o),
(563.966,170,o),
(580.168,161,cs),
(596.37,152,o),
(589.373,137,o),
(589.373,137,c),
(589.373,137,o),
(489.005,-25,o),
(289.198,11,cs),
(89.191,46,o),
(83.55,248,o),
(129.127,366,cs),
(173.503,483,o),
(312.27,652,o),
(486.07,651,cs),
(659.67,649,o),
(714.498,508,o),
(659.518,408,c),
(659.518,408,o),
(653.72,399,o),
(640.32,402,cs),
(625.919,405,o),
(626.117,416,o),
(626.117,416,c),
(626.117,416,o),
(670.087,566,o),
(524.879,605,cs),
(379.471,643,o),
(167.314,432,o),
(154.945,275,cs),
(141.18,101,o),
(272.591,43,o),
(352.391,47,cs),
(431.99,50,o),
(516.579,103,o),
(547.969,155,c)
);
},
{
closed = 1;
nodes = (
(587,811,o),
(603,820,o),
(608,806,cs),
(614,792,o),
(597,785,o),
(597,785,c),
(534,750,o),
(465,718,o),
(389,689,c),
(389,689,o),
(371,682,o),
(366,696,cs),
(363,709,o),
(381,720,o),
(381,720,c),
(452,749,o),
(521,780,o),
(587,811,c)
);
}
);
};
layerId = "E82ED6F4-5586-4A54-A016-86253174F252";
shapes = (
{
alignment = -1;
ref = C;
},
{
alignment = -1;
pos = (212,183);
ref = acute;
}
);
width = 635;
}
);
unicode = 262;
},
{
glyphname = Ccaron;
kernLeft = C2;
kernRight = C;
lastChange = "2024-07-18 12:46:04 +0000";
layers = (
{
anchors = (
{
name = bottom;
pos = (470,25);
}
);
background = {
anchors = (
{
name = bottom;
pos = (470,25);
},
{
name = top;
pos = (641,643);
}
);
shapes = (
{
closed = 1;
nodes = (
(635.757,214,o),
(705.143,286,o),
(832.151,246,cs),
(970.559,203,o),
(878.775,124,o),
(878.775,124,c),
(878.775,124,o),
(739.207,-34,o),
(417.999,5,cs),
(110.791,44,o),
(62.952,240,o),
(127.127,366,cs),
(186.503,483,o),
(339.07,651,o),
(643.07,651,cs),
(909.07,651,o),
(1024.902,490,o),
(949.124,381,c),
(949.124,381,o),
(904.534,328,o),
(816.933,335,cs),
(725.531,343,o),
(716.919,405,o),
(716.919,405,c),
(716.919,405,o),
(727.103,486,o),
(639.103,486,cs),
(502.103,486,o),
(410.531,343,o),
(394.741,294,c),
(381.55,248,o),
(399.164,181,o),
(478.967,165,cs),
(517.369,157,o),
(604.363,187,o),
(635.757,214,c)
);
},
{
closed = 1;
nodes = (
(882,757,o),
(924,795,o),
(859,829,cs),
(814,853,o),
(756,836,o),
(756,836,c),
(732,824,o),
(697,808,o),
(672,794,c),
(616,827,l),
(616,827,o),
(544,852,o),
(483,821,cs),
(399,777,o),
(474,730,o),
(474,730,c),
(584,679,l),
(627,653,o),
(709,658,o),
(739,673,c),
(811,705,o),
(837,721,o),
(882,757,c)
);
}
);
};
layerId = "7E05DFED-BC11-4724-94EA-0D0C4C5F5B37";
shapes = (
{
alignment = -1;
ref = C;
},
{
alignment = -1;
pos = (279,183);
ref = caron;
}
);
width = 930;
},
{
anchors = (
{
name = bottom;
pos = (470,25);
}
);
background = {
anchors = (
{
name = bottom;
pos = (470,25);
},
{
name = top;
pos = (641,643);
}
);
shapes = (
{
closed = 1;
nodes = (
(804.969,155,o),
(827.966,170,o),
(853.168,161,cs),
(878.37,152,o),
(869.373,137,o),
(869.373,137,c),
(869.373,137,o),
(735.005,-25,o),
(431.198,11,cs),
(128.191,46,o),
(99.55,248,o),
(156.127,366,cs),
(210.503,483,o),
(402.27,652,o),
(663.07,651,cs),
(923.67,649,o),
(1019.498,508,o),
(947.518,408,c),
(947.518,408,o),
(939.72,399,o),
(919.32,402,cs),
(896.919,405,o),
(896.117,416,o),
(896.117,416,c),
(896.117,416,o),
(947.087,566,o),
(725.879,605,cs),
(503.471,643,o),
(206.314,432,o),
(203.945,275,cs),
(200.18,101,o),
(403.591,43,o),
(522.391,47,cs),
(641.99,50,o),
(763.579,103,o),
(804.969,155,c)
);
},
{
closed = 1;
nodes = (
(882,803,o),
(899,817,o),
(882,825,cs),
(866,832,o),
(847,822,o),
(847,822,c),
(757,766,o),
(703,733,o),
(659,722,c),
(521,798,l),
(521,798,o),
(496,808,o),
(481,796,cs),
(467,785,o),
(480,774,o),
(480,774,c),
(621,700,l),
(651,687,o),
(679,689,o),
(708,703,cs),
(775,736,o),
(838,769,o),
(882,803,c)
);
}
);
};
layerId = "99376340-70F9-4B1D-A253-B1BEDBF73140";
shapes = (
{
alignment = -1;
ref = C;
},
{
alignment = -1;
pos = (279,183);
ref = caron;
}
);
width = 953;
},
{
anchors = (
{
name = bottom;
pos = (315,25);
}
);
background = {
anchors = (
{
name = bottom;
pos = (315,25);
},
{
name = top;
pos = (470,643);
}
);
shapes = (
{
closed = 1;
nodes = (
(437.757,214,o),
(489.143,286,o),
(571.151,246,cs),
(660.559,203,o),
(593.775,124,o),
(593.775,124,c),
(593.775,124,o),
(490.207,-34,o),
(278.999,5,cs),
(76.791,44,o),
(57.952,240,o),
(109.127,366,cs),
(156.503,483,o),
(269.07,651,o),
(472.07,651,cs),
(649.07,651,o),
(715.902,490,o),
(658.124,381,c),
(658.124,381,o),
(624.534,328,o),
(566.933,335,cs),
(506.531,343,o),
(504.919,405,o),
(504.919,405,c),
(504.919,405,o),
(517.103,486,o),
(458.103,486,cs),
(367.103,486,o),
(296.531,343,o),
(282.741,294,cs),
(270.55,248,o),
(278.164,181,o),
(329.967,165,cs),
(355.369,157,o),
(415.363,187,o),
(437.757,214,c)
);
},
{
closed = 1;
nodes = (
(639,757,o),
(669,795,o),
(628,829,cs),
(600,853,o),
(560,836,o),
(560,836,c),
(543,824,o),
(519,808,o),
(501,794,c),
(466,827,l),
(466,827,o),
(420,852,o),
(377,821,cs),
(318,777,o),
(365,730,o),
(365,730,c),
(435,679,l),
(462,653,o),
(517,658,o),
(538,673,c),
(588,705,o),
(606,721,o),
(639,757,c)
);
}
);
};
layerId = "F94FFD99-753E-41E1-86D1-359C136D3DE6";
shapes = (
{
alignment = -1;
ref = C;
},
{
alignment = -1;
pos = (198,183);
ref = caron;
}
);
width = 620;
},
{
anchors = (
{
name = bottom;
pos = (315,25);
}
);
background = {
anchors = (
{
name = bottom;
pos = (315,25);
},
{
name = top;
pos = (471,643);
}
);
shapes = (
{
closed = 1;
nodes = (
(547.969,155,o),
(563.966,170,o),
(580.168,161,cs),
(596.37,152,o),
(589.373,137,o),
(589.373,137,c),
(589.373,137,o),
(489.005,-25,o),
(289.198,11,cs),
(89.191,46,o),
(83.55,248,o),
(129.127,366,cs),
(173.503,483,o),
(312.27,652,o),
(486.07,651,cs),
(659.67,649,o),
(714.498,508,o),
(659.518,408,c),
(659.518,408,o),
(653.72,399,o),
(640.32,402,cs),
(625.919,405,o),
(626.117,416,o),
(626.117,416,c),
(626.117,416,o),
(670.087,566,o),
(524.879,605,cs),
(379.471,643,o),
(167.314,432,o),
(154.945,275,cs),
(141.18,101,o),
(272.591,43,o),
(352.391,47,cs),
(431.99,50,o),
(516.579,103,o),
(547.969,155,c)
);
},
{
closed = 1;
nodes = (
(642,803,o),
(654,817,o),
(643,825,cs),
(633,832,o),
(620,822,o),
(620,822,c),
(556,766,o),
(518,733,o),
(488,722,c),
(401,798,l),
(401,798,o),
(385,808,o),
(374,796,cs),
(364,785,o),
(372,774,o),
(372,774,c),
(461,700,l),
(480,687,o),
(499,689,o),
(519,703,cs),
(566,736,o),
(610,769,o),
(642,803,c)
);
}
);
};
layerId = "E82ED6F4-5586-4A54-A016-86253174F252";
shapes = (
{
alignment = -1;
ref = C;
},
{
alignment = -1;
pos = (198,183);
ref = caron;
}
);
width = 635;
}
);
unicode = 268;
},
{
glyphname = Ccedilla;
kernLeft = C2;
kernRight = C;
lastChange = "2024-07-18 13:22:01 +0000";
layers = (
{
anchors = (
{
name = bottom;
pos = (470,25);
},
{
name = top;
pos = (641,643);
}
);
background = {
anchors = (
{
name = bottom;
pos = (470,25);
},
{
name = top;
pos = (641,643);
}
);
shapes = (
{
closed = 1;
nodes = (
(635.757,214,o),
(705.143,286,o),
(832.151,246,cs),
(970.559,203,o),
(878.775,124,o),
(878.775,124,c),
(878.775,124,o),
(739.207,-34,o),
(417.999,5,cs),
(110.791,44,o),
(62.952,240,o),
(127.127,366,cs),
(186.503,483,o),
(339.07,651,o),
(643.07,651,cs),
(909.07,651,o),
(1024.902,490,o),
(949.124,381,c),
(949.124,381,o),
(904.534,328,o),
(816.933,335,cs),
(725.531,343,o),
(716.919,405,o),
(716.919,405,c),
(716.919,405,o),
(727.103,486,o),
(639.103,486,cs),
(502.103,486,o),
(410.531,343,o),
(394.741,294,c),
(381.55,248,o),
(399.164,181,o),
(478.967,165,cs),
(517.369,157,o),
(604.363,187,o),
(635.757,214,c)
);
},
{
closed = 1;
nodes = (
(398.198,11,o),
(412.191,46,o),
(474.991,45,cs),
(515.791,44,o),
(531.397,17,o),
(531.397,17,c),
(533.998,10,o),
(544.402,-8,o),
(541.406,-28,c),
(560.007,-35,o),
(630.216,-79,o),
(629.425,-123,cs),
(626.84,-201,o),
(541.646,-232,o),
(437.446,-228,cs),
(370.045,-225,o),
(325.041,-205,o),
(288.236,-179,c),
(288.236,-179,o),
(239.229,-144,o),
(293.223,-114,cs),
(332.618,-92,o),
(381.021,-105,o),
(381.021,-105,c),
(410.423,-113,o),
(419.425,-123,o),
(431.026,-130,c),
(453.227,-134,o),
(466.625,-127,o),
(467.225,-124,c),
(461.023,-115,o),
(450.621,-107,o),
(443.22,-99,c),
(430.82,-101,o),
(380.417,-83,o),
(384.614,-72,c),
(372.809,-46,o),
(386.801,-6,o),
(398.198,11,c)
);
}
);
};
layerId = "7E05DFED-BC11-4724-94EA-0D0C4C5F5B37";
shapes = (
{
closed = 1;
nodes = (
(739.207,-34,o),
(878.775,124,o),
(878.775,124,c),
(878.775,124,o),
(970.559,203,o),
(832.151,246,cs),
(705.143,286,o),
(635.757,214,o),
(635.757,214,c),
(604.363,187,o),
(517.369,157,o),
(478.967,165,cs),
(399.164,181,o),
(381.55,248,o),
(394.741,294,c),
(410.531,343,o),
(502.103,486,o),
(639.103,486,cs),
(727.103,486,o),
(716.919,405,o),
(716.919,405,c),
(716.919,405,o),
(725.531,343,o),
(816.933,335,cs),
(904.534,328,o),
(949.124,381,o),
(949.124,381,c),
(1024.902,490,o),
(909.07,651,o),
(643.07,651,cs),
(339.07,651,o),
(186.503,483,o),
(127.127,366,cs),
(62.952,240,o),
(110.791,44,o),
(417.999,5,cs)
);
},
{
closed = 1;
nodes = (
(541.646,-232,o),
(626.84,-201,o),
(629.425,-123,cs),
(630.216,-79,o),
(560.007,-35,o),
(541.406,-28,c),
(544.402,-8,o),
(533.998,10,o),
(531.397,17,c),
(531.397,17,o),
(515.791,44,o),
(474.991,45,cs),
(412.191,46,o),
(398.198,11,o),
(398.198,11,c),
(386.801,-6,o),
(372.809,-46,o),
(384.614,-72,c),
(380.417,-83,o),
(430.82,-101,o),
(443.22,-99,c),
(450.621,-107,o),
(461.023,-115,o),
(467.225,-124,c),
(466.625,-127,o),
(453.227,-134,o),
(431.026,-130,c),
(419.425,-123,o),
(410.423,-113,o),
(381.021,-105,c),
(381.021,-105,o),
(332.618,-92,o),
(293.223,-114,cs),
(239.229,-144,o),
(288.236,-179,o),
(288.236,-179,c),
(325.041,-205,o),
(370.045,-225,o),
(437.446,-228,cs)
);
}
);
width = 930;
},
{
anchors = (
{
name = bottom;
pos = (470,25);
},
{
name = top;
pos = (641,643);
}
);
background = {
anchors = (
{
name = bottom;
pos = (470,25);
},
{
name = top;
pos = (641,643);
}
);
shapes = (
{
closed = 1;
nodes = (
(804.969,155,o),
(827.966,170,o),
(853.168,161,cs),
(878.37,152,o),
(869.373,137,o),
(869.373,137,c),
(869.373,137,o),
(735.005,-25,o),
(431.198,11,cs),
(128.191,46,o),
(99.55,248,o),
(156.127,366,cs),
(210.503,483,o),
(402.27,652,o),
(663.07,651,cs),
(923.67,649,o),
(1019.498,508,o),
(947.518,408,c),
(947.518,408,o),
(939.72,399,o),
(919.32,402,cs),
(896.919,405,o),
(896.117,416,o),
(896.117,416,c),
(896.117,416,o),
(947.087,566,o),
(725.879,605,cs),
(503.471,643,o),
(206.314,432,o),
(203.945,275,cs),
(200.18,101,o),
(403.591,43,o),
(522.391,47,cs),
(641.99,50,o),
(763.579,103,o),
(804.969,155,c)
);
},
{
closed = 1;
nodes = (
(453.594,28,o),
(456.991,45,o),
(471.991,45,cs),
(486.991,45,o),
(486.594,28,o),
(486.594,28,c),
(488.598,8,o),
(486.803,-16,o),
(484.608,-42,c),
(578.411,-53,o),
(617.417,-83,o),
(616.426,-128,cs),
(612.841,-206,o),
(537.246,-229,o),
(432.446,-228,c),
(366.045,-225,o),
(322.041,-205,o),
(285.236,-179,c),
(285.236,-179,o),
(277.435,-173,o),
(290.833,-166,cs),
(304.032,-160,o),
(317.633,-167,o),
(317.633,-167,c),
(352.439,-193,o),
(399.641,-207,o),
(460.841,-206,c),
(553.84,-201,o),
(575.833,-166,o),
(575.624,-122,c),
(574.018,-90,o),
(540.415,-73,o),
(482.013,-65,c),
(452.813,-66,o),
(439.412,-58,o),
(444.41,-48,c),
(445.804,-21,o),
(448.799,4,o),
(453.594,28,c)
);
}
);
};
layerId = "99376340-70F9-4B1D-A253-B1BEDBF73140";
shapes = (
{
closed = 1;
nodes = (
(735.005,-25,o),
(869.373,137,o),
(869.373,137,c),
(869.373,137,o),
(878.37,152,o),
(853.168,161,cs),
(827.966,170,o),
(804.969,155,o),
(804.969,155,c),
(763.579,103,o),
(641.99,50,o),
(522.391,47,cs),
(403.591,43,o),
(200.18,101,o),
(203.945,275,cs),
(206.314,432,o),
(503.471,643,o),
(725.879,605,cs),
(947.087,566,o),
(896.117,416,o),
(896.117,416,c),
(896.117,416,o),
(896.919,405,o),
(919.32,402,cs),
(939.72,399,o),
(947.518,408,o),
(947.518,408,c),
(1019.498,508,o),
(923.67,649,o),
(663.07,651,cs),
(402.27,652,o),
(210.503,483,o),
(156.127,366,cs),
(99.55,248,o),
(128.191,46,o),
(431.198,11,cs)
);
},
{
closed = 1;
nodes = (
(537.246,-229,o),
(612.841,-206,o),
(616.426,-128,cs),
(617.417,-83,o),
(578.411,-53,o),
(484.608,-42,c),
(486.803,-16,o),
(488.598,8,o),
(486.594,28,c),
(486.594,28,o),
(486.991,45,o),
(471.991,45,cs),
(456.991,45,o),
(453.594,28,o),
(453.594,28,c),
(448.799,4,o),
(445.804,-21,o),
(444.41,-48,c),
(439.412,-58,o),
(452.813,-66,o),
(482.013,-65,c),
(540.415,-73,o),
(574.018,-90,o),
(575.624,-122,c),
(575.833,-166,o),
(553.84,-201,o),
(460.841,-206,c),
(399.641,-207,o),
(352.439,-193,o),
(317.633,-167,c),
(317.633,-167,o),
(304.032,-160,o),
(290.833,-166,cs),
(277.435,-173,o),
(285.236,-179,o),
(285.236,-179,c),
(322.041,-205,o),
(366.045,-225,o),
(432.446,-228,c)
);
}
);
width = 953;
},
{
anchors = (
{
name = bottom;
pos = (315,25);
},
{
name = top;
pos = (470,643);
}
);
background = {
anchors = (
{
name = bottom;
pos = (315,25);
},
{
name = top;
pos = (470,643);
}
);
shapes = (
{
closed = 1;
nodes = (
(437.757,214,o),
(489.143,286,o),
(571.151,246,cs),
(660.559,203,o),
(593.775,124,o),
(593.775,124,c),
(593.775,124,o),
(490.207,-34,o),
(278.999,5,cs),
(76.791,44,o),
(57.952,240,o),
(109.127,366,cs),
(156.503,483,o),
(269.07,651,o),
(472.07,651,cs),
(649.07,651,o),
(715.902,490,o),
(658.124,381,c),
(658.124,381,o),
(624.534,328,o),
(566.933,335,cs),
(506.531,343,o),
(504.919,405,o),
(504.919,405,c),
(504.919,405,o),
(517.103,486,o),
(458.103,486,cs),
(367.103,486,o),
(296.531,343,o),
(282.741,294,cs),
(270.55,248,o),
(278.164,181,o),
(329.967,165,cs),
(355.369,157,o),
(415.363,187,o),
(437.757,214,c)
);
},
{
closed = 1;
nodes = (
(266.198,11,o),
(278.191,46,o),
(319.991,45,cs),
(346.791,44,o),
(355.397,17,o),
(355.397,17,c),
(356.998,10,o),
(362.402,-8,o),
(359.406,-28,c),
(371.007,-35,o),
(415.216,-79,o),
(411.425,-123,cs),
(404.84,-201,o),
(345.646,-232,o),
(276.446,-228,cs),
(232.045,-225,o),
(203.041,-205,o),
(180.236,-179,c),
(180.236,-179,o),
(150.229,-144,o),
(188.223,-114,cs),
(215.618,-92,o),
(247.021,-105,o),
(247.021,-105,c),
(266.423,-113,o),
(271.425,-123,o),
(279.026,-130,c),
(293.227,-134,o),
(302.625,-127,o),
(303.225,-124,c),
(300.023,-115,o),
(293.621,-107,o),
(289.22,-99,c),
(280.82,-101,o),
(248.417,-83,o),
(251.614,-72,c),
(245.809,-46,o),
(257.801,-6,o),
(266.198,11,c)
);
}
);
};
layerId = "F94FFD99-753E-41E1-86D1-359C136D3DE6";
shapes = (
{
closed = 1;
nodes = (
(490.207,-34,o),
(593.775,124,o),
(593.775,124,c),
(593.775,124,o),
(660.559,203,o),
(571.151,246,cs),
(489.143,286,o),
(437.757,214,o),
(437.757,214,c),
(415.363,187,o),
(355.369,157,o),
(329.967,165,cs),
(278.164,181,o),
(270.55,248,o),
(282.741,294,cs),
(296.531,343,o),
(367.103,486,o),
(458.103,486,cs),
(517.103,486,o),
(504.919,405,o),
(504.919,405,c),
(504.919,405,o),
(506.531,343,o),
(566.933,335,cs),
(624.534,328,o),
(658.124,381,o),
(658.124,381,c),
(715.902,490,o),
(649.07,651,o),
(472.07,651,cs),
(269.07,651,o),
(156.503,483,o),
(109.127,366,cs),
(57.952,240,o),
(76.791,44,o),
(278.999,5,cs)
);
},
{
closed = 1;
nodes = (
(345.646,-232,o),
(404.84,-201,o),
(411.425,-123,cs),
(415.216,-79,o),
(371.007,-35,o),
(359.406,-28,c),
(362.402,-8,o),
(356.998,10,o),
(355.397,17,c),
(355.397,17,o),
(346.791,44,o),
(319.991,45,cs),
(278.191,46,o),
(266.198,11,o),
(266.198,11,c),
(257.801,-6,o),
(245.809,-46,o),
(251.614,-72,c),
(248.417,-83,o),
(280.82,-101,o),
(289.22,-99,c),
(293.621,-107,o),
(300.023,-115,o),
(303.225,-124,c),
(302.625,-127,o),
(293.227,-134,o),
(279.026,-130,c),
(271.425,-123,o),
(266.423,-113,o),
(247.021,-105,c),
(247.021,-105,o),
(215.618,-92,o),
(188.223,-114,cs),
(150.229,-144,o),
(180.236,-179,o),
(180.236,-179,c),
(203.041,-205,o),
(232.045,-225,o),
(276.446,-228,cs)
);
}
);
width = 620;
},
{
anchors = (
{
name = bottom;
pos = (316,25);
},
{
name = top;
pos = (470,643);
}
);
background = {
anchors = (
{
name = bottom;
pos = (316,25);
},
{
name = top;
pos = (470,643);
}
);
shapes = (
{
closed = 1;
nodes = (
(547.969,155,o),
(563.966,170,o),
(580.168,161,cs),
(596.37,152,o),
(589.373,137,o),
(589.373,137,c),
(589.373,137,o),
(489.005,-25,o),
(289.198,11,cs),
(89.191,46,o),
(83.55,248,o),
(129.127,366,cs),
(173.503,483,o),
(312.27,652,o),
(486.07,651,cs),
(659.67,649,o),
(714.498,508,o),
(659.518,408,c),
(659.518,408,o),
(653.72,399,o),
(640.32,402,cs),
(625.919,405,o),
(626.117,416,o),
(626.117,416,c),
(626.117,416,o),
(670.087,566,o),
(524.879,605,cs),
(379.471,643,o),
(167.314,432,o),
(154.945,275,cs),
(141.18,101,o),
(272.591,43,o),
(352.391,47,cs),
(431.99,50,o),
(516.579,103,o),
(547.969,155,c)
);
},
{
closed = 1;
nodes = (
(304.594,28,o),
(307.991,45,o),
(317.991,45,cs),
(327.991,45,o),
(326.594,28,o),
(326.594,28,c),
(326.598,8,o),
(323.803,-16,o),
(320.608,-42,c),
(382.411,-53,o),
(406.417,-83,o),
(402.426,-128,cs),
(394.841,-206,o),
(343.246,-229,o),
(273.446,-228,c),
(229.045,-225,o),
(201.041,-205,o),
(178.236,-179,c),
(178.236,-179,o),
(173.435,-173,o),
(182.833,-166,cs),
(192.032,-160,o),
(200.633,-167,o),
(200.633,-167,c),
(222.439,-193,o),
(252.641,-207,o),
(293.841,-206,c),
(355.84,-201,o),
(372.833,-166,o),
(375.624,-122,cs),
(377.018,-90,o),
(355.415,-73,o),
(317.013,-65,c),
(297.813,-66,o),
(289.412,-58,o),
(293.41,-48,c),
(295.804,-21,o),
(299.799,4,o),
(304.594,28,c)
);
}
);
};
layerId = "E82ED6F4-5586-4A54-A016-86253174F252";
shapes = (
{
closed = 1;
nodes = (
(489.005,-25,o),
(589.373,137,o),
(589.373,137,c),
(589.373,137,o),
(596.37,152,o),
(580.168,161,cs),
(563.966,170,o),
(547.969,155,o),
(547.969,155,c),
(516.579,103,o),
(431.99,50,o),
(352.391,47,cs),
(272.591,43,o),
(141.18,101,o),
(154.945,275,cs),
(167.314,432,o),
(379.471,643,o),
(524.879,605,cs),
(670.087,566,o),
(626.117,416,o),
(626.117,416,c),
(626.117,416,o),
(625.919,405,o),
(640.32,402,cs),
(653.72,399,o),
(659.518,408,o),
(659.518,408,c),
(714.498,508,o),
(659.67,649,o),
(486.07,651,cs),
(312.27,652,o),
(173.503,483,o),
(129.127,366,cs),
(83.55,248,o),
(89.191,46,o),
(289.198,11,cs)
);
},
{
closed = 1;
nodes = (
(343.246,-229,o),
(394.841,-206,o),
(402.426,-128,cs),
(406.417,-83,o),
(382.411,-53,o),
(320.608,-42,c),
(323.803,-16,o),
(326.598,8,o),
(326.594,28,c),
(326.594,28,o),
(327.991,45,o),
(317.991,45,cs),
(307.991,45,o),
(304.594,28,o),
(304.594,28,c),
(299.799,4,o),
(295.804,-21,o),
(293.41,-48,c),
(289.412,-58,o),
(297.813,-66,o),
(317.013,-65,c),
(355.415,-73,o),
(377.018,-90,o),
(375.624,-122,cs),
(372.833,-166,o),
(355.84,-201,o),
(293.841,-206,c),
(252.641,-207,o),
(222.439,-193,o),
(200.633,-167,c),
(200.633,-167,o),
(192.032,-160,o),
(182.833,-166,cs),
(173.435,-173,o),
(178.236,-179,o),
(178.236,-179,c),
(201.041,-205,o),
(229.045,-225,o),
(273.446,-228,c)
);
}
);
width = 635;
}
);
unicode = 199;
},
{
glyphname = Ccircumflex;
kernLeft = C2;
kernRight = C;
lastChange = "2024-07-18 12:46:04 +0000";
layers = (
{
anchors = (
{
name = bottom;
pos = (470,25);
}
);
background = {
anchors = (
{
name = bottom;
pos = (470,25);
},
{
name = top;
pos = (641,643);
}
);
shapes = (
{
closed = 1;
nodes = (
(635.757,214,o),
(705.143,286,o),
(832.151,246,cs),
(970.559,203,o),
(878.775,124,o),
(878.775,124,c),
(878.775,124,o),
(739.207,-34,o),
(417.999,5,cs),
(110.791,44,o),
(62.952,240,o),
(127.127,366,cs),
(186.503,483,o),
(339.07,651,o),
(643.07,651,cs),
(909.07,651,o),
(1024.902,490,o),
(949.124,381,c),
(949.124,381,o),
(904.534,328,o),
(816.933,335,cs),
(725.531,343,o),
(716.919,405,o),
(716.919,405,c),
(716.919,405,o),
(727.103,486,o),
(639.103,486,cs),
(502.103,486,o),
(410.531,343,o),
(394.741,294,c),
(381.55,248,o),
(399.164,181,o),
(478.967,165,cs),
(517.369,157,o),
(604.363,187,o),
(635.757,214,c)
);
},
{
closed = 1;
nodes = (
(446,753,o),
(405,715,o),
(470,681,cs),
(516,657,o),
(573,674,o),
(573,674,c),
(597,686,o),
(631,703,o),
(657,716,c),
(713,683,l),
(713,683,o),
(786,658,o),
(844,689,cs),
(930,733,o),
(855,780,o),
(855,780,c),
(744,832,l),
(701,857,o),
(621,852,o),
(591,837,c),
(518,805,o),
(492,789,o),
(446,753,c)
);
}
);
};
layerId = "7E05DFED-BC11-4724-94EA-0D0C4C5F5B37";
shapes = (
{
alignment = -1;
ref = C;
},
{
alignment = -1;
pos = (279,183);
ref = circumflex;
}
);
width = 930;
},
{
anchors = (
{
name = bottom;
pos = (470,25);
}
);
background = {
anchors = (
{
name = bottom;
pos = (470,25);
},
{
name = top;
pos = (641,643);
}
);
shapes = (
{
closed = 1;
nodes = (
(804.969,155,o),
(827.966,170,o),
(853.168,161,cs),
(878.37,152,o),
(869.373,137,o),
(869.373,137,c),
(869.373,137,o),
(735.005,-25,o),
(431.198,11,cs),
(128.191,46,o),
(99.55,248,o),
(156.127,366,cs),
(210.503,483,o),
(402.27,652,o),
(663.07,651,cs),
(923.67,649,o),
(1019.498,508,o),
(947.518,408,c),
(947.518,408,o),
(939.72,399,o),
(919.32,402,cs),
(896.919,405,o),
(896.117,416,o),
(896.117,416,c),
(896.117,416,o),
(947.087,566,o),
(725.879,605,cs),
(503.471,643,o),
(206.314,432,o),
(203.945,275,cs),
(200.18,101,o),
(403.591,43,o),
(522.391,47,cs),
(641.99,50,o),
(763.579,103,o),
(804.969,155,c)
);
},
{
closed = 1;
nodes = (
(465,714,o),
(449,700,o),
(466,693,cs),
(482,685,o),
(500,695,o),
(500,695,c),
(589,751,o),
(644,784,o),
(688,795,c),
(826,720,l),
(826,720,o),
(851,709,o),
(865,721,cs),
(880,733,o),
(867,743,o),
(867,743,c),
(726,817,l),
(697,831,o),
(668,828,o),
(640,814,c),
(572,782,o),
(510,749,o),
(465,714,c)
);
}
);
};
layerId = "99376340-70F9-4B1D-A253-B1BEDBF73140";
shapes = (
{
alignment = -1;
ref = C;
},
{
alignment = -1;
pos = (279,183);
ref = circumflex;
}
);
width = 953;
},
{
anchors = (
{
name = bottom;
pos = (315,25);
}
);
background = {
anchors = (
{
name = bottom;
pos = (315,25);
},
{
name = top;
pos = (470,643);
}
);
shapes = (
{
closed = 1;
nodes = (
(437.757,214,o),
(489.143,286,o),
(571.151,246,cs),
(660.559,203,o),
(593.775,124,o),
(593.775,124,c),
(593.775,124,o),
(490.207,-34,o),
(278.999,5,cs),
(76.791,44,o),
(57.952,240,o),
(109.127,366,cs),
(156.503,483,o),
(269.07,651,o),
(472.07,651,cs),
(649.07,651,o),
(715.902,490,o),
(658.124,381,c),
(658.124,381,o),
(624.534,328,o),
(566.933,335,cs),
(506.531,343,o),
(504.919,405,o),
(504.919,405,c),
(504.919,405,o),
(517.103,486,o),
(458.103,486,cs),
(367.103,486,o),
(296.531,343,o),
(282.741,294,cs),
(270.55,248,o),
(278.164,181,o),
(329.967,165,cs),
(355.369,157,o),
(415.363,187,o),
(437.757,214,c)
);
},
{
closed = 1;
nodes = (
(348,753,o),
(318,715,o),
(359,681,cs),
(388,657,o),
(427,674,o),
(427,674,c),
(444,686,o),
(468,703,o),
(486,716,c),
(521,683,l),
(521,683,o),
(568,658,o),
(609,689,cs),
(669,733,o),
(622,780,o),
(622,780,c),
(552,832,l),
(525,857,o),
(471,852,o),
(450,837,c),
(399,805,o),
(381,789,o),
(348,753,c)
);
}
);
};
layerId = "F94FFD99-753E-41E1-86D1-359C136D3DE6";
shapes = (
{
alignment = -1;
ref = C;
},
{
alignment = -1;
pos = (198,183);
ref = circumflex;
}
);
width = 620;
},
{
anchors = (
{
name = bottom;
pos = (315,25);
}
);
background = {
anchors = (
{
name = bottom;
pos = (315,25);
},
{
name = top;
pos = (471,643);
}
);
shapes = (
{
closed = 1;
nodes = (
(547.969,155,o),
(563.966,170,o),
(580.168,161,cs),
(596.37,152,o),
(589.373,137,o),
(589.373,137,c),
(589.373,137,o),
(489.005,-25,o),
(289.198,11,cs),
(89.191,46,o),
(83.55,248,o),
(129.127,366,cs),
(173.503,483,o),
(312.27,652,o),
(486.07,651,cs),
(659.67,649,o),
(714.498,508,o),
(659.518,408,c),
(659.518,408,o),
(653.72,399,o),
(640.32,402,cs),
(625.919,405,o),
(626.117,416,o),
(626.117,416,c),
(626.117,416,o),
(670.087,566,o),
(524.879,605,cs),
(379.471,643,o),
(167.314,432,o),
(154.945,275,cs),
(141.18,101,o),
(272.591,43,o),
(352.391,47,cs),
(431.99,50,o),
(516.579,103,o),
(547.969,155,c)
);
},
{
closed = 1;
nodes = (
(358,714,o),
(346,700,o),
(357,693,cs),
(367,685,o),
(380,695,o),
(380,695,c),
(443,751,o),
(482,784,o),
(512,795,c),
(599,720,l),
(599,720,o),
(615,709,o),
(625,721,cs),
(636,733,o),
(628,743,o),
(628,743,c),
(539,817,l),
(520,831,o),
(501,828,o),
(481,814,cs),
(434,782,o),
(390,749,o),
(358,714,c)
);
}
);
};
layerId = "E82ED6F4-5586-4A54-A016-86253174F252";
shapes = (
{
alignment = -1;
ref = C;
},
{
alignment = -1;
pos = (198,183);
ref = circumflex;
}
);
width = 635;
}
);
unicode = 264;
},
{
glyphname = Cdotaccent;
kernLeft = C2;
kernRight = C;
lastChange = "2024-07-18 12:46:04 +0000";
layers = (
{
anchors = (
{
name = bottom;
pos = (470,25);
}
);
background = {
anchors = (
{
name = bottom;
pos = (470,25);
},
{
name = top;
pos = (641,643);
}
);
shapes = (
{
closed = 1;
nodes = (
(635.757,214,o),
(705.143,286,o),
(832.151,246,cs),
(970.559,203,o),
(878.775,124,o),
(878.775,124,c),
(878.775,124,o),
(739.207,-34,o),
(417.999,5,cs),
(110.791,44,o),
(62.952,240,o),
(127.127,366,cs),
(186.503,483,o),
(339.07,651,o),
(643.07,651,cs),
(909.07,651,o),
(1024.902,490,o),
(949.124,381,c),
(949.124,381,o),
(904.534,328,o),
(816.933,335,cs),
(725.531,343,o),
(716.919,405,o),
(716.919,405,c),
(716.919,405,o),
(727.103,486,o),
(639.103,486,cs),
(502.103,486,o),
(410.531,343,o),
(394.741,294,c),
(381.55,248,o),
(399.164,181,o),
(478.967,165,cs),
(517.369,157,o),
(604.363,187,o),
(635.757,214,c)
);
},
{
closed = 1;
nodes = (
(805,687,o),
(732,664,o),
(647,664,cs),
(563,664,o),
(503,703,o),
(512,751,cs),
(522,799,o),
(598,838,o),
(682,838,cs),
(767,838,o),
(827,799,o),
(817,751,cs)
);
}
);
};
layerId = "7E05DFED-BC11-4724-94EA-0D0C4C5F5B37";
shapes = (
{
alignment = -1;
ref = C;
},
{
alignment = -1;
pos = (323,183);
ref = dotaccent;
}
);
width = 930;
},
{
anchors = (
{
name = bottom;
pos = (470,25);
}
);
background = {
anchors = (
{
name = bottom;
pos = (470,25);
},
{
name = top;
pos = (641,643);
}
);
shapes = (
{
closed = 1;
nodes = (
(804.969,155,o),
(827.966,170,o),
(853.168,161,cs),
(878.37,152,o),
(869.373,137,o),
(869.373,137,c),
(869.373,137,o),
(735.005,-25,o),
(431.198,11,cs),
(128.191,46,o),
(99.55,248,o),
(156.127,366,cs),
(210.503,483,o),
(402.27,652,o),
(663.07,651,cs),
(923.67,649,o),
(1019.498,508,o),
(947.518,408,c),
(947.518,408,o),
(939.72,399,o),
(919.32,402,cs),
(896.919,405,o),
(896.117,416,o),
(896.117,416,c),
(896.117,416,o),
(947.087,566,o),
(725.879,605,cs),
(503.471,643,o),
(206.314,432,o),
(203.945,275,cs),
(200.18,101,o),
(403.591,43,o),
(522.391,47,cs),
(641.99,50,o),
(763.579,103,o),
(804.969,155,c)
);
},
{
closed = 1;
nodes = (
(712,732,o),
(686,719,o),
(659,719,cs),
(632,719,o),
(614,732,o),
(617,747,cs),
(620,763,o),
(643,776,o),
(670,776,cs),
(697,776,o),
(718,763,o),
(715,747,cs)
);
}
);
};
layerId = "99376340-70F9-4B1D-A253-B1BEDBF73140";
shapes = (
{
alignment = -1;
ref = C;
},
{
alignment = -1;
pos = (428,183);
ref = dotaccent;
}
);
width = 953;
},
{
anchors = (
{
name = bottom;
pos = (315,25);
}
);
background = {
anchors = (
{
name = bottom;
pos = (315,25);
},
{
name = top;
pos = (470,643);
}
);
shapes = (
{
closed = 1;
nodes = (
(437.757,214,o),
(489.143,286,o),
(571.151,246,cs),
(660.559,203,o),
(593.775,124,o),
(593.775,124,c),
(593.775,124,o),
(490.207,-34,o),
(278.999,5,cs),
(76.791,44,o),
(57.952,240,o),
(109.127,366,cs),
(156.503,483,o),
(269.07,651,o),
(472.07,651,cs),
(649.07,651,o),
(715.902,490,o),
(658.124,381,c),
(658.124,381,o),
(624.534,328,o),
(566.933,335,cs),
(506.531,343,o),
(504.919,405,o),
(504.919,405,c),
(504.919,405,o),
(517.103,486,o),
(458.103,486,cs),
(367.103,486,o),
(296.531,343,o),
(282.741,294,cs),
(270.55,248,o),
(278.164,181,o),
(329.967,165,cs),
(355.369,157,o),
(415.363,187,o),
(437.757,214,c)
);
},
{
closed = 1;
nodes = (
(583,687,o),
(533,664,o),
(476,664,cs),
(420,664,o),
(383,703,o),
(392,751,cs),
(402,799,o),
(455,838,o),
(511,838,cs),
(568,838,o),
(605,799,o),
(595,751,cs)
);
}
);
};
layerId = "F94FFD99-753E-41E1-86D1-359C136D3DE6";
shapes = (
{
alignment = -1;
ref = C;
},
{
alignment = -1;
pos = (228,183);
ref = dotaccent;
}
);
width = 620;
},
{
anchors = (
{
name = bottom;
pos = (315,25);
}
);
background = {
anchors = (
{
name = bottom;
pos = (315,25);
},
{
name = top;
pos = (471,643);
}
);
shapes = (
{
closed = 1;
nodes = (
(547.969,155,o),
(563.966,170,o),
(580.168,161,cs),
(596.37,152,o),
(589.373,137,o),
(589.373,137,c),
(589.373,137,o),
(489.005,-25,o),
(289.198,11,cs),
(89.191,46,o),
(83.55,248,o),
(129.127,366,cs),
(173.503,483,o),
(312.27,652,o),
(486.07,651,cs),
(659.67,649,o),
(714.498,508,o),
(659.518,408,c),
(659.518,408,o),
(653.72,399,o),
(640.32,402,cs),
(625.919,405,o),
(626.117,416,o),
(626.117,416,c),
(626.117,416,o),
(670.087,566,o),
(524.879,605,cs),
(379.471,643,o),
(167.314,432,o),
(154.945,275,cs),
(141.18,101,o),
(272.591,43,o),
(352.391,47,cs),
(431.99,50,o),
(516.579,103,o),
(547.969,155,c)
);
},
{
closed = 1;
nodes = (
(524,732,o),
(506,719,o),
(488,719,cs),
(470,719,o),
(459,732,o),
(462,747,cs),
(465,763,o),
(481,776,o),
(499,776,cs),
(517,776,o),
(530,763,o),
(527,747,cs)
);
}
);
};
layerId = "E82ED6F4-5586-4A54-A016-86253174F252";
shapes = (
{
alignment = -1;
ref = C;
},
{
alignment = -1;
pos = (298,183);
ref = dotaccent;
}
);
width = 635;
}
);
unicode = 266;
},
{
glyphname = D;
kernLeft = H1;
kernRight = C;
lastChange = "2024-07-18 13:22:01 +0000";
layers = (
{
anchors = (
{
name = top;
pos = (606,643);
}
);
background = {
anchors = (
{
name = top;
pos = (606,643);
}
);
shapes = (
{
closed = 1;
nodes = (
(459,-9,o),
(673,8,o),
(814,101,c),
(980,214,o),
(1028,343,o),
(947,493,c),
(872,571,o),
(783,652,o),
(479,651,c),
(300,651,o),
(191,635,o),
(172,564,c),
(123,413,o),
(93,252,o),
(76,85,c),
(87,41,o),
(134,2,o),
(248,-2,cs)
);
},
{
closed = 1;
nodes = (
(388,285,o),
(408,386,o),
(434,483,c),
(598,496,o),
(701,464,o),
(685,332,c),
(657,231,o),
(575,169,o),
(371,180,c)
);
}
);
};
layerId = "7E05DFED-BC11-4724-94EA-0D0C4C5F5B37";
shapes = (
{
closed = 1;
nodes = (
(459,-9,o),
(673,8,o),
(814,101,c),
(980,214,o),
(1028,343,o),
(947,493,c),
(872,571,o),
(783,652,o),
(479,651,c),
(300,651,o),
(191,635,o),
(172,564,c),
(123,413,o),
(93,252,o),
(76,85,c),
(87,41,o),
(134,2,o),
(248,-2,cs)
);
},
{
closed = 1;
nodes = (
(388,285,o),
(408,386,o),
(434,483,c),
(598,496,o),
(701,464,o),
(685,332,c),
(657,231,o),
(575,169,o),
(371,180,c)
);
}
);
width = 964;
},
{
anchors = (
{
name = top;
pos = (606,643);
}
);
background = {
anchors = (
{
name = top;
pos = (606,643);
}
);
shapes = (
{
closed = 1;
nodes = (
(412,-2,o),
(614,13,o),
(755,106,c),
(910,220,o),
(968,348,o),
(887,498,c),
(813,576,o),
(734,652,o),
(429,651,cs),
(293,652,o),
(203,644,o),
(200,619,c),
(160,421,o),
(120,222,o),
(81,24,c),
(92,6,o),
(133,-2,o),
(199,-2,cs)
);
},
{
closed = 1;
nodes = (
(194,238,o),
(231,428,o),
(280,609,c),
(641,633,o),
(872,574,o),
(846,326,c),
(793,137,o),
(612,22,o),
(165,42,c)
);
}
);
};
layerId = "99376340-70F9-4B1D-A253-B1BEDBF73140";
shapes = (
{
closed = 1;
nodes = (
(412,-2,o),
(614,13,o),
(755,106,c),
(910,220,o),
(968,348,o),
(887,498,c),
(813,576,o),
(734,652,o),
(429,651,cs),
(293,652,o),
(203,644,o),
(200,619,c),
(160,421,o),
(120,222,o),
(81,24,c),
(92,6,o),
(133,-2,o),
(199,-2,cs)
);
},
{
closed = 1;
nodes = (
(194,238,o),
(231,428,o),
(280,609,c),
(641,633,o),
(872,574,o),
(846,326,c),
(793,137,o),
(612,22,o),
(165,42,c)
);
}
);
width = 930;
},
{
anchors = (
{
name = top;
pos = (447,643);
}
);
background = {
anchors = (
{
name = top;
pos = (447,643);
}
);
shapes = (
{
closed = 1;
nodes = (
(306,-9,o),
(450,8,o),
(550,101,c),
(668,214,o),
(709,343,o),
(665,493,c),
(620,571,o),
(566,652,o),
(363,651,c),
(244,651,o),
(170,635,o),
(153,564,c),
(110,413,o),
(79,252,o),
(57,85,c),
(61,41,o),
(90,2,o),
(166,-2,cs)
);
},
{
closed = 1;
nodes = (
(278,285,o),
(298,386,o),
(322,483,c),
(432,496,o),
(499,464,o),
(479,332,c),
(454,231,o),
(395,169,o),
(260,180,c)
);
}
);
};
layerId = "F94FFD99-753E-41E1-86D1-359C136D3DE6";
shapes = (
{
closed = 1;
nodes = (
(306,-9,o),
(450,8,o),
(550,101,c),
(668,214,o),
(709,343,o),
(665,493,c),
(620,571,o),
(566,652,o),
(363,651,c),
(244,651,o),
(170,635,o),
(153,564,c),
(110,413,o),
(79,252,o),
(57,85,c),
(61,41,o),
(90,2,o),
(166,-2,cs)
);
},
{
closed = 1;
nodes = (
(278,285,o),
(298,386,o),
(322,483,c),
(432,496,o),
(499,464,o),
(479,332,c),
(454,231,o),
(395,169,o),
(260,180,c)
);
}
);
width = 643;
},
{
anchors = (
{
name = top;
pos = (447,643);
}
);
background = {
anchors = (
{
name = top;
pos = (447,643);
}
);
shapes = (
{
closed = 1;
nodes = (
(275,-2,o),
(411,13,o),
(511,106,c),
(622,220,o),
(669,348,o),
(625,498,c),
(581,576,o),
(533,652,o),
(330,651,cs),
(239,652,o),
(179,644,o),
(175,619,c),
(135,421,o),
(95,222,o),
(56,24,c),
(62,6,o),
(89,-2,o),
(133,-2,cs)
);
},
{
closed = 1;
nodes = (
(146,238,o),
(183,428,o),
(228,609,c),
(470,633,o),
(620,574,o),
(586,326,c),
(538,137,o),
(410,22,o),
(113,42,c)
);
}
);
};
layerId = "E82ED6F4-5586-4A54-A016-86253174F252";
shapes = (
{
closed = 1;
nodes = (
(275,-2,o),
(411,13,o),
(511,106,c),
(622,220,o),
(669,348,o),
(625,498,c),
(581,576,o),
(533,652,o),
(330,651,cs),
(239,652,o),
(179,644,o),
(175,619,c),
(135,421,o),
(95,222,o),
(56,24,c),
(62,6,o),
(89,-2,o),
(133,-2,cs)
);
},
{
closed = 1;
nodes = (
(146,238,o),
(183,428,o),
(228,609,c),
(470,633,o),
(620,574,o),
(586,326,c),
(538,137,o),
(410,22,o),
(113,42,c)
);
}
);
width = 621;
}
);
unicode = 68;
},
{
glyphname = Dcaron;
kernLeft = H1;
kernRight = C;
lastChange = "2024-07-18 12:46:04 +0000";
layers = (
{
background = {
anchors = (
{
name = top;
pos = (606,643);
}
);
shapes = (
{
closed = 1;
nodes = (
(459,-9,o),
(673,8,o),
(814,101,c),
(980,214,o),
(1028,343,o),
(947,493,c),
(872,571,o),
(783,652,o),
(479,651,c),
(300,651,o),
(191,635,o),
(172,564,c),
(123,413,o),
(93,252,o),
(76,85,c),
(87,41,o),
(134,2,o),
(248,-2,cs)
);
},
{
closed = 1;
nodes = (
(388,285,o),
(408,386,o),
(434,483,c),
(598,496,o),
(701,464,o),
(685,332,c),
(657,231,o),
(575,169,o),
(371,180,c)
);
},
{
closed = 1;
nodes = (
(847,757,o),
(889,795,o),
(824,829,cs),
(779,853,o),
(721,836,o),
(721,836,c),
(697,824,o),
(662,808,o),
(637,794,c),
(581,827,l),
(581,827,o),
(509,852,o),
(448,821,cs),
(364,777,o),
(439,730,o),
(439,730,c),
(549,679,l),
(592,653,o),
(674,658,o),
(704,673,c),
(776,705,o),
(802,721,o),
(847,757,c)
);
}
);
};
layerId = "7E05DFED-BC11-4724-94EA-0D0C4C5F5B37";
shapes = (
{
alignment = -1;
ref = D;
},
{
alignment = -1;
pos = (244,183);
ref = caron;
}
);
width = 964;
},
{
background = {
anchors = (
{
name = top;
pos = (606,643);
}
);
shapes = (
{
closed = 1;
nodes = (
(412,-2,o),
(614,13,o),
(755,106,c),
(910,220,o),
(968,348,o),
(887,498,c),
(813,576,o),
(734,652,o),
(429,651,cs),
(293,652,o),
(203,644,o),
(200,619,c),
(160,421,o),
(120,222,o),
(81,24,c),
(92,6,o),
(133,-2,o),
(199,-2,cs)
);
},
{
closed = 1;
nodes = (
(194,238,o),
(231,428,o),
(280,609,c),
(641,633,o),
(872,574,o),
(846,326,c),
(793,137,o),
(612,22,o),
(165,42,c)
);
},
{
closed = 1;
nodes = (
(847,803,o),
(864,817,o),
(847,825,cs),
(831,832,o),
(812,822,o),
(812,822,c),
(722,766,o),
(668,733,o),
(624,722,c),
(486,798,l),
(486,798,o),
(461,808,o),
(446,796,cs),
(432,785,o),
(445,774,o),
(445,774,c),
(586,700,l),
(616,687,o),
(644,689,o),
(673,703,cs),
(740,736,o),
(803,769,o),
(847,803,c)
);
}
);
};
layerId = "99376340-70F9-4B1D-A253-B1BEDBF73140";
shapes = (
{
alignment = -1;
ref = D;
},
{
alignment = -1;
pos = (244,183);
ref = caron;
}
);
width = 930;
},
{
background = {
anchors = (
{
name = top;
pos = (447,643);
}
);
shapes = (
{
closed = 1;
nodes = (
(306,-9,o),
(450,8,o),
(550,101,c),
(668,214,o),
(709,343,o),
(665,493,c),
(620,571,o),
(566,652,o),
(363,651,c),
(244,651,o),
(170,635,o),
(153,564,c),
(110,413,o),
(79,252,o),
(57,85,c),
(61,41,o),
(90,2,o),
(166,-2,cs)
);
},
{
closed = 1;
nodes = (
(278,285,o),
(298,386,o),
(322,483,c),
(432,496,o),
(499,464,o),
(479,332,c),
(454,231,o),
(395,169,o),
(260,180,c)
);
},
{
closed = 1;
nodes = (
(616,757,o),
(646,795,o),
(605,829,cs),
(577,853,o),
(537,836,o),
(537,836,c),
(520,824,o),
(496,808,o),
(478,794,c),
(443,827,l),
(443,827,o),
(397,852,o),
(354,821,cs),
(295,777,o),
(342,730,o),
(342,730,c),
(412,679,l),
(439,653,o),
(494,658,o),
(515,673,c),
(565,705,o),
(583,721,o),
(616,757,c)
);
}
);
};
layerId = "F94FFD99-753E-41E1-86D1-359C136D3DE6";
shapes = (
{
alignment = -1;
ref = D;
},
{
alignment = -1;
pos = (175,183);
ref = caron;
}
);
width = 643;
},
{
background = {
anchors = (
{
name = top;
pos = (447,643);
}
);
shapes = (
{
closed = 1;
nodes = (
(275,-2,o),
(411,13,o),
(511,106,c),
(622,220,o),
(669,348,o),
(625,498,c),
(581,576,o),
(533,652,o),
(330,651,cs),
(239,652,o),
(179,644,o),
(175,619,c),
(135,421,o),
(95,222,o),
(56,24,c),
(62,6,o),
(89,-2,o),
(133,-2,cs)
);
},
{
closed = 1;
nodes = (
(146,238,o),
(183,428,o),
(228,609,c),
(470,633,o),
(620,574,o),
(586,326,c),
(538,137,o),
(410,22,o),
(113,42,c)
);
},
{
closed = 1;
nodes = (
(619,803,o),
(631,817,o),
(620,825,cs),
(610,832,o),
(597,822,o),
(597,822,c),
(533,766,o),
(495,733,o),
(465,722,c),
(378,798,l),
(378,798,o),
(362,808,o),
(351,796,cs),
(341,785,o),
(349,774,o),
(349,774,c),
(438,700,l),
(457,687,o),
(476,689,o),
(496,703,cs),
(543,736,o),
(587,769,o),
(619,803,c)
);
}
);
};
layerId = "E82ED6F4-5586-4A54-A016-86253174F252";
shapes = (
{
alignment = -1;
ref = D;
},
{
alignment = -1;
pos = (175,183);
ref = caron;
}
);
width = 621;
}
);
unicode = 270;
},
{
color = (153,255,154,255);
glyphname = Dcroat;
kernLeft = H1;
kernRight = C;
lastChange = "2024-07-18 13:22:01 +0000";
layers = (
{
anchors = (
{
name = top;
pos = (606,643);
}
);
background = {
anchors = (
{
name = top;
pos = (606,643);
}
);
shapes = (
{
closed = 1;
nodes = (
(872,571,o),
(783,652,o),
(479,651,c),
(300,651,o),
(191,635,o),
(172,564,c),
(123,413,o),
(93,252,o),
(76,85,c),
(87,41,o),
(134,2,o),
(248,-2,cs),
(459,-9,o),
(673,8,o),
(814,101,c),
(980,214,o),
(1028,343,o),
(947,493,c)
);
},
{
closed = 1;
nodes = (
(388,285,o),
(408,386,o),
(434,483,c),
(598,496,o),
(701,464,o),
(685,332,c),
(657,231,o),
(575,169,o),
(371,180,c)
);
},
{
closed = 1;
nodes = (
(70,379,o),
(2,366,o),
(18,313,cs),
(32,263,o),
(117,268,o),
(117,268,c),
(261,274,o),
(318,271,o),
(491,263,c),
(491,263,o),
(582,267,o),
(594,327,cs),
(604,373,o),
(512,394,o),
(512,394,c),
(348,412,o),
(170,394,o),
(70,379,c)
);
}
);
};
layerId = "7E05DFED-BC11-4724-94EA-0D0C4C5F5B37";
shapes = (
{
closed = 1;
nodes = (
(459,-9,o),
(673,8,o),
(814,101,c),
(980,214,o),
(1028,343,o),
(947,493,c),
(872,571,o),
(783,652,o),
(479,651,c),
(300,651,o),
(191,635,o),
(172,564,c),
(123,413,o),
(93,252,o),
(76,85,c),
(87,41,o),
(134,2,o),
(248,-2,cs)
);
},
{
closed = 1;
nodes = (
(491,263,o),
(582,267,o),
(594,327,cs),
(604,373,o),
(512,394,o),
(512,394,c),
(348,412,o),
(170,394,o),
(70,379,c),
(70,379,o),
(2,366,o),
(18,313,cs),
(32,263,o),
(117,268,o),
(117,268,c),
(261,274,o),
(318,271,o),
(491,263,c)
);
},
{
closed = 1;
nodes = (
(388,285,o),
(408,386,o),
(434,483,c),
(598,496,o),
(701,464,o),
(685,332,c),
(657,231,o),
(575,169,o),
(371,180,c)
);
}
);
width = 964;
},
{
anchors = (
{
name = top;
pos = (606,643);
}
);
background = {
anchors = (
{
name = top;
pos = (606,643);
}
);
shapes = (
{
closed = 1;
nodes = (
(813,576,o),
(734,652,o),
(429,651,cs),
(293,652,o),
(203,644,o),
(200,619,c),
(160,421,o),
(121,222,o),
(81,24,c),
(92,6,o),
(133,-2,o),
(199,-2,cs),
(412,-2,o),
(614,13,o),
(755,106,c),
(910,220,o),
(968,348,o),
(887,498,c)
);
},
{
closed = 1;
nodes = (
(194,238,o),
(231,428,o),
(280,609,c),
(641,633,o),
(872,574,o),
(846,326,c),
(793,137,o),
(612,22,o),
(165,42,c)
);
},
{
closed = 1;
nodes = (
(0,332,o),
(-31,326,o),
(-26,311,c),
(-23,295,o),
(12,298,o),
(12,298,c),
(212,309,o),
(266,309,o),
(474,300,c),
(474,300,o),
(507,298,o),
(515,316,cs),
(523,334,o),
(481,340,o),
(481,340,c),
(265,353,o),
(204,352,o),
(0,332,c)
);
}
);
};
layerId = "99376340-70F9-4B1D-A253-B1BEDBF73140";
shapes = (
{
closed = 1;
nodes = (
(412,-2,o),
(614,13,o),
(755,106,c),
(910,220,o),
(968,348,o),
(887,498,c),
(813,576,o),
(734,652,o),
(429,651,cs),
(293,652,o),
(203,644,o),
(200,619,c),
(160,421,o),
(121,222,o),
(81,24,c),
(92,6,o),
(133,-2,o),
(199,-2,cs)
);
},
{
closed = 1;
nodes = (
(212,309,o),
(266,309,o),
(474,300,c),
(474,300,o),
(507,298,o),
(515,316,cs),
(523,334,o),
(481,340,o),
(481,340,c),
(265,353,o),
(204,352,o),
(0,332,c),
(0,332,o),
(-31,326,o),
(-26,311,c),
(-23,295,o),
(12,298,o),
(12,298,c)
);
},
{
closed = 1;
nodes = (
(194,238,o),
(231,428,o),
(280,609,c),
(641,633,o),
(872,574,o),
(846,326,c),
(793,137,o),
(612,22,o),
(165,42,c)
);
}
);
width = 930;
},
{
anchors = (
{
name = top;
pos = (447,643);
}
);
background = {
anchors = (
{
name = top;
pos = (447,643);
}
);
shapes = (
{
closed = 1;
nodes = (
(620,571,o),
(566,652,o),
(363,651,c),
(244,651,o),
(170,635,o),
(153,564,c),
(110,413,o),
(79,252,o),
(57,85,c),
(61,41,o),
(90,2,o),
(166,-2,cs),
(306,-9,o),
(450,8,o),
(550,101,c),
(668,214,o),
(709,343,o),
(665,493,c)
);
},
{
closed = 1;
nodes = (
(278,285,o),
(298,386,o),
(322,483,c),
(432,496,o),
(499,464,o),
(479,332,c),
(454,231,o),
(395,169,o),
(260,180,c)
);
},
{
closed = 1;
nodes = (
(57,371,o),
(13,358,o),
(19,306,cs),
(25,257,o),
(81,262,o),
(81,262,c),
(176,268,o),
(213,265,o),
(325,257,c),
(325,257,o),
(385,261,o),
(397,320,cs),
(406,364,o),
(347,386,o),
(347,386,c),
(242,403,o),
(124,386,o),
(57,371,c)
);
}
);
};
layerId = "F94FFD99-753E-41E1-86D1-359C136D3DE6";
shapes = (
{
closed = 1;
nodes = (
(306,-9,o),
(450,8,o),
(550,101,c),
(668,214,o),
(709,343,o),
(665,493,c),
(620,571,o),
(566,652,o),
(363,651,c),
(244,651,o),
(170,635,o),
(153,564,c),
(110,413,o),
(79,252,o),
(57,85,c),
(61,41,o),
(90,2,o),
(166,-2,cs)
);
},
{
closed = 1;
nodes = (
(325,257,o),
(385,261,o),
(397,320,cs),
(406,364,o),
(347,386,o),
(347,386,c),
(242,403,o),
(124,386,o),
(57,371,c),
(57,371,o),
(13,358,o),
(19,306,cs),
(25,257,o),
(81,262,o),
(81,262,c),
(176,268,o),
(213,265,o),
(325,257,c)
);
},
{
closed = 1;
nodes = (
(278,285,o),
(298,386,o),
(322,483,c),
(432,496,o),
(499,464,o),
(479,332,c),
(454,231,o),
(395,169,o),
(260,180,c)
);
}
);
width = 643;
},
{
anchors = (
{
name = top;
pos = (447,643);
}
);
background = {
anchors = (
{
name = top;
pos = (447,643);
}
);
shapes = (
{
closed = 1;
nodes = (
(581,576,o),
(533,652,o),
(330,651,cs),
(239,652,o),
(179,644,o),
(175,619,c),
(135,421,o),
(96,222,o),
(56,24,c),
(62,6,o),
(89,-2,o),
(133,-2,cs),
(275,-2,o),
(411,13,o),
(511,106,c),
(622,220,o),
(669,348,o),
(625,498,c)
);
},
{
closed = 1;
nodes = (
(146,238,o),
(183,428,o),
(228,609,c),
(470,633,o),
(620,574,o),
(586,326,c),
(538,137,o),
(410,22,o),
(113,42,c)
);
},
{
closed = 1;
nodes = (
(6,333,o),
(-16,327,o),
(-14,312,c),
(-13,296,o),
(11,299,o),
(11,299,c),
(145,310,o),
(181,310,o),
(319,301,c),
(319,301,o),
(341,299,o),
(347,317,cs),
(354,335,o),
(326,341,o),
(326,341,c),
(183,354,o),
(143,353,o),
(6,333,c)
);
}
);
};
layerId = "E82ED6F4-5586-4A54-A016-86253174F252";
shapes = (
{
closed = 1;
nodes = (
(275,-2,o),
(411,13,o),
(511,106,c),
(622,220,o),
(669,348,o),
(625,498,c),
(581,576,o),
(533,652,o),
(330,651,cs),
(239,652,o),
(179,644,o),
(175,619,c),
(135,421,o),
(96,222,o),
(56,24,c),
(62,6,o),
(89,-2,o),
(133,-2,cs)
);
},
{
closed = 1;
nodes = (
(145,310,o),
(181,310,o),
(319,301,c),
(319,301,o),
(341,299,o),
(347,317,cs),
(354,335,o),
(326,341,o),
(326,341,c),
(183,354,o),
(143,353,o),
(6,333,c),
(6,333,o),
(-16,327,o),
(-14,312,c),
(-13,296,o),
(11,299,o),
(11,299,c)
);
},
{
closed = 1;
nodes = (
(146,238,o),
(183,428,o),
(228,609,c),
(470,633,o),
(620,574,o),
(586,326,c),
(538,137,o),
(410,22,o),
(113,42,c)
);
}
);
width = 621;
}
);
unicode = 272;
},
{
glyphname = Eth;
kernLeft = H1;
kernRight = C;
lastChange = "2024-07-18 12:46:04 +0000";
layers = (
{
anchors = (
{
name = top;
pos = (606,643);
}
);
background = {
anchors = (
{
name = top;
pos = (606,643);
}
);
shapes = (
{
closed = 1;
nodes = (
(459,-9,o),
(673,8,o),
(814,101,c),
(980,214,o),
(1028,343,o),
(947,493,c),
(872,571,o),
(783,652,o),
(479,651,c),
(300,651,o),
(191,635,o),
(172,564,c),
(123,413,o),
(93,252,o),
(76,85,c),
(87,41,o),
(134,2,o),
(248,-2,cs)
);
},
{
closed = 1;
nodes = (
(388,285,o),
(408,386,o),
(434,483,c),
(598,496,o),
(701,464,o),
(685,332,c),
(657,231,o),
(575,169,o),
(371,180,c)
);
},
{
closed = 1;
nodes = (
(69,379,o),
(2,366,o),
(17,313,cs),
(31,263,o),
(117,268,o),
(117,268,c),
(261,274,o),
(318,271,o),
(491,263,c),
(491,263,o),
(582,267,o),
(594,327,cs),
(603,373,o),
(512,394,o),
(512,394,c),
(349,412,o),
(169,394,o),
(69,379,c)
);
}
);
};
layerId = "7E05DFED-BC11-4724-94EA-0D0C4C5F5B37";
shapes = (
{
alignment = -1;
ref = D;
},
{
alignment = -1;
pos = (-75,68);
ref = hyphen;
scale = (0.83,0.83);
}
);
width = 964;
},
{
anchors = (
{
name = top;
pos = (606,643);
}
);
background = {
anchors = (
{
name = top;
pos = (606,643);
}
);
shapes = (
{
closed = 1;
nodes = (
(412,-2,o),
(614,13,o),
(755,106,c),
(910,220,o),
(968,348,o),
(887,498,c),
(813,576,o),
(734,652,o),
(429,651,cs),
(293,652,o),
(203,644,o),
(200,619,c),
(160,421,o),
(120,222,o),
(81,24,c),
(92,6,o),
(133,-2,o),
(199,-2,cs)
);
},
{
closed = 1;
nodes = (
(194,238,o),
(231,428,o),
(280,609,c),
(641,633,o),
(872,574,o),
(846,326,c),
(793,137,o),
(612,22,o),
(165,42,c)
);
},
{
closed = 1;
nodes = (
(1,332,o),
(-31,326,o),
(-26,311,c),
(-23,295,o),
(12,298,o),
(12,298,c),
(212,309,o),
(266,309,o),
(474,300,c),
(474,300,o),
(507,298,o),
(515,316,cs),
(523,334,o),
(481,340,o),
(481,340,c),
(264,353,o),
(204,352,o),
(1,332,c)
);
}
);
};
layerId = "99376340-70F9-4B1D-A253-B1BEDBF73140";
shapes = (
{
alignment = -1;
ref = D;
},
{
alignment = -1;
pos = (-164,4);
ref = hyphen;
}
);
width = 930;
},
{
anchors = (
{
name = top;
pos = (447,643);
}
);
background = {
anchors = (
{
name = top;
pos = (447,643);
}
);
shapes = (
{
closed = 1;
nodes = (
(306,-9,o),
(450,8,o),
(550,101,c),
(668,214,o),
(709,343,o),
(665,493,c),
(620,571,o),
(566,652,o),
(363,651,c),
(244,651,o),
(170,635,o),
(153,564,c),
(110,413,o),
(79,252,o),
(57,85,c),
(61,41,o),
(90,2,o),
(166,-2,cs)
);
},
{
closed = 1;
nodes = (
(278,285,o),
(298,386,o),
(322,483,c),
(432,496,o),
(499,464,o),
(479,332,c),
(454,231,o),
(395,169,o),
(260,180,c)
);
},
{
closed = 1;
nodes = (
(57,371,o),
(13,358,o),
(19,306,cs),
(25,257,o),
(81,262,o),
(81,262,c),
(176,268,o),
(213,265,o),
(325,257,c),
(325,257,o),
(385,261,o),
(397,320,cs),
(406,364,o),
(347,386,o),
(347,386,c),
(242,403,o),
(124,386,o),
(57,371,c)
);
}
);
};
layerId = "F94FFD99-753E-41E1-86D1-359C136D3DE6";
shapes = (
{
alignment = -1;
ref = D;
},
{
alignment = -1;
pos = (-58,66);
ref = hyphen;
scale = (0.813,0.813);
}
);
width = 643;
},
{
anchors = (
{
name = top;
pos = (447,643);
}
);
background = {
anchors = (
{
name = top;
pos = (447,643);
}
);
shapes = (
{
closed = 1;
nodes = (
(275,-2,o),
(411,13,o),
(511,106,c),
(622,220,o),
(669,348,o),
(625,498,c),
(581,576,o),
(533,652,o),
(330,651,cs),
(239,652,o),
(179,644,o),
(175,619,c),
(135,421,o),
(95,222,o),
(56,24,c),
(62,6,o),
(89,-2,o),
(133,-2,cs)
);
},
{
closed = 1;
nodes = (
(146,238,o),
(183,428,o),
(228,609,c),
(470,633,o),
(620,574,o),
(586,326,c),
(538,137,o),
(410,22,o),
(113,42,c)
);
},
{
closed = 1;
nodes = (
(6,333,o),
(-16,327,o),
(-14,312,c),
(-13,296,o),
(11,299,o),
(11,299,c),
(145,310,o),
(181,310,o),
(319,301,c),
(319,301,o),
(341,299,o),
(347,317,cs),
(354,335,o),
(326,341,o),
(326,341,c),
(183,354,o),
(143,353,o),
(6,333,c)
);
}
);
};
layerId = "E82ED6F4-5586-4A54-A016-86253174F252";
shapes = (
{
alignment = -1;
ref = D;
},
{
alignment = -1;
pos = (-126,5);
ref = hyphen;
}
);
width = 621;
}
);
unicode = 208;
},
{
glyphname = E;
kernLeft = H1;
kernRight = E;
lastChange = "2024-07-18 13:22:01 +0000";
layers = (
{
anchors = (
{
name = bottom;
pos = (643,82);
},
{
name = top;
pos = (560,643);
}
);
background = {
anchors = (
{
name = bottom;
pos = (643,82);
},
{
name = top;
pos = (560,643);
}
);
shapes = (
{
closed = 1;
nodes = (
(193.477,613,o),
(229.671,644,o),
(309.87,650,c),
(709.269,657,l),
(709.269,657,o),
(890.868,660,o),
(877.886,570,cs),
(866.5,498,o),
(751.501,493,o),
(751.501,493,c),
(435.499,503,l),
(392.334,332,o),
(391.136,321,o),
(363.367,167,c),
(516.563,183,o),
(478.564,178,o),
(629.56,198,c),
(629.56,198,o),
(778.36,202,o),
(791.773,134,cs),
(809.189,56,o),
(705.992,40,o),
(705.992,40,c),
(517.597,13,o),
(421.401,-3,o),
(227.4,2,c),
(59.597,13,o),
(79.982,90,o),
(79.577,113,c),
(104.539,303,o),
(112.923,385,o),
(183.881,595,c)
);
},
{
closed = 1;
nodes = (
(178.917,415,l),
(600.115,426,l),
(600.115,426,o),
(734.918,410,o),
(720.732,339,cs),
(705.547,263,o),
(594.348,262,o),
(594.348,262,c),
(163.15,251,l)
);
}
);
};
layerId = "7E05DFED-BC11-4724-94EA-0D0C4C5F5B37";
shapes = (
{
closed = 1;
nodes = (
(421.401,-3,o),
(517.597,13,o),
(705.992,40,c),
(705.992,40,o),
(809.189,56,o),
(791.773,134,cs),
(778.36,202,o),
(629.56,198,o),
(629.56,198,c),
(478.564,178,o),
(516.563,183,o),
(363.367,167,c),
(391.136,321,o),
(392.334,332,o),
(435.499,503,c),
(751.501,493,l),
(751.501,493,o),
(866.5,498,o),
(877.886,570,cs),
(890.868,660,o),
(709.269,657,o),
(709.269,657,c),
(309.87,650,l),
(229.671,644,o),
(193.477,613,o),
(183.881,595,c),
(112.923,385,o),
(104.539,303,o),
(79.577,113,c),
(79.982,90,o),
(59.597,13,o),
(227.4,2,c)
);
},
{
closed = 1;
nodes = (
(594.348,262,l),
(594.348,262,o),
(705.547,263,o),
(720.732,339,cs),
(734.918,410,o),
(600.115,426,o),
(600.115,426,c),
(178.917,415,l),
(163.15,251,l)
);
}
);
width = 817;
},
{
anchors = (
{
name = bottom;
pos = (642,82);
},
{
name = top;
pos = (559,643);
}
);
background = {
anchors = (
{
name = bottom;
pos = (642,82);
},
{
name = top;
pos = (559,643);
}
);
shapes = (
{
closed = 1;
nodes = (
(230.07,651,o),
(256.668,659,o),
(301.269,657,c),
(844.87,650,l),
(844.87,650,o),
(884.47,648,o),
(880.275,627,c),
(875.079,606,o),
(837.678,609,o),
(837.678,609,c),
(285.475,623,l),
(224.911,445,o),
(189.351,247,o),
(165.992,40,c),
(384.789,54,o),
(587.986,70,o),
(739.182,91,c),
(739.182,91,o),
(776.381,97,o),
(779.185,76,c),
(783.189,56,o),
(756.39,52,o),
(756.39,52,c),
(558.195,26,o),
(363.798,9,o),
(175.4,2,cs),
(125.2,1,o),
(98.798,9,o),
(94.195,26,c),
(120.156,221,o),
(148.516,418,o),
(220.473,633,c)
);
},
{
closed = 1;
nodes = (
(190.728,359,l),
(611.926,370,l),
(611.926,370,o),
(673.126,371,o),
(668.131,346,cs),
(664.135,326,o),
(612.335,327,o),
(612.335,327,c),
(182.137,316,l)
);
}
);
};
layerId = "99376340-70F9-4B1D-A253-B1BEDBF73140";
shapes = (
{
closed = 1;
nodes = (
(363.798,9,o),
(558.195,26,o),
(756.39,52,c),
(756.39,52,o),
(783.189,56,o),
(779.185,76,c),
(776.381,97,o),
(739.182,91,o),
(739.182,91,c),
(587.986,70,o),
(384.789,54,o),
(165.992,40,c),
(189.351,247,o),
(224.911,445,o),
(285.475,623,c),
(837.678,609,l),
(837.678,609,o),
(875.079,606,o),
(880.275,627,c),
(884.47,648,o),
(844.87,650,o),
(844.87,650,c),
(301.269,657,l),
(256.668,659,o),
(230.07,651,o),
(220.473,633,c),
(148.516,418,o),
(120.156,221,o),
(94.195,26,c),
(98.798,9,o),
(125.2,1,o),
(175.4,2,cs)
);
},
{
closed = 1;
nodes = (
(612.335,327,l),
(612.335,327,o),
(664.135,326,o),
(668.131,346,cs),
(673.126,371,o),
(611.926,370,o),
(611.926,370,c),
(190.728,359,l),
(182.137,316,l)
);
}
);
width = 841;
},
{
anchors = (
{
name = bottom;
pos = (435,82);
},
{
name = top;
pos = (417,643);
}
);
background = {
anchors = (
{
name = bottom;
pos = (435,82);
},
{
name = top;
pos = (417,643);
}
);
shapes = (
{
closed = 1;
nodes = (
(170.477,613,o),
(196.671,644,o),
(250.87,650,c),
(517.269,657,l),
(517.269,657,o),
(638.868,660,o),
(623.886,570,cs),
(611.5,498,o),
(534.501,493,o),
(534.501,493,c),
(324.499,503,l),
(284.334,332,o),
(283.136,321,o),
(254.367,167,c),
(357.563,183,o),
(331.564,178,o),
(433.56,198,c),
(433.56,198,o),
(533.36,202,o),
(537.773,134,cs),
(544.189,56,o),
(473.992,40,o),
(473.992,40,c),
(346.597,13,o),
(281.401,-3,o),
(152.4,2,c),
(41.597,13,o),
(59.982,90,o),
(61.577,113,c),
(90.539,303,o),
(101.923,385,o),
(162.881,595,c)
);
},
{
closed = 1;
nodes = (
(147.917,415,l),
(429.115,426,l),
(429.115,426,o),
(517.918,410,o),
(503.732,339,cs),
(488.547,263,o),
(414.348,262,o),
(414.348,262,c),
(126.15,251,l)
);
}
);
};
layerId = "F94FFD99-753E-41E1-86D1-359C136D3DE6";
shapes = (
{
closed = 1;
nodes = (
(281.401,-3,o),
(346.597,13,o),
(473.992,40,c),
(473.992,40,o),
(544.189,56,o),
(537.773,134,cs),
(533.36,202,o),
(433.56,198,o),
(433.56,198,c),
(331.564,178,o),
(357.563,183,o),
(254.367,167,c),
(283.136,321,o),
(284.334,332,o),
(324.499,503,c),
(534.501,493,l),
(534.501,493,o),
(611.5,498,o),
(623.886,570,cs),
(638.868,660,o),
(517.269,657,o),
(517.269,657,c),
(250.87,650,l),
(196.671,644,o),
(170.477,613,o),
(162.881,595,c),
(101.923,385,o),
(90.539,303,o),
(61.577,113,c),
(59.982,90,o),
(41.597,13,o),
(152.4,2,c)
);
},
{
closed = 1;
nodes = (
(414.348,262,l),
(414.348,262,o),
(488.547,263,o),
(503.732,339,cs),
(517.918,410,o),
(429.115,426,o),
(429.115,426,c),
(147.917,415,l),
(126.15,251,l)
);
}
);
width = 546;
},
{
anchors = (
{
name = bottom;
pos = (434,82);
},
{
name = top;
pos = (416,643);
}
);
background = {
anchors = (
{
name = bottom;
pos = (434,82);
},
{
name = top;
pos = (416,643);
}
);
shapes = (
{
closed = 1;
nodes = (
(197.07,651,o),
(215.668,659,o),
(245.269,657,c),
(606.87,650,l),
(606.87,650,o),
(633.47,648,o),
(629.275,627,c),
(624.079,606,o),
(599.678,609,o),
(599.678,609,c),
(232.475,623,l),
(179.911,445,o),
(143.351,247,o),
(113.992,40,c),
(260.789,54,o),
(396.986,70,o),
(499.182,91,c),
(499.182,91,o),
(524.381,97,o),
(525.185,76,cs),
(526.189,56,o),
(508.39,52,o),
(508.39,52,c),
(374.195,26,o),
(243.798,9,o),
(117.4,2,c),
(84.2,1,o),
(66.798,9,o),
(65.195,26,c),
(95.156,221,o),
(127.516,418,o),
(189.473,633,c)
);
},
{
closed = 1;
nodes = (
(151.728,359,l),
(432.926,370,l),
(432.926,370,o),
(474.126,371,o),
(469.131,346,cs),
(465.135,326,o),
(430.335,327,o),
(430.335,327,c),
(143.137,316,l)
);
}
);
};
layerId = "E82ED6F4-5586-4A54-A016-86253174F252";
shapes = (
{
closed = 1;
nodes = (
(243.798,9,o),
(374.195,26,o),
(508.39,52,c),
(508.39,52,o),
(526.189,56,o),
(525.185,76,cs),
(524.381,97,o),
(499.182,91,o),
(499.182,91,c),
(396.986,70,o),
(260.789,54,o),
(113.992,40,c),
(143.351,247,o),
(179.911,445,o),
(232.475,623,c),
(599.678,609,l),
(599.678,609,o),
(624.079,606,o),
(629.275,627,c),
(633.47,648,o),
(606.87,650,o),
(606.87,650,c),
(245.269,657,l),
(215.668,659,o),
(197.07,651,o),
(189.473,633,c),
(127.516,418,o),
(95.156,221,o),
(65.195,26,c),
(66.798,9,o),
(84.2,1,o),
(117.4,2,c)
);
},
{
closed = 1;
nodes = (
(430.335,327,l),
(430.335,327,o),
(465.135,326,o),
(469.131,346,cs),
(474.126,371,o),
(432.926,370,o),
(432.926,370,c),
(151.728,359,l),
(143.137,316,l)
);
}
);
width = 561;
}
);
unicode = 69;
},
{
glyphname = Eacute;
kernLeft = H1;
kernRight = E;
lastChange = "2024-07-18 12:46:04 +0000";
layers = (
{
anchors = (
{
name = bottom;
pos = (643,82);
}
);
background = {
anchors = (
{
name = bottom;
pos = (643,82);
},
{
name = top;
pos = (560,643);
}
);
shapes = (
{
closed = 1;
nodes = (
(193.477,613,o),
(229.671,644,o),
(309.87,650,c),
(709.269,657,l),
(709.269,657,o),
(890.868,660,o),
(877.886,570,cs),
(866.5,498,o),
(751.501,493,o),
(751.501,493,c),
(435.499,503,l),
(392.334,332,o),
(391.136,321,o),
(363.367,167,c),
(516.563,183,o),
(478.564,178,o),
(629.56,198,c),
(629.56,198,o),
(778.36,202,o),
(791.773,134,cs),
(809.189,56,o),
(705.992,40,o),
(705.992,40,c),
(517.597,13,o),
(421.401,-3,o),
(227.4,2,c),
(59.597,13,o),
(79.982,90,o),
(79.577,113,c),
(104.539,303,o),
(112.923,385,o),
(183.881,595,c)
);
},
{
closed = 1;
nodes = (
(178.917,415,l),
(600.115,426,l),
(600.115,426,o),
(734.918,410,o),
(720.732,339,cs),
(705.547,263,o),
(594.348,262,o),
(594.348,262,c),
(163.15,251,l)
);
},
{
closed = 1;
nodes = (
(661,832,o),
(747,843,o),
(774,809,cs),
(803,769,o),
(741,738,o),
(741,738,c),
(670,695,o),
(544,674,o),
(501,669,c),
(501,669,o),
(415,660,o),
(394,695,cs),
(357,757,o),
(469,792,o),
(469,792,c),
(572,822,o),
(623,828,o),
(661,832,c)
);
}
);
};
layerId = "7E05DFED-BC11-4724-94EA-0D0C4C5F5B37";
shapes = (
{
alignment = -1;
ref = E;
},
{
alignment = -1;
pos = (233,183);
ref = acute;
}
);
width = 817;
},
{
anchors = (
{
name = bottom;
pos = (642,82);
}
);
background = {
anchors = (
{
name = bottom;
pos = (642,82);
},
{
name = top;
pos = (559,643);
}
);
shapes = (
{
closed = 1;
nodes = (
(230.07,651,o),
(256.668,659,o),
(301.269,657,c),
(844.87,650,l),
(844.87,650,o),
(884.47,648,o),
(880.275,627,c),
(875.079,606,o),
(837.678,609,o),
(837.678,609,c),
(285.475,623,l),
(224.911,445,o),
(189.351,247,o),
(165.992,40,c),
(384.789,54,o),
(587.986,70,o),
(739.182,91,c),
(739.182,91,o),
(776.381,97,o),
(779.185,76,c),
(783.189,56,o),
(756.39,52,o),
(756.39,52,c),
(558.195,26,o),
(363.798,9,o),
(175.4,2,cs),
(125.2,1,o),
(98.798,9,o),
(94.195,26,c),
(120.156,221,o),
(148.516,418,o),
(220.473,633,c)
);
},
{
closed = 1;
nodes = (
(190.728,359,l),
(611.926,370,l),
(611.926,370,o),
(673.126,371,o),
(668.131,346,cs),
(664.135,326,o),
(612.335,327,o),
(612.335,327,c),
(182.137,316,l)
);
},
{
closed = 1;
nodes = (
(717,811,o),
(740,820,o),
(749,806,cs),
(759,792,o),
(735,785,o),
(735,785,c),
(644,750,o),
(543,718,o),
(432,689,c),
(432,689,o),
(405,682,o),
(397,696,cs),
(391,709,o),
(417,720,o),
(417,720,c),
(521,749,o),
(621,780,o),
(717,811,c)
);
}
);
};
layerId = "99376340-70F9-4B1D-A253-B1BEDBF73140";
shapes = (
{
alignment = -1;
ref = E;
},
{
alignment = -1;
pos = (217,183);
ref = acute;
}
);
width = 841;
},
{
anchors = (
{
name = bottom;
pos = (434,82);
}
);
background = {
anchors = (
{
name = bottom;
pos = (434,82);
},
{
name = top;
pos = (417,643);
}
);
shapes = (
{
closed = 1;
nodes = (
(170.477,613,o),
(196.671,644,o),
(250.87,650,c),
(517.269,657,l),
(517.269,657,o),
(638.868,660,o),
(623.886,570,cs),
(611.5,498,o),
(534.501,493,o),
(534.501,493,c),
(324.499,503,l),
(284.334,332,o),
(283.136,321,o),
(254.367,167,c),
(357.563,183,o),
(331.564,178,o),
(433.56,198,c),
(433.56,198,o),
(533.36,202,o),
(537.773,134,cs),
(544.189,56,o),
(473.992,40,o),
(473.992,40,c),
(346.597,13,o),
(281.401,-3,o),
(152.4,2,c),
(41.597,13,o),
(59.982,90,o),
(61.577,113,c),
(90.539,303,o),
(101.923,385,o),
(162.881,595,c)
);
},
{
closed = 1;
nodes = (
(147.917,415,l),
(429.115,426,l),
(429.115,426,o),
(517.918,410,o),
(503.732,339,cs),
(488.547,263,o),
(414.348,262,o),
(414.348,262,c),
(126.15,251,l)
);
},
{
closed = 1;
nodes = (
(497,832,o),
(555,843,o),
(570,809,cs),
(587,769,o),
(544,738,o),
(544,738,c),
(493,695,o),
(408,674,o),
(379,669,c),
(379,669,o),
(321,660,o),
(309,695,cs),
(289,757,o),
(366,792,o),
(366,792,c),
(437,822,o),
(471,828,o),
(497,832,c)
);
}
);
};
layerId = "F94FFD99-753E-41E1-86D1-359C136D3DE6";
shapes = (
{
alignment = -1;
ref = E;
},
{
alignment = -1;
pos = (168,183);
ref = acute;
}
);
width = 545;
},
{
anchors = (
{
name = bottom;
pos = (434,82);
}
);
background = {
anchors = (
{
name = bottom;
pos = (434,82);
},
{
name = top;
pos = (416,643);
}
);
shapes = (
{
closed = 1;
nodes = (
(197.07,651,o),
(215.668,659,o),
(245.269,657,c),
(606.87,650,l),
(606.87,650,o),
(633.47,648,o),
(629.275,627,c),
(624.079,606,o),
(599.678,609,o),
(599.678,609,c),
(232.475,623,l),
(179.911,445,o),
(143.351,247,o),
(113.992,40,c),
(260.789,54,o),
(396.986,70,o),
(499.182,91,c),
(499.182,91,o),
(524.381,97,o),
(525.185,76,cs),
(526.189,56,o),
(508.39,52,o),
(508.39,52,c),
(374.195,26,o),
(243.798,9,o),
(117.4,2,c),
(84.2,1,o),
(66.798,9,o),
(65.195,26,c),
(95.156,221,o),
(127.516,418,o),
(189.473,633,c)
);
},
{
closed = 1;
nodes = (
(151.728,359,l),
(432.926,370,l),
(432.926,370,o),
(474.126,371,o),
(469.131,346,cs),
(465.135,326,o),
(430.335,327,o),
(430.335,327,c),
(143.137,316,l)
);
},
{
closed = 1;
nodes = (
(533,811,o),
(549,820,o),
(554,806,cs),
(560,792,o),
(543,785,o),
(543,785,c),
(480,750,o),
(411,718,o),
(335,689,c),
(335,689,o),
(317,682,o),
(312,696,cs),
(309,709,o),
(327,720,o),
(327,720,c),
(398,749,o),
(467,780,o),
(533,811,c)
);
}
);
};
layerId = "E82ED6F4-5586-4A54-A016-86253174F252";
shapes = (
{
alignment = -1;
ref = E;
},
{
alignment = -1;
pos = (158,183);
ref = acute;
}
);
width = 561;
}
);
unicode = 201;
},
{
glyphname = Ebreve;
kernLeft = H1;
kernRight = E;
lastChange = "2024-07-18 12:46:04 +0000";
layers = (
{
anchors = (
{
name = bottom;
pos = (643,82);
}
);
background = {
anchors = (
{
name = bottom;
pos = (643,82);
},
{
name = top;
pos = (560,643);
}
);
shapes = (
{
closed = 1;
nodes = (
(193.477,613,o),
(229.671,644,o),
(309.87,650,c),
(709.269,657,l),
(709.269,657,o),
(890.868,660,o),
(877.886,570,cs),
(866.5,498,o),
(751.501,493,o),
(751.501,493,c),
(435.499,503,l),
(392.334,332,o),
(391.136,321,o),
(363.367,167,c),
(516.563,183,o),
(478.564,178,o),
(629.56,198,c),
(629.56,198,o),
(778.36,202,o),
(791.773,134,cs),
(809.189,56,o),
(705.992,40,o),
(705.992,40,c),
(517.597,13,o),
(421.401,-3,o),
(227.4,2,c),
(59.597,13,o),
(79.982,90,o),
(79.577,113,c),
(104.539,303,o),
(112.923,385,o),
(183.881,595,c)
);
},
{
closed = 1;
nodes = (
(178.917,415,l),
(600.115,426,l),
(600.115,426,o),
(734.918,410,o),
(720.732,339,cs),
(705.547,263,o),
(594.348,262,o),
(594.348,262,c),
(163.15,251,l)
);
},
{
closed = 1;
nodes = (
(400,857,o),
(439,882,o),
(497,875,cs),
(582,866,o),
(579,818,o),
(579,818,c),
(580,813,o),
(579,808,o),
(576,802,c),
(574,796,o),
(580,793,o),
(596,797,cs),
(608,800,o),
(607,807,o),
(607,811,cs),
(608,816,o),
(612,825,o),
(618,834,c),
(618,834,o),
(646,870,o),
(723,870,cs),
(814,869,o),
(840,822,o),
(840,822,c),
(847,800,o),
(836,768,o),
(824,752,c),
(775,703,o),
(708,670,o),
(605,667,c),
(541,661,o),
(432,675,o),
(385,717,c),
(331,756,o),
(337,824,o),
(400,857,c)
);
}
);
};
layerId = "7E05DFED-BC11-4724-94EA-0D0C4C5F5B37";
shapes = (
{
alignment = -1;
ref = E;
},
{
alignment = -1;
pos = (182,183);
ref = breve;
}
);
width = 817;
},
{
anchors = (
{
name = bottom;
pos = (642,82);
}
);
background = {
anchors = (
{
name = bottom;
pos = (642,82);
},
{
name = top;
pos = (559,643);
}
);
shapes = (
{
closed = 1;
nodes = (
(230.07,651,o),
(256.668,659,o),
(301.269,657,c),
(844.87,650,l),
(844.87,650,o),
(884.47,648,o),
(880.275,627,c),
(875.079,606,o),
(837.678,609,o),
(837.678,609,c),
(285.475,623,l),
(224.911,445,o),
(189.351,247,o),
(165.992,40,c),
(384.789,54,o),
(587.986,70,o),
(739.182,91,c),
(739.182,91,o),
(776.381,97,o),
(779.185,76,c),
(783.189,56,o),
(756.39,52,o),
(756.39,52,c),
(558.195,26,o),
(363.798,9,o),
(175.4,2,cs),
(125.2,1,o),
(98.798,9,o),
(94.195,26,c),
(120.156,221,o),
(148.516,418,o),
(220.473,633,c)
);
},
{
closed = 1;
nodes = (
(190.728,359,l),
(611.926,370,l),
(611.926,370,o),
(673.126,371,o),
(668.131,346,cs),
(664.135,326,o),
(612.335,327,o),
(612.335,327,c),
(182.137,316,l)
);
},
{
closed = 1;
nodes = (
(429,852,o),
(454,862,o),
(470,853,cs),
(483,845,o),
(464,834,o),
(464,834,c),
(423,801,o),
(424,775,o),
(450,751,cs),
(480,725,o),
(553,715,o),
(623,719,c),
(677,721,o),
(749,742,o),
(783,777,cs),
(793,788,o),
(798,800,o),
(799,816,c),
(799,816,o),
(799,827,o),
(825,829,cs),
(850,831,o),
(856,814,o),
(856,814,c),
(858,801,o),
(854,787,o),
(841,771,c),
(795,722,o),
(726,689,o),
(623,687,c),
(560,681,o),
(450,695,o),
(404,736,c),
(365,766,o),
(367,818,o),
(429,852,c)
);
}
);
};
layerId = "99376340-70F9-4B1D-A253-B1BEDBF73140";
shapes = (
{
alignment = -1;
ref = E;
},
{
alignment = -1;
pos = (181,183);
ref = breve;
}
);
width = 841;
},
{
anchors = (
{
name = bottom;
pos = (434,82);
}
);
background = {
anchors = (
{
name = bottom;
pos = (434,82);
},
{
name = top;
pos = (417,643);
}
);
shapes = (
{
closed = 1;
nodes = (
(170.477,613,o),
(196.671,644,o),
(250.87,650,c),
(517.269,657,l),
(517.269,657,o),
(638.868,660,o),
(623.886,570,cs),
(611.5,498,o),
(534.501,493,o),
(534.501,493,c),
(324.499,503,l),
(284.334,332,o),
(283.136,321,o),
(254.367,167,c),
(357.563,183,o),
(331.564,178,o),
(433.56,198,c),
(433.56,198,o),
(533.36,202,o),
(537.773,134,cs),
(544.189,56,o),
(473.992,40,o),
(473.992,40,c),
(346.597,13,o),
(281.401,-3,o),
(152.4,2,c),
(41.597,13,o),
(59.982,90,o),
(61.577,113,c),
(90.539,303,o),
(101.923,385,o),
(162.881,595,c)
);
},
{
closed = 1;
nodes = (
(147.917,415,l),
(429.115,426,l),
(429.115,426,o),
(517.918,410,o),
(503.732,339,cs),
(488.547,263,o),
(414.348,262,o),
(414.348,262,c),
(126.15,251,l)
);
},
{
closed = 1;
nodes = (
(324,857,o),
(352,882,o),
(390,875,cs),
(446,866,o),
(441,818,o),
(441,818,c),
(441,813,o),
(440,808,o),
(438,802,c),
(436,796,o),
(440,793,o),
(451,797,cs),
(459,800,o),
(459,807,o),
(459,811,cs),
(460,816,o),
(463,825,o),
(468,834,c),
(468,834,o),
(489,870,o),
(540,870,cs),
(601,869,o),
(615,822,o),
(615,822,c),
(618,800,o),
(609,768,o),
(600,752,c),
(564,703,o),
(517,670,o),
(448,667,c),
(405,661,o),
(333,675,o),
(305,717,c),
(271,756,o),
(280,824,o),
(324,857,c)
);
}
);
};
layerId = "F94FFD99-753E-41E1-86D1-359C136D3DE6";
shapes = (
{
alignment = -1;
ref = E;
},
{
alignment = -1;
pos = (134,183);
ref = breve;
}
);
width = 545;
},
{
anchors = (
{
name = bottom;
pos = (434,82);
}
);
background = {
anchors = (
{
name = bottom;
pos = (434,82);
},
{
name = top;
pos = (416,643);
}
);
shapes = (
{
closed = 1;
nodes = (
(197.07,651,o),
(215.668,659,o),
(245.269,657,c),
(606.87,650,l),
(606.87,650,o),
(633.47,648,o),
(629.275,627,c),
(624.079,606,o),
(599.678,609,o),
(599.678,609,c),
(232.475,623,l),
(179.911,445,o),
(143.351,247,o),
(113.992,40,c),
(260.789,54,o),
(396.986,70,o),
(499.182,91,c),
(499.182,91,o),
(524.381,97,o),
(525.185,76,cs),
(526.189,56,o),
(508.39,52,o),
(508.39,52,c),
(374.195,26,o),
(243.798,9,o),
(117.4,2,c),
(84.2,1,o),
(66.798,9,o),
(65.195,26,c),
(95.156,221,o),
(127.516,418,o),
(189.473,633,c)
);
},
{
closed = 1;
nodes = (
(151.728,359,l),
(432.926,370,l),
(432.926,370,o),
(474.126,371,o),
(469.131,346,cs),
(465.135,326,o),
(430.335,327,o),
(430.335,327,c),
(143.137,316,l)
);
},
{
closed = 1;
nodes = (
(344,852,o),
(361,862,o),
(371,853,cs),
(379,845,o),
(366,834,o),
(366,834,c),
(336,801,o),
(335,775,o),
(351,751,cs),
(369,725,o),
(417,715,o),
(464,719,c),
(500,721,o),
(550,742,o),
(575,777,cs),
(582,788,o),
(586,800,o),
(588,816,c),
(588,816,o),
(589,827,o),
(606,829,cs),
(623,831,o),
(626,814,o),
(626,814,c),
(626,801,o),
(623,787,o),
(613,771,c),
(579,722,o),
(531,689,o),
(462,687,c),
(420,681,o),
(347,695,o),
(319,736,c),
(295,766,o),
(300,818,o),
(344,852,c)
);
}
);
};
layerId = "E82ED6F4-5586-4A54-A016-86253174F252";
shapes = (
{
alignment = -1;
ref = E;
},
{
alignment = -1;
pos = (134,183);
ref = breve;
}
);
width = 561;
}
);
unicode = 276;
},
{
glyphname = Ecaron;
kernLeft = H1;
kernRight = E;
lastChange = "2024-07-18 12:46:04 +0000";
layers = (
{
anchors = (
{
name = bottom;
pos = (643,82);
}
);
background = {
anchors = (
{
name = bottom;
pos = (643,82);
},
{
name = top;
pos = (560,643);
}
);
shapes = (
{
closed = 1;
nodes = (
(193.477,613,o),
(229.671,644,o),
(309.87,650,c),
(709.269,657,l),
(709.269,657,o),
(890.868,660,o),
(877.886,570,cs),
(866.5,498,o),
(751.501,493,o),
(751.501,493,c),
(435.499,503,l),
(392.334,332,o),
(391.136,321,o),
(363.367,167,c),
(516.563,183,o),
(478.564,178,o),
(629.56,198,c),
(629.56,198,o),
(778.36,202,o),
(791.773,134,cs),
(809.189,56,o),
(705.992,40,o),
(705.992,40,c),
(517.597,13,o),
(421.401,-3,o),
(227.4,2,c),
(59.597,13,o),
(79.982,90,o),
(79.577,113,c),
(104.539,303,o),
(112.923,385,o),
(183.881,595,c)
);
},
{
closed = 1;
nodes = (
(178.917,415,l),
(600.115,426,l),
(600.115,426,o),
(734.918,410,o),
(720.732,339,cs),
(705.547,263,o),
(594.348,262,o),
(594.348,262,c),
(163.15,251,l)
);
},
{
closed = 1;
nodes = (
(801,757,o),
(843,795,o),
(778,829,cs),
(733,853,o),
(675,836,o),
(675,836,c),
(651,824,o),
(616,808,o),
(591,794,c),
(535,827,l),
(535,827,o),
(463,852,o),
(402,821,cs),
(318,777,o),
(393,730,o),
(393,730,c),
(503,679,l),
(546,653,o),
(628,658,o),
(658,673,c),
(730,705,o),
(756,721,o),
(801,757,c)
);
}
);
};
layerId = "7E05DFED-BC11-4724-94EA-0D0C4C5F5B37";
shapes = (
{
alignment = -1;
ref = E;
},
{
alignment = -1;
pos = (198,183);
ref = caron;
}
);
width = 817;
},
{
anchors = (
{
name = bottom;
pos = (642,82);
}
);
background = {
anchors = (
{
name = bottom;
pos = (642,82);
},
{
name = top;
pos = (559,643);
}
);
shapes = (
{
closed = 1;
nodes = (
(230.07,651,o),
(256.668,659,o),
(301.269,657,c),
(844.87,650,l),
(844.87,650,o),
(884.47,648,o),
(880.275,627,c),
(875.079,606,o),
(837.678,609,o),
(837.678,609,c),
(285.475,623,l),
(224.911,445,o),
(189.351,247,o),
(165.992,40,c),
(384.789,54,o),
(587.986,70,o),
(739.182,91,c),
(739.182,91,o),
(776.381,97,o),
(779.185,76,c),
(783.189,56,o),
(756.39,52,o),
(756.39,52,c),
(558.195,26,o),
(363.798,9,o),
(175.4,2,cs),
(125.2,1,o),
(98.798,9,o),
(94.195,26,c),
(120.156,221,o),
(148.516,418,o),
(220.473,633,c)
);
},
{
closed = 1;
nodes = (
(190.728,359,l),
(611.926,370,l),
(611.926,370,o),
(673.126,371,o),
(668.131,346,cs),
(664.135,326,o),
(612.335,327,o),
(612.335,327,c),
(182.137,316,l)
);
},
{
closed = 1;
nodes = (
(800,803,o),
(817,817,o),
(800,825,cs),
(784,832,o),
(765,822,o),
(765,822,c),
(675,766,o),
(621,733,o),
(577,722,c),
(439,798,l),
(439,798,o),
(414,808,o),
(399,796,cs),
(385,785,o),
(398,774,o),
(398,774,c),
(539,700,l),
(569,687,o),
(597,689,o),
(626,703,cs),
(693,736,o),
(756,769,o),
(800,803,c)
);
}
);
};
layerId = "99376340-70F9-4B1D-A253-B1BEDBF73140";
shapes = (
{
alignment = -1;
ref = E;
},
{
alignment = -1;
pos = (197,183);
ref = caron;
}
);
width = 841;
},
{
anchors = (
{
name = bottom;
pos = (434,82);
}
);
background = {
anchors = (
{
name = bottom;
pos = (434,82);
},
{
name = top;
pos = (417,643);
}
);
shapes = (
{
closed = 1;
nodes = (
(170.477,613,o),
(196.671,644,o),
(250.87,650,c),
(517.269,657,l),
(517.269,657,o),
(638.868,660,o),
(623.886,570,cs),
(611.5,498,o),
(534.501,493,o),
(534.501,493,c),
(324.499,503,l),
(284.334,332,o),
(283.136,321,o),
(254.367,167,c),
(357.563,183,o),
(331.564,178,o),
(433.56,198,c),
(433.56,198,o),
(533.36,202,o),
(537.773,134,cs),
(544.189,56,o),
(473.992,40,o),
(473.992,40,c),
(346.597,13,o),
(281.401,-3,o),
(152.4,2,c),
(41.597,13,o),
(59.982,90,o),
(61.577,113,c),
(90.539,303,o),
(101.923,385,o),
(162.881,595,c)
);
},
{
closed = 1;
nodes = (
(147.917,415,l),
(429.115,426,l),
(429.115,426,o),
(517.918,410,o),
(503.732,339,cs),
(488.547,263,o),
(414.348,262,o),
(414.348,262,c),
(126.15,251,l)
);
},
{
closed = 1;
nodes = (
(585,757,o),
(615,795,o),
(574,829,cs),
(546,853,o),
(506,836,o),
(506,836,c),
(489,824,o),
(465,808,o),
(447,794,c),
(412,827,l),
(412,827,o),
(366,852,o),
(323,821,cs),
(264,777,o),
(311,730,o),
(311,730,c),
(381,679,l),
(408,653,o),
(463,658,o),
(484,673,c),
(534,705,o),
(552,721,o),
(585,757,c)
);
}
);
};
layerId = "F94FFD99-753E-41E1-86D1-359C136D3DE6";
shapes = (
{
alignment = -1;
ref = E;
},
{
alignment = -1;
pos = (144,183);
ref = caron;
}
);
width = 545;
},
{
anchors = (
{
name = bottom;
pos = (434,82);
}
);
background = {
anchors = (
{
name = bottom;
pos = (434,82);
},
{
name = top;
pos = (416,643);
}
);
shapes = (
{
closed = 1;
nodes = (
(197.07,651,o),
(215.668,659,o),
(245.269,657,c),
(606.87,650,l),
(606.87,650,o),
(633.47,648,o),
(629.275,627,c),
(624.079,606,o),
(599.678,609,o),
(599.678,609,c),
(232.475,623,l),
(179.911,445,o),
(143.351,247,o),
(113.992,40,c),
(260.789,54,o),
(396.986,70,o),
(499.182,91,c),
(499.182,91,o),
(524.381,97,o),
(525.185,76,cs),
(526.189,56,o),
(508.39,52,o),
(508.39,52,c),
(374.195,26,o),
(243.798,9,o),
(117.4,2,c),
(84.2,1,o),
(66.798,9,o),
(65.195,26,c),
(95.156,221,o),
(127.516,418,o),
(189.473,633,c)
);
},
{
closed = 1;
nodes = (
(151.728,359,l),
(432.926,370,l),
(432.926,370,o),
(474.126,371,o),
(469.131,346,cs),
(465.135,326,o),
(430.335,327,o),
(430.335,327,c),
(143.137,316,l)
);
},
{
closed = 1;
nodes = (
(588,803,o),
(600,817,o),
(589,825,cs),
(579,832,o),
(566,822,o),
(566,822,c),
(502,766,o),
(464,733,o),
(434,722,c),
(347,798,l),
(347,798,o),
(331,808,o),
(320,796,cs),
(310,785,o),
(318,774,o),
(318,774,c),
(407,700,l),
(426,687,o),
(445,689,o),
(465,703,cs),
(512,736,o),
(556,769,o),
(588,803,c)
);
}
);
};
layerId = "E82ED6F4-5586-4A54-A016-86253174F252";
shapes = (
{
alignment = -1;
ref = E;
},
{
alignment = -1;
pos = (144,183);
ref = caron;
}
);
width = 561;
}
);
unicode = 282;
},
{
glyphname = Ecircumflex;
kernLeft = H1;
kernRight = E;
lastChange = "2024-07-18 12:46:04 +0000";
layers = (
{
anchors = (
{
name = bottom;
pos = (643,82);
}
);
background = {
anchors = (
{
name = bottom;
pos = (643,82);
},
{
name = top;
pos = (560,643);
}
);
shapes = (
{
closed = 1;
nodes = (
(193.477,613,o),
(229.671,644,o),
(309.87,650,c),
(709.269,657,l),
(709.269,657,o),
(890.868,660,o),
(877.886,570,cs),
(866.5,498,o),
(751.501,493,o),
(751.501,493,c),
(435.499,503,l),
(392.334,332,o),
(391.136,321,o),
(363.367,167,c),
(516.563,183,o),
(478.564,178,o),
(629.56,198,c),
(629.56,198,o),
(778.36,202,o),
(791.773,134,cs),
(809.189,56,o),
(705.992,40,o),
(705.992,40,c),
(517.597,13,o),
(421.401,-3,o),
(227.4,2,c),
(59.597,13,o),
(79.982,90,o),
(79.577,113,c),
(104.539,303,o),
(112.923,385,o),
(183.881,595,c)
);
},
{
closed = 1;
nodes = (
(178.917,415,l),
(600.115,426,l),
(600.115,426,o),
(734.918,410,o),
(720.732,339,cs),
(705.547,263,o),
(594.348,262,o),
(594.348,262,c),
(163.15,251,l)
);
},
{
closed = 1;
nodes = (
(365,753,o),
(324,715,o),
(389,681,cs),
(435,657,o),
(492,674,o),
(492,674,c),
(516,686,o),
(550,703,o),
(576,716,c),
(632,683,l),
(632,683,o),
(705,658,o),
(763,689,cs),
(849,733,o),
(774,780,o),
(774,780,c),
(663,832,l),
(620,857,o),
(540,852,o),
(510,837,c),
(437,805,o),
(411,789,o),
(365,753,c)
);
}
);
};
layerId = "7E05DFED-BC11-4724-94EA-0D0C4C5F5B37";
shapes = (
{
alignment = -1;
ref = E;
},
{
alignment = -1;
pos = (198,183);
ref = circumflex;
}
);
width = 817;
},
{
anchors = (
{
name = bottom;
pos = (642,82);
}
);
background = {
anchors = (
{
name = bottom;
pos = (642,82);
},
{
name = top;
pos = (559,643);
}
);
shapes = (
{
closed = 1;
nodes = (
(230.07,651,o),
(256.668,659,o),
(301.269,657,c),
(844.87,650,l),
(844.87,650,o),
(884.47,648,o),
(880.275,627,c),
(875.079,606,o),
(837.678,609,o),
(837.678,609,c),
(285.475,623,l),
(224.911,445,o),
(189.351,247,o),
(165.992,40,c),
(384.789,54,o),
(587.986,70,o),
(739.182,91,c),
(739.182,91,o),
(776.381,97,o),
(779.185,76,c),
(783.189,56,o),
(756.39,52,o),
(756.39,52,c),
(558.195,26,o),
(363.798,9,o),
(175.4,2,cs),
(125.2,1,o),
(98.798,9,o),
(94.195,26,c),
(120.156,221,o),
(148.516,418,o),
(220.473,633,c)
);
},
{
closed = 1;
nodes = (
(190.728,359,l),
(611.926,370,l),
(611.926,370,o),
(673.126,371,o),
(668.131,346,cs),
(664.135,326,o),
(612.335,327,o),
(612.335,327,c),
(182.137,316,l)
);
},
{
closed = 1;
nodes = (
(383,714,o),
(367,700,o),
(384,693,cs),
(400,685,o),
(418,695,o),
(418,695,c),
(507,751,o),
(562,784,o),
(606,795,c),
(744,720,l),
(744,720,o),
(769,709,o),
(783,721,cs),
(798,733,o),
(785,743,o),
(785,743,c),
(644,817,l),
(615,831,o),
(586,828,o),
(558,814,c),
(490,782,o),
(428,749,o),
(383,714,c)
);
}
);
};
layerId = "99376340-70F9-4B1D-A253-B1BEDBF73140";
shapes = (
{
alignment = -1;
ref = E;
},
{
alignment = -1;
pos = (197,183);
ref = circumflex;
}
);
width = 841;
},
{
anchors = (
{
name = bottom;
pos = (434,82);
}
);
background = {
anchors = (
{
name = bottom;
pos = (434,82);
},
{
name = top;
pos = (417,643);
}
);
shapes = (
{
closed = 1;
nodes = (
(170.477,613,o),
(196.671,644,o),
(250.87,650,c),
(517.269,657,l),
(517.269,657,o),
(638.868,660,o),
(623.886,570,cs),
(611.5,498,o),
(534.501,493,o),
(534.501,493,c),
(324.499,503,l),
(284.334,332,o),
(283.136,321,o),
(254.367,167,c),
(357.563,183,o),
(331.564,178,o),
(433.56,198,c),
(433.56,198,o),
(533.36,202,o),
(537.773,134,cs),
(544.189,56,o),
(473.992,40,o),
(473.992,40,c),
(346.597,13,o),
(281.401,-3,o),
(152.4,2,c),
(41.597,13,o),
(59.982,90,o),
(61.577,113,c),
(90.539,303,o),
(101.923,385,o),
(162.881,595,c)
);
},
{
closed = 1;
nodes = (
(147.917,415,l),
(429.115,426,l),
(429.115,426,o),
(517.918,410,o),
(503.732,339,cs),
(488.547,263,o),
(414.348,262,o),
(414.348,262,c),
(126.15,251,l)
);
},
{
closed = 1;
nodes = (
(294,753,o),
(264,715,o),
(305,681,cs),
(334,657,o),
(373,674,o),
(373,674,c),
(390,686,o),
(414,703,o),
(432,716,c),
(467,683,l),
(467,683,o),
(514,658,o),
(555,689,cs),
(615,733,o),
(568,780,o),
(568,780,c),
(498,832,l),
(471,857,o),
(417,852,o),
(396,837,c),
(345,805,o),
(327,789,o),
(294,753,c)
);
}
);
};
layerId = "F94FFD99-753E-41E1-86D1-359C136D3DE6";
shapes = (
{
alignment = -1;
ref = E;
},
{
alignment = -1;
pos = (144,183);
ref = circumflex;
}
);
width = 545;
},
{
anchors = (
{
name = bottom;
pos = (434,82);
}
);
background = {
anchors = (
{
name = bottom;
pos = (434,82);
},
{
name = top;
pos = (416,643);
}
);
shapes = (
{
closed = 1;
nodes = (
(197.07,651,o),
(215.668,659,o),
(245.269,657,c),
(606.87,650,l),
(606.87,650,o),
(633.47,648,o),
(629.275,627,c),
(624.079,606,o),
(599.678,609,o),
(599.678,609,c),
(232.475,623,l),
(179.911,445,o),
(143.351,247,o),
(113.992,40,c),
(260.789,54,o),
(396.986,70,o),
(499.182,91,c),
(499.182,91,o),
(524.381,97,o),
(525.185,76,cs),
(526.189,56,o),
(508.39,52,o),
(508.39,52,c),
(374.195,26,o),
(243.798,9,o),
(117.4,2,c),
(84.2,1,o),
(66.798,9,o),
(65.195,26,c),
(95.156,221,o),
(127.516,418,o),
(189.473,633,c)
);
},
{
closed = 1;
nodes = (
(151.728,359,l),
(432.926,370,l),
(432.926,370,o),
(474.126,371,o),
(469.131,346,cs),
(465.135,326,o),
(430.335,327,o),
(430.335,327,c),
(143.137,316,l)
);
},
{
closed = 1;
nodes = (
(304,714,o),
(292,700,o),
(303,693,cs),
(313,685,o),
(326,695,o),
(326,695,c),
(389,751,o),
(428,784,o),
(458,795,c),
(545,720,l),
(545,720,o),
(561,709,o),
(571,721,cs),
(582,733,o),
(574,743,o),
(574,743,c),
(485,817,l),
(466,831,o),
(447,828,o),
(427,814,cs),
(380,782,o),
(336,749,o),
(304,714,c)
);
}
);
};
layerId = "E82ED6F4-5586-4A54-A016-86253174F252";
shapes = (
{
alignment = -1;
ref = E;
},
{
alignment = -1;
pos = (144,183);
ref = circumflex;
}
);
width = 561;
}
);
unicode = 202;
},
{
glyphname = Edieresis;
kernLeft = H1;
kernRight = E;
lastChange = "2024-07-18 12:46:04 +0000";
layers = (
{
anchors = (
{
name = bottom;
pos = (643,82);
}
);
background = {
anchors = (
{
name = bottom;
pos = (643,82);
},
{
name = top;
pos = (560,643);
}
);
shapes = (
{
closed = 1;
nodes = (
(193.477,613,o),
(229.671,644,o),
(309.87,650,c),
(709.269,657,l),
(709.269,657,o),
(890.868,660,o),
(877.886,570,cs),
(866.5,498,o),
(751.501,493,o),
(751.501,493,c),
(435.499,503,l),
(392.334,332,o),
(391.136,321,o),
(363.367,167,c),
(516.563,183,o),
(478.564,178,o),
(629.56,198,c),
(629.56,198,o),
(778.36,202,o),
(791.773,134,cs),
(809.189,56,o),
(705.992,40,o),
(705.992,40,c),
(517.597,13,o),
(421.401,-3,o),
(227.4,2,c),
(59.597,13,o),
(79.982,90,o),
(79.577,113,c),
(104.539,303,o),
(112.923,385,o),
(183.881,595,c)
);
},
{
closed = 1;
nodes = (
(178.917,415,l),
(600.115,426,l),
(600.115,426,o),
(734.918,410,o),
(720.732,339,cs),
(705.547,263,o),
(594.348,262,o),
(594.348,262,c),
(163.15,251,l)
);
},
{
closed = 1;
nodes = (
(569,683,o),
(497,661,o),
(412,661,cs),
(328,661,o),
(267,699,o),
(277,747,cs),
(286,795,o),
(362,834,o),
(446,834,cs),
(531,834,o),
(591,795,o),
(582,747,cs)
);
},
{
closed = 1;
nodes = (
(885,683,o),
(814,661,o),
(730,661,cs),
(646,661,o),
(584,699,o),
(594,747,cs),
(603,795,o),
(680,834,o),
(764,834,cs),
(848,834,o),
(907,795,o),
(898,747,cs)
);
}
);
};
layerId = "7E05DFED-BC11-4724-94EA-0D0C4C5F5B37";
shapes = (
{
alignment = -1;
ref = E;
},
{
alignment = -1;
pos = (118,183);
ref = dieresis;
}
);
width = 817;
},
{
anchors = (
{
name = bottom;
pos = (642,82);
}
);
background = {
anchors = (
{
name = bottom;
pos = (642,82);
},
{
name = top;
pos = (559,643);
}
);
shapes = (
{
closed = 1;
nodes = (
(230.07,651,o),
(256.668,659,o),
(301.269,657,c),
(844.87,650,l),
(844.87,650,o),
(884.47,648,o),
(880.275,627,c),
(875.079,606,o),
(837.678,609,o),
(837.678,609,c),
(285.475,623,l),
(224.911,445,o),
(189.351,247,o),
(165.992,40,c),
(384.789,54,o),
(587.986,70,o),
(739.182,91,c),
(739.182,91,o),
(776.381,97,o),
(779.185,76,c),
(783.189,56,o),
(756.39,52,o),
(756.39,52,c),
(558.195,26,o),
(363.798,9,o),
(175.4,2,cs),
(125.2,1,o),
(98.798,9,o),
(94.195,26,c),
(120.156,221,o),
(148.516,418,o),
(220.473,633,c)
);
},
{
closed = 1;
nodes = (
(190.728,359,l),
(611.926,370,l),
(611.926,370,o),
(673.126,371,o),
(668.131,346,cs),
(664.135,326,o),
(612.335,327,o),
(612.335,327,c),
(182.137,316,l)
);
},
{
closed = 1;
nodes = (
(457,728,o),
(431,715,o),
(404,715,cs),
(377,715,o),
(359,728,o),
(362,744,cs),
(365,759,o),
(389,772,o),
(416,772,cs),
(443,772,o),
(463,759,o),
(460,744,cs)
);
},
{
closed = 1;
nodes = (
(773,728,o),
(748,715,o),
(722,715,cs),
(695,715,o),
(676,728,o),
(679,744,cs),
(682,759,o),
(707,772,o),
(734,772,cs),
(760,772,o),
(779,759,o),
(776,744,cs)
);
}
);
};
layerId = "99376340-70F9-4B1D-A253-B1BEDBF73140";
shapes = (
{
alignment = -1;
ref = E;
},
{
alignment = -1;
pos = (174,183);
ref = dieresis;
}
);
width = 841;
},
{
anchors = (
{
name = bottom;
pos = (434,82);
}
);
background = {
anchors = (
{
name = bottom;
pos = (434,82);
},
{
name = top;
pos = (417,643);
}
);
shapes = (
{
closed = 1;
nodes = (
(170.477,613,o),
(196.671,644,o),
(250.87,650,c),
(517.269,657,l),
(517.269,657,o),
(638.868,660,o),
(623.886,570,cs),
(611.5,498,o),
(534.501,493,o),
(534.501,493,c),
(324.499,503,l),
(284.334,332,o),
(283.136,321,o),
(254.367,167,c),
(357.563,183,o),
(331.564,178,o),
(433.56,198,c),
(433.56,198,o),
(533.36,202,o),
(537.773,134,cs),
(544.189,56,o),
(473.992,40,o),
(473.992,40,c),
(346.597,13,o),
(281.401,-3,o),
(152.4,2,c),
(41.597,13,o),
(59.982,90,o),
(61.577,113,c),
(90.539,303,o),
(101.923,385,o),
(162.881,595,c)
);
},
{
closed = 1;
nodes = (
(147.917,415,l),
(429.115,426,l),
(429.115,426,o),
(517.918,410,o),
(503.732,339,cs),
(488.547,263,o),
(414.348,262,o),
(414.348,262,c),
(126.15,251,l)
);
},
{
closed = 1;
nodes = (
(425,683,o),
(376,661,o),
(319,661,cs),
(263,661,o),
(225,699,o),
(235,747,cs),
(244,795,o),
(297,834,o),
(353,834,cs),
(410,834,o),
(447,795,o),
(438,747,cs)
);
},
{
closed = 1;
nodes = (
(636,683,o),
(587,661,o),
(531,661,cs),
(475,661,o),
(436,699,o),
(446,747,cs),
(455,795,o),
(509,834,o),
(565,834,cs),
(621,834,o),
(658,795,o),
(649,747,cs)
);
}
);
};
layerId = "F94FFD99-753E-41E1-86D1-359C136D3DE6";
shapes = (
{
alignment = -1;
ref = E;
},
{
alignment = -1;
pos = (91,183);
ref = dieresis;
}
);
width = 545;
},
{
anchors = (
{
name = bottom;
pos = (434,82);
}
);
background = {
anchors = (
{
name = bottom;
pos = (434,82);
},
{
name = top;
pos = (416,643);
}
);
shapes = (
{
closed = 1;
nodes = (
(197.07,651,o),
(215.668,659,o),
(245.269,657,c),
(606.87,650,l),
(606.87,650,o),
(633.47,648,o),
(629.275,627,c),
(624.079,606,o),
(599.678,609,o),
(599.678,609,c),
(232.475,623,l),
(179.911,445,o),
(143.351,247,o),
(113.992,40,c),
(260.789,54,o),
(396.986,70,o),
(499.182,91,c),
(499.182,91,o),
(524.381,97,o),
(525.185,76,cs),
(526.189,56,o),
(508.39,52,o),
(508.39,52,c),
(374.195,26,o),
(243.798,9,o),
(117.4,2,c),
(84.2,1,o),
(66.798,9,o),
(65.195,26,c),
(95.156,221,o),
(127.516,418,o),
(189.473,633,c)
);
},
{
closed = 1;
nodes = (
(151.728,359,l),
(432.926,370,l),
(432.926,370,o),
(474.126,371,o),
(469.131,346,cs),
(465.135,326,o),
(430.335,327,o),
(430.335,327,c),
(143.137,316,l)
);
},
{
closed = 1;
nodes = (
(354,728,o),
(336,715,o),
(318,715,cs),
(300,715,o),
(289,728,o),
(292,744,cs),
(295,759,o),
(312,772,o),
(330,772,cs),
(348,772,o),
(360,759,o),
(357,744,cs)
);
},
{
closed = 1;
nodes = (
(565,728,o),
(547,715,o),
(530,715,cs),
(512,715,o),
(500,728,o),
(503,744,cs),
(506,759,o),
(524,772,o),
(542,772,cs),
(559,772,o),
(571,759,o),
(568,744,cs)
);
}
);
};
layerId = "E82ED6F4-5586-4A54-A016-86253174F252";
shapes = (
{
alignment = -1;
ref = E;
},
{
alignment = -1;
pos = (129,183);
ref = dieresis;
}
);
width = 561;
}
);
unicode = 203;
},
{
glyphname = Edotaccent;
kernLeft = H1;
kernRight = E;
lastChange = "2024-07-18 12:46:04 +0000";
layers = (
{
anchors = (
{
name = bottom;
pos = (643,82);
}
);
background = {
anchors = (
{
name = bottom;
pos = (643,82);
},
{
name = top;
pos = (560,643);
}
);
shapes = (
{
closed = 1;
nodes = (
(193.477,613,o),
(229.671,644,o),
(309.87,650,c),
(709.269,657,l),
(709.269,657,o),
(890.868,660,o),
(877.886,570,cs),
(866.5,498,o),
(751.501,493,o),
(751.501,493,c),
(435.499,503,l),
(392.334,332,o),
(391.136,321,o),
(363.367,167,c),
(516.563,183,o),
(478.564,178,o),
(629.56,198,c),
(629.56,198,o),
(778.36,202,o),
(791.773,134,cs),
(809.189,56,o),
(705.992,40,o),
(705.992,40,c),
(517.597,13,o),
(421.401,-3,o),
(227.4,2,c),
(59.597,13,o),
(79.982,90,o),
(79.577,113,c),
(104.539,303,o),
(112.923,385,o),
(183.881,595,c)
);
},
{
closed = 1;
nodes = (
(178.917,415,l),
(600.115,426,l),
(600.115,426,o),
(734.918,410,o),
(720.732,339,cs),
(705.547,263,o),
(594.348,262,o),
(594.348,262,c),
(163.15,251,l)
);
},
{
closed = 1;
nodes = (
(724,687,o),
(651,664,o),
(566,664,cs),
(482,664,o),
(422,703,o),
(431,751,cs),
(441,799,o),
(517,838,o),
(601,838,cs),
(686,838,o),
(746,799,o),
(736,751,cs)
);
}
);
};
layerId = "7E05DFED-BC11-4724-94EA-0D0C4C5F5B37";
shapes = (
{
alignment = -1;
ref = E;
},
{
alignment = -1;
pos = (242,183);
ref = dotaccent;
}
);
width = 817;
},
{
anchors = (
{
name = bottom;
pos = (642,82);
}
);
background = {
anchors = (
{
name = bottom;
pos = (642,82);
},
{
name = top;
pos = (559,643);
}
);
shapes = (
{
closed = 1;
nodes = (
(230.07,651,o),
(256.668,659,o),
(301.269,657,c),
(844.87,650,l),
(844.87,650,o),
(884.47,648,o),
(880.275,627,c),
(875.079,606,o),
(837.678,609,o),
(837.678,609,c),
(285.475,623,l),
(224.911,445,o),
(189.351,247,o),
(165.992,40,c),
(384.789,54,o),
(587.986,70,o),
(739.182,91,c),
(739.182,91,o),
(776.381,97,o),
(779.185,76,c),
(783.189,56,o),
(756.39,52,o),
(756.39,52,c),
(558.195,26,o),
(363.798,9,o),
(175.4,2,cs),
(125.2,1,o),
(98.798,9,o),
(94.195,26,c),
(120.156,221,o),
(148.516,418,o),
(220.473,633,c)
);
},
{
closed = 1;
nodes = (
(190.728,359,l),
(611.926,370,l),
(611.926,370,o),
(673.126,371,o),
(668.131,346,cs),
(664.135,326,o),
(612.335,327,o),
(612.335,327,c),
(182.137,316,l)
);
},
{
closed = 1;
nodes = (
(630,732,o),
(604,719,o),
(577,719,cs),
(550,719,o),
(532,732,o),
(535,747,cs),
(538,763,o),
(561,776,o),
(588,776,cs),
(615,776,o),
(636,763,o),
(633,747,cs)
);
}
);
};
layerId = "99376340-70F9-4B1D-A253-B1BEDBF73140";
shapes = (
{
alignment = -1;
ref = E;
},
{
alignment = -1;
pos = (346,183);
ref = dotaccent;
}
);
width = 841;
},
{
anchors = (
{
name = bottom;
pos = (434,82);
}
);
background = {
anchors = (
{
name = bottom;
pos = (434,82);
},
{
name = top;
pos = (417,643);
}
);
shapes = (
{
closed = 1;
nodes = (
(170.477,613,o),
(196.671,644,o),
(250.87,650,c),
(517.269,657,l),
(517.269,657,o),
(638.868,660,o),
(623.886,570,cs),
(611.5,498,o),
(534.501,493,o),
(534.501,493,c),
(324.499,503,l),
(284.334,332,o),
(283.136,321,o),
(254.367,167,c),
(357.563,183,o),
(331.564,178,o),
(433.56,198,c),
(433.56,198,o),
(533.36,202,o),
(537.773,134,cs),
(544.189,56,o),
(473.992,40,o),
(473.992,40,c),
(346.597,13,o),
(281.401,-3,o),
(152.4,2,c),
(41.597,13,o),
(59.982,90,o),
(61.577,113,c),
(90.539,303,o),
(101.923,385,o),
(162.881,595,c)
);
},
{
closed = 1;
nodes = (
(147.917,415,l),
(429.115,426,l),
(429.115,426,o),
(517.918,410,o),
(503.732,339,cs),
(488.547,263,o),
(414.348,262,o),
(414.348,262,c),
(126.15,251,l)
);
},
{
closed = 1;
nodes = (
(529,687,o),
(479,664,o),
(422,664,cs),
(366,664,o),
(329,703,o),
(338,751,cs),
(348,799,o),
(401,838,o),
(457,838,cs),
(514,838,o),
(551,799,o),
(541,751,cs)
);
}
);
};
layerId = "F94FFD99-753E-41E1-86D1-359C136D3DE6";
shapes = (
{
alignment = -1;
ref = E;
},
{
alignment = -1;
pos = (174,183);
ref = dotaccent;
}
);
width = 545;
},
{
anchors = (
{
name = bottom;
pos = (434,82);
}
);
background = {
anchors = (
{
name = bottom;
pos = (434,82);
},
{
name = top;
pos = (416,643);
}
);
shapes = (
{
closed = 1;
nodes = (
(197.07,651,o),
(215.668,659,o),
(245.269,657,c),
(606.87,650,l),
(606.87,650,o),
(633.47,648,o),
(629.275,627,c),
(624.079,606,o),
(599.678,609,o),
(599.678,609,c),
(232.475,623,l),
(179.911,445,o),
(143.351,247,o),
(113.992,40,c),
(260.789,54,o),
(396.986,70,o),
(499.182,91,c),
(499.182,91,o),
(524.381,97,o),
(525.185,76,cs),
(526.189,56,o),
(508.39,52,o),
(508.39,52,c),
(374.195,26,o),
(243.798,9,o),
(117.4,2,c),
(84.2,1,o),
(66.798,9,o),
(65.195,26,c),
(95.156,221,o),
(127.516,418,o),
(189.473,633,c)
);
},
{
closed = 1;
nodes = (
(151.728,359,l),
(432.926,370,l),
(432.926,370,o),
(474.126,371,o),
(469.131,346,cs),
(465.135,326,o),
(430.335,327,o),
(430.335,327,c),
(143.137,316,l)
);
},
{
closed = 1;
nodes = (
(470,732,o),
(452,719,o),
(434,719,cs),
(416,719,o),
(405,732,o),
(408,747,cs),
(411,763,o),
(427,776,o),
(445,776,cs),
(463,776,o),
(476,763,o),
(473,747,cs)
);
}
);
};
layerId = "E82ED6F4-5586-4A54-A016-86253174F252";
shapes = (
{
alignment = -1;
ref = E;
},
{
alignment = -1;
pos = (244,183);
ref = dotaccent;
}
);
width = 561;
}
);
unicode = 278;
},
{
glyphname = Egrave;
kernLeft = H1;
kernRight = E;
lastChange = "2024-07-18 12:46:04 +0000";
layers = (
{
anchors = (
{
name = bottom;
pos = (643,82);
}
);
background = {
anchors = (
{
name = bottom;
pos = (643,82);
},
{
name = top;
pos = (560,643);
}
);
shapes = (
{
closed = 1;
nodes = (
(193.477,613,o),
(229.671,644,o),
(309.87,650,c),
(709.269,657,l),
(709.269,657,o),
(890.868,660,o),
(877.886,570,cs),
(866.5,498,o),
(751.501,493,o),
(751.501,493,c),
(435.499,503,l),
(392.334,332,o),
(391.136,321,o),
(363.367,167,c),
(516.563,183,o),
(478.564,178,o),
(629.56,198,c),
(629.56,198,o),
(778.36,202,o),
(791.773,134,cs),
(809.189,56,o),
(705.992,40,o),
(705.992,40,c),
(517.597,13,o),
(421.401,-3,o),
(227.4,2,c),
(59.597,13,o),
(79.982,90,o),
(79.577,113,c),
(104.539,303,o),
(112.923,385,o),
(183.881,595,c)
);
},
{
closed = 1;
nodes = (
(178.917,415,l),
(600.115,426,l),
(600.115,426,o),
(734.918,410,o),
(720.732,339,cs),
(705.547,263,o),
(594.348,262,o),
(594.348,262,c),
(163.15,251,l)
);
},
{
closed = 1;
nodes = (
(537,837,o),
(457,848,o),
(417,813,cs),
(371,774,o),
(419,742,o),
(419,742,c),
(475,700,o),
(591,678,o),
(632,674,c),
(632,674,o),
(714,664,o),
(749,700,c),
(812,761,o),
(715,797,o),
(715,797,c),
(621,826,o),
(575,832,o),
(537,837,c)
);
}
);
};
layerId = "7E05DFED-BC11-4724-94EA-0D0C4C5F5B37";
shapes = (
{
alignment = -1;
ref = E;
},
{
alignment = -1;
pos = (232,183);
ref = grave;
}
);
width = 817;
},
{
anchors = (
{
name = bottom;
pos = (642,82);
}
);
background = {
anchors = (
{
name = bottom;
pos = (642,82);
},
{
name = top;
pos = (559,643);
}
);
shapes = (
{
closed = 1;
nodes = (
(230.07,651,o),
(256.668,659,o),
(301.269,657,c),
(844.87,650,l),
(844.87,650,o),
(884.47,648,o),
(880.275,627,c),
(875.079,606,o),
(837.678,609,o),
(837.678,609,c),
(285.475,623,l),
(224.911,445,o),
(189.351,247,o),
(165.992,40,c),
(384.789,54,o),
(587.986,70,o),
(739.182,91,c),
(739.182,91,o),
(776.381,97,o),
(779.185,76,c),
(783.189,56,o),
(756.39,52,o),
(756.39,52,c),
(558.195,26,o),
(363.798,9,o),
(175.4,2,cs),
(125.2,1,o),
(98.798,9,o),
(94.195,26,c),
(120.156,221,o),
(148.516,418,o),
(220.473,633,c)
);
},
{
closed = 1;
nodes = (
(190.728,359,l),
(611.926,370,l),
(611.926,370,o),
(673.126,371,o),
(668.131,346,cs),
(664.135,326,o),
(612.335,327,o),
(612.335,327,c),
(182.137,316,l)
);
},
{
closed = 1;
nodes = (
(471,815,o),
(451,825,o),
(436,811,cs),
(422,797,o),
(444,790,o),
(444,790,c),
(521,755,o),
(609,723,o),
(707,693,c),
(707,693,o),
(733,687,o),
(744,700,cs),
(756,714,o),
(735,724,o),
(735,724,c),
(642,754,o),
(555,784,o),
(471,815,c)
);
}
);
};
layerId = "99376340-70F9-4B1D-A253-B1BEDBF73140";
shapes = (
{
alignment = -1;
ref = E;
},
{
alignment = -1;
pos = (232,183);
ref = grave;
}
);
width = 841;
},
{
anchors = (
{
name = bottom;
pos = (434,82);
}
);
background = {
anchors = (
{
name = bottom;
pos = (434,82);
},
{
name = top;
pos = (417,643);
}
);
shapes = (
{
closed = 1;
nodes = (
(170.477,613,o),
(196.671,644,o),
(250.87,650,c),
(517.269,657,l),
(517.269,657,o),
(638.868,660,o),
(623.886,570,cs),
(611.5,498,o),
(534.501,493,o),
(534.501,493,c),
(324.499,503,l),
(284.334,332,o),
(283.136,321,o),
(254.367,167,c),
(357.563,183,o),
(331.564,178,o),
(433.56,198,c),
(433.56,198,o),
(533.36,202,o),
(537.773,134,cs),
(544.189,56,o),
(473.992,40,o),
(473.992,40,c),
(346.597,13,o),
(281.401,-3,o),
(152.4,2,c),
(41.597,13,o),
(59.982,90,o),
(61.577,113,c),
(90.539,303,o),
(101.923,385,o),
(162.881,595,c)
);
},
{
closed = 1;
nodes = (
(147.917,415,l),
(429.115,426,l),
(429.115,426,o),
(517.918,410,o),
(503.732,339,cs),
(488.547,263,o),
(414.348,262,o),
(414.348,262,c),
(126.15,251,l)
);
},
{
closed = 1;
nodes = (
(414,837,o),
(361,848,o),
(332,813,cs),
(299,774,o),
(329,742,o),
(329,742,c),
(363,700,o),
(439,678,o),
(466,674,c),
(466,674,o),
(520,664,o),
(546,700,cs),
(592,761,o),
(530,797,o),
(530,797,c),
(469,826,o),
(439,832,o),
(414,837,c)
);
}
);
};
layerId = "F94FFD99-753E-41E1-86D1-359C136D3DE6";
shapes = (
{
alignment = -1;
ref = E;
},
{
alignment = -1;
pos = (167,183);
ref = grave;
}
);
width = 545;
},
{
anchors = (
{
name = bottom;
pos = (434,82);
}
);
background = {
anchors = (
{
name = bottom;
pos = (434,82);
},
{
name = top;
pos = (416,643);
}
);
shapes = (
{
closed = 1;
nodes = (
(197.07,651,o),
(215.668,659,o),
(245.269,657,c),
(606.87,650,l),
(606.87,650,o),
(633.47,648,o),
(629.275,627,c),
(624.079,606,o),
(599.678,609,o),
(599.678,609,c),
(232.475,623,l),
(179.911,445,o),
(143.351,247,o),
(113.992,40,c),
(260.789,54,o),
(396.986,70,o),
(499.182,91,c),
(499.182,91,o),
(524.381,97,o),
(525.185,76,cs),
(526.189,56,o),
(508.39,52,o),
(508.39,52,c),
(374.195,26,o),
(243.798,9,o),
(117.4,2,c),
(84.2,1,o),
(66.798,9,o),
(65.195,26,c),
(95.156,221,o),
(127.516,418,o),
(189.473,633,c)
);
},
{
closed = 1;
nodes = (
(151.728,359,l),
(432.926,370,l),
(432.926,370,o),
(474.126,371,o),
(469.131,346,cs),
(465.135,326,o),
(430.335,327,o),
(430.335,327,c),
(143.137,316,l)
);
},
{
closed = 1;
nodes = (
(369,815,o),
(356,825,o),
(345,811,cs),
(335,797,o),
(349,790,o),
(349,790,c),
(398,755,o),
(455,723,o),
(518,693,c),
(518,693,o),
(535,687,o),
(543,700,cs),
(552,714,o),
(539,724,o),
(539,724,c),
(479,754,o),
(423,784,o),
(369,815,c)
);
}
);
};
layerId = "E82ED6F4-5586-4A54-A016-86253174F252";
shapes = (
{
alignment = -1;
ref = E;
},
{
alignment = -1;
pos = (167,183);
ref = grave;
}
);
width = 561;
}
);
unicode = 200;
},
{
glyphname = Emacron;
kernLeft = H1;
kernRight = E;
lastChange = "2024-07-18 12:46:04 +0000";
layers = (
{
anchors = (
{
name = bottom;
pos = (643,82);
}
);
background = {
anchors = (
{
name = bottom;
pos = (643,82);
},
{
name = top;
pos = (560,643);
}
);
shapes = (
{
closed = 1;
nodes = (
(193.477,613,o),
(229.671,644,o),
(309.87,650,c),
(709.269,657,l),
(709.269,657,o),
(890.868,660,o),
(877.886,570,cs),
(866.5,498,o),
(751.501,493,o),
(751.501,493,c),
(435.499,503,l),
(392.334,332,o),
(391.136,321,o),
(363.367,167,c),
(516.563,183,o),
(478.564,178,o),
(629.56,198,c),
(629.56,198,o),
(778.36,202,o),
(791.773,134,cs),
(809.189,56,o),
(705.992,40,o),
(705.992,40,c),
(517.597,13,o),
(421.401,-3,o),
(227.4,2,c),
(59.597,13,o),
(79.982,90,o),
(79.577,113,c),
(104.539,303,o),
(112.923,385,o),
(183.881,595,c)
);
},
{
closed = 1;
nodes = (
(178.917,415,l),
(600.115,426,l),
(600.115,426,o),
(734.918,410,o),
(720.732,339,cs),
(705.547,263,o),
(594.348,262,o),
(594.348,262,c),
(163.15,251,l)
);
},
{
closed = 1;
nodes = (
(358,807,o),
(276,791,o),
(296,728,c),
(312,668,o),
(415,673,o),
(415,673,c),
(589,680,o),
(538,677,o),
(746,668,c),
(746,668,o),
(856,672,o),
(870,744,cs),
(881,799,o),
(771,826,o),
(771,826,c),
(575,848,o),
(478,825,o),
(358,807,c)
);
}
);
};
layerId = "7E05DFED-BC11-4724-94EA-0D0C4C5F5B37";
shapes = (
{
alignment = -1;
ref = E;
},
{
alignment = -1;
pos = (104,183);
ref = macron;
}
);
width = 817;
},
{
anchors = (
{
name = bottom;
pos = (642,82);
}
);
background = {
anchors = (
{
name = bottom;
pos = (642,82);
},
{
name = top;
pos = (559,643);
}
);
shapes = (
{
closed = 1;
nodes = (
(230.07,651,o),
(256.668,659,o),
(301.269,657,c),
(844.87,650,l),
(844.87,650,o),
(884.47,648,o),
(880.275,627,c),
(875.079,606,o),
(837.678,609,o),
(837.678,609,c),
(285.475,623,l),
(224.911,445,o),
(189.351,247,o),
(165.992,40,c),
(384.789,54,o),
(587.986,70,o),
(739.182,91,c),
(739.182,91,o),
(776.381,97,o),
(779.185,76,c),
(783.189,56,o),
(756.39,52,o),
(756.39,52,c),
(558.195,26,o),
(363.798,9,o),
(175.4,2,cs),
(125.2,1,o),
(98.798,9,o),
(94.195,26,c),
(120.156,221,o),
(148.516,418,o),
(220.473,633,c)
);
},
{
closed = 1;
nodes = (
(190.728,359,l),
(611.926,370,l),
(611.926,370,o),
(673.126,371,o),
(668.131,346,cs),
(664.135,326,o),
(612.335,327,o),
(612.335,327,c),
(182.137,316,l)
);
},
{
closed = 1;
nodes = (
(317,760,o),
(286,755,o),
(291,739,c),
(294,724,o),
(328,726,o),
(328,726,c),
(529,737,o),
(613,737,o),
(821,728,c),
(821,728,o),
(853,726,o),
(862,744,cs),
(870,762,o),
(828,768,o),
(828,768,c),
(611,781,o),
(521,780,o),
(317,760,c)
);
}
);
};
layerId = "99376340-70F9-4B1D-A253-B1BEDBF73140";
shapes = (
{
alignment = -1;
ref = E;
},
{
alignment = -1;
pos = (103,183);
ref = macron;
}
);
width = 841;
},
{
anchors = (
{
name = bottom;
pos = (434,82);
}
);
background = {
anchors = (
{
name = bottom;
pos = (434,82);
},
{
name = top;
pos = (417,643);
}
);
shapes = (
{
closed = 1;
nodes = (
(170.477,613,o),
(196.671,644,o),
(250.87,650,c),
(517.269,657,l),
(517.269,657,o),
(638.868,660,o),
(623.886,570,cs),
(611.5,498,o),
(534.501,493,o),
(534.501,493,c),
(324.499,503,l),
(284.334,332,o),
(283.136,321,o),
(254.367,167,c),
(357.563,183,o),
(331.564,178,o),
(433.56,198,c),
(433.56,198,o),
(533.36,202,o),
(537.773,134,cs),
(544.189,56,o),
(473.992,40,o),
(473.992,40,c),
(346.597,13,o),
(281.401,-3,o),
(152.4,2,c),
(41.597,13,o),
(59.982,90,o),
(61.577,113,c),
(90.539,303,o),
(101.923,385,o),
(162.881,595,c)
);
},
{
closed = 1;
nodes = (
(147.917,415,l),
(429.115,426,l),
(429.115,426,o),
(517.918,410,o),
(503.732,339,cs),
(488.547,263,o),
(414.348,262,o),
(414.348,262,c),
(126.15,251,l)
);
},
{
closed = 1;
nodes = (
(294,807,o),
(238,791,o),
(247,728,cs),
(254,668,o),
(323,673,o),
(323,673,c),
(439,680,o),
(405,677,o),
(543,668,c),
(543,668,o),
(617,672,o),
(631,744,cs),
(642,799,o),
(570,826,o),
(570,826,c),
(441,848,o),
(375,825,o),
(294,807,c)
);
}
);
};
layerId = "F94FFD99-753E-41E1-86D1-359C136D3DE6";
shapes = (
{
alignment = -1;
ref = E;
},
{
alignment = -1;
pos = (82,183);
ref = macron;
}
);
width = 545;
},
{
anchors = (
{
name = bottom;
pos = (434,82);
}
);
background = {
anchors = (
{
name = bottom;
pos = (434,82);
},
{
name = top;
pos = (416,643);
}
);
shapes = (
{
closed = 1;
nodes = (
(197.07,651,o),
(215.668,659,o),
(245.269,657,c),
(606.87,650,l),
(606.87,650,o),
(633.47,648,o),
(629.275,627,c),
(624.079,606,o),
(599.678,609,o),
(599.678,609,c),
(232.475,623,l),
(179.911,445,o),
(143.351,247,o),
(113.992,40,c),
(260.789,54,o),
(396.986,70,o),
(499.182,91,c),
(499.182,91,o),
(524.381,97,o),
(525.185,76,cs),
(526.189,56,o),
(508.39,52,o),
(508.39,52,c),
(374.195,26,o),
(243.798,9,o),
(117.4,2,c),
(84.2,1,o),
(66.798,9,o),
(65.195,26,c),
(95.156,221,o),
(127.516,418,o),
(189.473,633,c)
);
},
{
closed = 1;
nodes = (
(151.728,359,l),
(432.926,370,l),
(432.926,370,o),
(474.126,371,o),
(469.131,346,cs),
(465.135,326,o),
(430.335,327,o),
(430.335,327,c),
(143.137,316,l)
);
},
{
closed = 1;
nodes = (
(263,760,o),
(242,755,o),
(244,739,cs),
(245,724,o),
(268,726,o),
(268,726,c),
(403,737,o),
(459,737,o),
(597,728,c),
(597,728,o),
(618,726,o),
(625,744,cs),
(632,762,o),
(604,768,o),
(604,768,c),
(460,781,o),
(400,780,o),
(263,760,c)
);
}
);
};
layerId = "E82ED6F4-5586-4A54-A016-86253174F252";
shapes = (
{
alignment = -1;
ref = E;
},
{
alignment = -1;
pos = (82,183);
ref = macron;
}
);
width = 561;
}
);
unicode = 274;
},
